<?xml version="1.0" ?>
<svg baseProfile="full" height="500" version="1.1" viewBox="-16.69503233545244 -1.233545191685231 33.99564703928836 18.495981621761402" width="500" xmlns="http://www.w3.org/2000/svg" xmlns:ev="http://www.w3.org/2001/xml-events" xmlns:xlink="http://www.w3.org/1999/xlink">
	<defs/>
	<path d="M 7.772680994329427,8.5975516810717 L 9.599836334844934,7.009945716785783 L 6.69745716369083,9.03001459872019 L 7.961006076973003,10.427580408448387 L 10.57896697352428,14.002725378253972 L 11.136916545488408,13.918463622267833 L 14.009947880081397,10.970086747897618 L 13.980596593657554,15.709310412664856 L 14.455849901630689,10.076002777148757 L 7.772680994329427,8.5975516810717" fill="none" stroke="#000000" stroke-width="0.0283061174348779"/>
	<path d="M 7.053691181164943,0.426437101971306 L 4.816794100780914,1.6439036985361941 L 2.449226527219374,3.542835801673425 L 2.20721607753899,7.271745104228288 L 1.9226374940239044,7.12369432415316 L 1.9704085462979513,3.6058369050154115 L 3.7619001422858376,0.5619340802099315 L 3.908654674287651,0.3265686980667709 L 4.092414938067162,0.3195808257260852 L 7.053691181164943,0.426437101971306" fill="none" stroke="#000000" stroke-width="0.0283061174348779"/>
	<path d="M -7.963907340482699,2.8217791790912212 L -10.306032297806754,4.790135524948066 L -13.850267533247209,7.719631981201703 L -13.398219099808943,11.70999174832702 L -13.236114798729353,11.080952077844168 L -9.70321812275445,8.265032134927996 L -10.221023852467404,7.17636130879339 L -10.271809515416386,6.2194628856029315 L -12.670235522845342,7.3566273851593875 L -10.494202660894668,5.435133019426969 L -7.963907340482699,2.8217791790912212" fill="none" stroke="#000000" stroke-width="0.0283061174348779"/>
	<path d="M 2.861697990510219,1.3980744332262312 L 1.9635388265673326,1.8805010177253842 L -1.0600877700851488,5.657884848553952 L 2.861697990510219,1.3980744332262312" fill="none" stroke="#000000" stroke-width="0.0283061174348779"/>
</svg>
