<?xml version="1.0" ?>
<svg baseProfile="full" height="500" version="1.1" viewBox="-13.74808490798152 -19.564455338698046 42.09723015094142 36.37197295824852" width="500" xmlns="http://www.w3.org/2000/svg" xmlns:ev="http://www.w3.org/2001/xml-events" xmlns:xlink="http://www.w3.org/1999/xlink">
	<defs/>
	<path d="M 9.39743224366406,-7.398538708943343 L 11.077661204800819,-11.12424604755676 L 12.495248996407067,-10.015522857575984 L 13.788609791900146,-10.10794416256559 L 14.822301262086135,-10.864143169958675 L 14.894575217558156,-13.41635670266577 L 15.969855090600975,-12.341750666444886 L 20.48692780270771,-14.318666206901922 L 17.592548395850137,-16.51885266914412 L 24.82643780734823,-12.93492443401453 L 9.39743224366406,-7.398538708943343" fill="none" stroke="#000000" stroke-width="0.03505181527971808"/>
	<path d="M -2.4281672398983467,8.85828052774071 L 1.3765159870631405,11.456968201048053 L 1.7156537431071448,12.195387423445418 L 3.8167600816807417,10.946155764348294 L 5.907065762552938,11.521048086322185 L 5.329480742762685,13.761914949996548 L 1.9931081162044184,13.30786117649482 L -2.4281672398983467,8.85828052774071" fill="none" stroke="#000000" stroke-width="0.03505181527971808"/>
	<path d="M -4.587293134741497,-9.130126649987982 L -7.7405602084776515,-8.041412189569524 L -7.067498205860202,-4.60277835557903 L -7.798820261542127,-4.387416245085306 L -10.225377472369852,-6.610961792180904 L -7.380622521380695,-10.67664774392364 L -7.485935297989628,-11.11811427640554 L -4.549763104825189,-12.295062321421586 L -4.587293134741497,-9.130126649987982" fill="none" stroke="#000000" stroke-width="0.03505181527971808"/>
	<path d="M -4.186362299283058,-9.858521201635345 L -1.1236954056742299,-8.836735539210832 L 1.2028140384102421,-5.319762424498908 L 0.29184077732564373,-6.5851669597610565 L 0.4018007001732376,-6.055362220490094 L 0.9493965589566372,-5.126387747581797 L -4.186362299283058,-9.858521201635345" fill="none" stroke="#000000" stroke-width="0.03505181527971808"/>
	<path d="M -3.6875373101167614,-8.150846375551112 L -6.04827913253105,-5.991923362972837 L -7.2467477385761985,-2.7564553382686143 L -3.6875373101167614,-8.150846375551112" fill="none" stroke="#000000" stroke-width="0.03505181527971808"/>
	<path d="M 9.741380534748778,-8.617277695175929 L 8.320923335140764,-5.3522387845933 L 7.829741581363014,-6.972209632205063 L 8.053221124053449,-7.352759382082526 L 9.741380534748778,-8.617277695175929" fill="none" stroke="#000000" stroke-width="0.03505181527971808"/>
	<path d="M -9.931739857554259,-1.0275381446431542 L -8.319101499543967,0.7080045379194457 L -8.434323529152572,0.71964132358094 L -7.831019251408408,1.4399542151054692 L -7.138514692780145,2.1653372180507926 L -7.519678893589166,0.3381191762639657 L -5.115767950653337,1.999765737511147 L -9.52467646269346,2.5120264734658164 L -9.931739857554259,-1.0275381446431542" fill="none" stroke="#000000" stroke-width="0.03505181527971808"/>
	<path d="M 2.554859051837555,6.402177178254192 L 1.391108236787884,5.902299676849839 L 1.5487515575047512,6.143749183254186 L 1.4436478489616025,6.256182912425359 L 2.227403078704835,7.564277486721471 L 2.9690689516546986,6.212989221759012 L 3.5283410606800016,6.587543193198004 L 3.074534605989386,5.853263483864997 L 2.020748674208634,7.0668146849952835 L 2.554859051837555,6.402177178254192" fill="none" stroke="#000000" stroke-width="0.03505181527971808"/>
</svg>
