<?xml version="1.0" ?>
<svg baseProfile="full" height="500" version="1.1" viewBox="-22.227130720970607 -17.068707469742343 36.963997356721364 37.905685541664646" width="500" xmlns="http://www.w3.org/2000/svg" xmlns:ev="http://www.w3.org/2001/xml-events" xmlns:xlink="http://www.w3.org/1999/xlink">
	<defs/>
	<path d="M 1.0764460409607146,6.561824073437851 L 0.35512822214030015,7.0320076866980905 L -1.2180132566955453,7.057156506946872 L -2.069067823238087,11.773133566594298 L -1.9101571174261074,14.131426073842654 L 1.088877520545804,17.665020206029467 L 1.6041073101580097,13.428135913227418 L 2.9193318173377296,15.183349083001085 L 1.0764460409607146,6.561824073437851" fill="none" stroke="#000000" stroke-width="0.03156176980987897"/>
	<path d="M 6.076078396364046,-2.395645727379561 L 4.827866161766023,-4.596726346653467 L 2.2655320152357072,-2.817466357534843 L 0.23418197140248243,-7.112787643522621 L 3.0305869545393995,1.8499201368245135 L 6.076078396364046,-2.395645727379561" fill="none" stroke="#000000" stroke-width="0.03156176980987897"/>
	<path d="M 7.863474621197081,7.43892958096373 L 9.828902473490844,3.957220496017924 L 5.360853261597456,3.223768298675745 L 6.683078580266173,4.319235362043264 L 6.416364372017844,4.250677155660816 L 7.561037510006063,6.297964342960222 L 8.090664300302327,4.68329724032807 L 7.863474621197081,7.43892958096373" fill="none" stroke="#000000" stroke-width="0.03156176980987897"/>
	<path d="M -2.3670966865689858,-9.471435459730728 L -3.115310868530919,-11.754334203582713 L -2.5724303605867167,-10.278477668230678 L -2.423278859578586,-10.490213266526146 L -2.181992470137115,-13.896749603849507 L -2.3670966865689858,-9.471435459730728" fill="none" stroke="#000000" stroke-width="0.03156176980987897"/>
	<path d="M 4.175507073453467,-4.312612689203861 L 1.658870169137169,-6.69289612914841 L -0.6878869797641958,-8.072325647312201 L 0.8933201443087524,-3.4969315463714103 L 0.06971552334669573,-7.388155416638742 L 4.175507073453467,-4.312612689203861" fill="none" stroke="#000000" stroke-width="0.03156176980987897"/>
	<path d="M -7.182161651944503,-9.654409334086589 L -6.473893693619312,-11.207994087732116 L -5.567615020544382,-10.940291534038751 L -4.852319830843629,-13.145033341623543 L -5.726081179395723,-13.105904757619001 L -5.572397411283443,-13.298497364572821 L -5.998815648994304,-13.269762046664274 L -7.182161651944503,-9.654409334086589" fill="none" stroke="#000000" stroke-width="0.03156176980987897"/>
	<path d="M 8.57016075170701,2.1365733100830635 L 11.643382785269864,0.049798176167640484 L 10.700574940983316,-0.8124256892416913 L 10.808485263947507,-0.9807691620748329 L 8.57016075170701,2.1365733100830635" fill="none" stroke="#000000" stroke-width="0.03156176980987897"/>
	<path d="M 7.693670430356118,9.329638141257746 L 7.013547216917215,10.08063301585858 L 8.712708870110053,11.881144923740182 L 7.693670430356118,9.329638141257746" fill="none" stroke="#000000" stroke-width="0.03156176980987897"/>
	<path d="M -9.909545599631642,-3.663108296823408 L -13.277501083431728,-4.399908275159908 L -13.270399006556678,-4.662487473919721 L -15.875788050883795,-5.5327728685063065 L -19.13364687048971,-8.094395979540664 L -18.819435321051056,-9.327630098560302 L -18.94158303783437,-8.319095682603317 L -9.909545599631642,-3.663108296823408" fill="none" stroke="#000000" stroke-width="0.03156176980987897"/>
</svg>
