<?xml version="1.0" ?>
<svg baseProfile="full" height="500" version="1.1" viewBox="-14.505008688257641 -21.619078551684655 29.423501255917376 42.156570136521296" width="500" xmlns="http://www.w3.org/2000/svg" xmlns:ev="http://www.w3.org/2001/xml-events" xmlns:xlink="http://www.w3.org/1999/xlink">
	<defs/>
	<path d="M -6.357188938092612,-4.216024642597802 L -7.656398762808313,-6.287527934029136 L -9.771157804416386,-6.857371766680663 L -7.910542612777926,-7.358638144713469 L -7.772005229292141,-8.00995300172753 L -6.053563521126176,-9.34855789825493 L -6.162640467704126,-8.8746693868885 L -5.255924734111181,-9.341177098748112 L -6.357188938092612,-4.216024642597802" fill="none" stroke="#000000" stroke-width="0.035101224093689674"/>
	<path d="M -4.244010557156928,8.770591209893244 L -2.061089335557652,11.105431000052889 L -1.6667488528066223,10.487053819341826 L 1.9825215598456127,7.637147301807383 L 1.6478448068873814,7.7807433079463335 L -1.0530987873400064,8.993107712541608 L 2.5404809883147723,7.077109382935789 L 5.918874697333186,9.2311548269786 L -0.013261607051656465,4.98249203194424 L -4.244010557156928,8.770591209893244" fill="none" stroke="#000000" stroke-width="0.035101224093689674"/>
	<path d="M 0.29112216451863837,2.453962863054212 L 4.024355142299285,-0.09258826511195828 L 5.485594663094924,-2.697748321909665 L 8.032724805785424,-4.859758293875235 L 8.708291495997834,-6.0086296604180145 L 10.909188439293233,-2.678119714441753 L 10.781984245828538,-3.2124312054196738 L 12.166169697411902,1.048119664089823 L 12.451908619627583,1.740469405809077 L 10.254578252729841,0.18520111757865299 L 0.29112216451863837,2.453962863054212" fill="none" stroke="#000000" stroke-width="0.035101224093689674"/>
	<path d="M -9.843316174946622,-5.342159534313975 L -8.35987244731642,-3.4940954784866003 L -8.022198950258547,-3.6552727762191446 L -6.660518372993434,-2.033406838671606 L -6.9603947015335,-0.9555801712182215 L -6.449811409602309,-2.5772084409603293 L -5.73849577857895,-2.4038352824749007 L -6.085698914021147,-2.403371544840908 L -2.332273803796702,-1.2925491572807122 L -5.519305506216663,-3.035017303013124 L -9.843316174946622,-5.342159534313975" fill="none" stroke="#000000" stroke-width="0.035101224093689674"/>
	<path d="M -9.989216140030594,8.3556127580358 L -7.173530539121684,10.24543952982639 L -4.628865727120186,12.962402936248118 L -5.083725199983527,15.934870507011933 L -3.274271891630159,15.548716172976377 L -5.97795639535382,17.00981856342083 L -9.989216140030594,8.3556127580358" fill="none" stroke="#000000" stroke-width="0.035101224093689674"/>
	<path d="M -8.79548617341616,-7.793396958628427 L -7.702994979278516,-10.605812512918362 L -8.489646828028226,-9.872517521121766 L -7.555075549297386,-14.238596347228402 L -6.940884242562805,-18.091405530268844 L -12.038424740225489,-13.719620589720279 L -8.79548617341616,-7.793396958628427" fill="none" stroke="#000000" stroke-width="0.035101224093689674"/>
</svg>
