<?xml version="1.0" ?>
<svg baseProfile="full" height="500" version="1.1" viewBox="-16.467356480343064 -18.04775438773859 29.404376782259813 30.140183216096485" width="500" xmlns="http://www.w3.org/2000/svg" xmlns:ev="http://www.w3.org/2001/xml-events" xmlns:xlink="http://www.w3.org/1999/xlink">
	<defs/>
	<path d="M 1.2750814953659209,-2.884634563994246 L 0.322799546385215,-4.097841185798283 L 0.11511023876169144,-2.289750073781305 L 0.9181091050855205,-3.0438670264725562 L 1.2750814953659209,-2.884634563994246" fill="none" stroke="#000000" stroke-width="0.02509590609167068"/>
	<path d="M 5.8261590172504345,-5.222253632105433 L 5.173715180757178,-9.932327486610982 L 8.606300870302013,-11.292217589890367 L 10.47619894252357,-15.525615825525687 L 8.143042850363543,-13.334354750151878 L 7.892801458083674,-13.161807519576659 L 4.693491728964155,-11.67937226947705 L 5.8261590172504345,-5.222253632105433" fill="none" stroke="#000000" stroke-width="0.02509590609167068"/>
	<path d="M 1.9811042416709874,3.498052654738226 L -0.6124409417339782,5.232409635067811 L -1.0374585093286575,5.607317003185733 L -1.3401594649190858,5.910920235192917 L 0.5506666847119142,1.8706358632701767 L 1.9811042416709874,3.498052654738226" fill="none" stroke="#000000" stroke-width="0.02509590609167068"/>
	<path d="M 0.69570172474908,-9.681183780114129 L -1.1739914967645722,-7.5294498144664335 L -0.6354825827765497,-5.969526815551582 L -0.6478989106384263,-5.824109443146702 L 1.0335490869223811,-4.579374341935 L 0.8151850480744909,-4.461509409468389 L 1.1235888350908292,-4.102226463332331 L 1.7502949299077164,-1.494165803425647 L 0.69570172474908,-9.681183780114129" fill="none" stroke="#000000" stroke-width="0.02509590609167068"/>
	<path d="M -8.132965812437341,9.57029026614499 L -6.18226143198085,6.76386768441162 L -6.507890311028998,5.8773873384199415 L -6.458139790680529,5.629451081646879 L -2.058207113186411,6.332787683608307 L -8.132965812437341,9.57029026614499" fill="none" stroke="#000000" stroke-width="0.02509590609167068"/>
	<path d="M -2.631758632082075,-2.80117927304369 L -3.2615375262797723,-5.5207994082824525 L -3.196257943280412,-5.5981464390058395 L -2.4906353872651006,-4.676738227649681 L -2.631758632082075,-2.80117927304369" fill="none" stroke="#000000" stroke-width="0.02509590609167068"/>
	<path d="M -6.091358603393036,4.199347827499832 L -9.27476356903046,3.2812334882033705 L -7.574537317355514,4.38479639848399 L -10.6431468945428,6.054198748994895 L -13.95238847078032,3.2716550023039366 L -13.673552726454362,0.2824420410585171 L -14.006535120949883,-0.9169874267557527 L -6.091358603393036,4.199347827499832" fill="none" stroke="#000000" stroke-width="0.02509590609167068"/>
	<path d="M -3.150710290955468,4.811913420008407 L -3.346415597764859,6.070896731556524 L 1.5131040026859446,6.363728358126641 L -3.222402940286155,5.970454139517458 L -3.150710290955468,4.811913420008407" fill="none" stroke="#000000" stroke-width="0.02509590609167068"/>
	<path d="M 4.842324986083934,-5.315169213977063 L 5.786608375379336,-4.907802450236466 L 5.6891859975470505,-4.748718773784376 L 5.572272904981936,-4.860254976487588 L 4.842324986083934,-5.315169213977063" fill="none" stroke="#000000" stroke-width="0.02509590609167068"/>
</svg>
