<?xml version="1.0" ?>
<svg baseProfile="full" height="500" version="1.1" viewBox="-16.445972251888506 -28.120781445569282 34.65523891027303 43.52837263022182" width="500" xmlns="http://www.w3.org/2000/svg" xmlns:ev="http://www.w3.org/2001/xml-events" xmlns:xlink="http://www.w3.org/1999/xlink">
	<defs/>
	<path d="M 9.642560576709378,1.7607315711694742 L 6.598127530803627,1.0767378304177397 L 4.285792742893623,1.8167798666044375 L 3.6880000284060626,2.066623659659378 L 6.698620901306866,4.837166053587689 L 9.642560576709378,1.7607315711694742" fill="none" stroke="#000000" stroke-width="0.03624344099102566"/>
	<path d="M 0.1028262612114954,5.06773097762801 L 4.266072216614119,6.215804457193286 L 3.584797513947351,4.942346637921156 L 6.577293377220304,8.288489887673752 L 4.870214330633056,3.9737743782746797 L 0.1028262612114954,5.06773097762801" fill="none" stroke="#000000" stroke-width="0.03624344099102566"/>
	<path d="M 0.5824843178632975,8.416975211855483 L 1.4249028575661034,11.011284968617035 L 1.3195112390155945,10.66370646423101 L 6.070718978270112,11.765125365054457 L 2.7008841229184943,8.825258189723709 L 1.4528057321499175,7.940077756737224 L 2.1753898737913526,7.090375268513616 L 1.9456696339395234,6.86132190751682 L -1.1498934033599562,6.448305746498413 L 0.5824843178632975,8.416975211855483" fill="none" stroke="#000000" stroke-width="0.03624344099102566"/>
	<path d="M -7.216560703006776,9.872831107958522 L -10.774828191352057,9.98085517361584 L -13.542934242286158,7.056748858407051 L -12.984975159479589,5.235525138912375 L -12.851649811155482,4.9849171523143765 L -13.024202968232645,5.420830456649373 L -7.216560703006776,9.872831107958522" fill="none" stroke="#000000" stroke-width="0.03624344099102566"/>
	<path d="M 6.48666644665925,-5.4729570606991 L 4.927807765006673,-6.385788502747873 L 6.704540457388193,-7.643433338176411 L 6.48666644665925,-5.4729570606991" fill="none" stroke="#000000" stroke-width="0.03624344099102566"/>
	<path d="M 2.5897447018233333,-5.002555511147655 L 6.831991079545194,-7.269755155827875 L 7.698577082785856,-8.431613873849512 L 10.02897455361211,-6.284237984142557 L 11.38330576010369,-6.142494664990132 L 5.5249418202506835,-4.722821624945447 L 2.5897447018233333,-5.002555511147655" fill="none" stroke="#000000" stroke-width="0.03624344099102566"/>
	<path d="M 0.5228250338589149,-7.6978868693380935 L 0.34926211460383083,-8.741652316603847 L 0.6689423699762718,-7.620945600604973 L 0.8171998864119594,-7.279461492803158 L -0.8112876651569294,-5.961492412295622 L 0.5228250338589149,-7.6978868693380935" fill="none" stroke="#000000" stroke-width="0.03624344099102566"/>
	<path d="M 9.552825822469366,3.0873306018473663 L 11.609810173639628,3.1464798247910784 L 12.648167066234114,4.089757719989899 L 15.306228648782174,2.7804259201381125 L 9.552825822469366,3.0873306018473663" fill="none" stroke="#000000" stroke-width="0.03624344099102566"/>
	<path d="M -7.068401871647863,-9.925512549061553 L -6.336199906106706,-13.850653354221627 L -9.673602125904301,-15.545400261524323 L -9.224166991640883,-20.100671859797895 L -7.114809737865773,-23.691317877941316 L -6.27501273465066,-24.478315625971202 L -4.050101218489022,-21.325343274943762 L -7.068401871647863,-9.925512549061553" fill="none" stroke="#000000" stroke-width="0.03624344099102566"/>
	<path d="M 9.237346295728088,4.278036651061354 L 8.257727681864058,6.385102906731765 L 8.61096366634248,5.582414613605453 L 7.55227750966186,4.373892196789479 L 9.0711125844098,9.517036781805006 L 9.237346295728088,4.278036651061354" fill="none" stroke="#000000" stroke-width="0.03624344099102566"/>
</svg>
