<?xml version="1.0" ?>
<svg baseProfile="full" height="500" version="1.1" viewBox="-17.295121498110955 -19.35561979179018 35.159606297518245 28.76584644829613" width="500" xmlns="http://www.w3.org/2000/svg" xmlns:ev="http://www.w3.org/2001/xml-events" xmlns:xlink="http://www.w3.org/1999/xlink">
	<defs/>
	<path d="M 7.016079247786404,2.7199356476292476 L 7.128003838848107,2.030873491728756 L 8.11836394097273,0.9545192387664916 L 5.865250084746425,0.22745680008306268 L 6.959167564956095,1.218053543513424 L 5.926214673541157,0.3909459526691553 L 7.016079247786404,2.7199356476292476" fill="none" stroke="#000000" stroke-width="0.029275275851389046"/>
	<path d="M 9.483644477217279,-8.18404577443524 L 6.9911335359670055,-10.002438132137286 L 3.2933613818416054,-9.82762861834016 L 4.857383583640308,-9.01960715680808 L 3.907334019317975,-9.294823944074043 L 2.836541697986301,-10.187279692578885 L 6.195306356710923,-12.808091954419906 L 6.6310841734726385,-12.518760418668165 L 8.950116623280646,-16.946267889494088 L 9.483644477217279,-8.18404577443524" fill="none" stroke="#000000" stroke-width="0.029275275851389046"/>
	<path d="M 2.714260568368207,-0.8765118699435313 L 1.2459981877496726,-3.315566756966429 L 2.4911213139108854,-6.808162441814252 L 7.390562219875697,-6.486008718285069 L 8.182695239255743,-7.398787618189645 L 9.496572047232242,-7.697588603107197 L 7.513500937626169,-8.096863872180453 L 12.652161307254964,-7.333482031618888 L 2.714260568368207,-0.8765118699435313" fill="none" stroke="#000000" stroke-width="0.029275275851389046"/>
	<path d="M 9.489016450896997,-3.4457069308477895 L 11.213853589274837,-3.9252882351662444 L 10.889552995114116,-4.077117701165593 L 11.75699618570154,-5.16085681315819 L 13.856807895083245,-3.534603304647724 L 14.922319576342693,-8.050506306825575 L 10.44312978150861,-5.574028115165827 L 9.489016450896997,-3.4457069308477895" fill="none" stroke="#000000" stroke-width="0.029275275851389046"/>
	<path d="M 5.636179187155916,-8.050088861114764 L 5.55414720393095,-8.15412613382004 L 0.8482486405309215,-7.04202358186618 L 5.636179187155916,-8.050088861114764" fill="none" stroke="#000000" stroke-width="0.029275275851389046"/>
	<path d="M -1.5475752077145088,-4.745778362926661 L -4.761918861285679,-8.113568173612087 L -5.488492608278442,-9.280861866327365 L -8.384688072529862,-10.287471048623233 L -8.448935271695289,-12.489293778897013 L -12.833593347828536,-12.666129802723999 L -11.290625312406405,-12.665556332833573 L -14.352956275046356,-13.290767759578944 L -1.5475752077145088,-4.745778362926661" fill="none" stroke="#000000" stroke-width="0.029275275851389046"/>
	<path d="M 4.565573693993015,-5.830817786444538 L 4.796995619228515,-3.390874482402323 L 6.266268721822453,-5.068561839559341 L 5.515468054642904,-5.649973946789667 L 5.6167205785652605,-5.502302017949094 L 5.2980392868254755,-5.746496138431664 L 4.78563382827541,-6.381751107989653 L 5.086442920462256,-5.958165198131302 L 4.565573693993015,-5.830817786444538" fill="none" stroke="#000000" stroke-width="0.029275275851389046"/>
	<path d="M 5.941060402136667,7.000874754209864 L 3.3140942470979473,3.6481920799684406 L 4.288461470954814,2.805998416131926 L 5.373248616881657,1.8405566946360736 L 5.5887604444038415,4.3851675853521055 L 5.544657488004177,1.533032497866607 L 5.941060402136667,7.000874754209864" fill="none" stroke="#000000" stroke-width="0.029275275851389046"/>
	<path d="M 8.901336179259186,0.3050722066617908 L 8.655392649007121,-0.3626285666068023 L 8.810372911783901,0.7194260453591916 L 12.399384768934858,2.8464838567576916 L 8.901336179259186,0.3050722066617908" fill="none" stroke="#000000" stroke-width="0.029275275851389046"/>
</svg>
