<?xml version="1.0" ?>
<svg baseProfile="full" height="500" version="1.1" viewBox="-17.50898202810817 -13.942537082534624 31.27672253783569 13.727256321994497" width="500" xmlns="http://www.w3.org/2000/svg" xmlns:ev="http://www.w3.org/2001/xml-events" xmlns:xlink="http://www.w3.org/1999/xlink">
	<defs/>
	<path d="M -5.529609696271978,-4.526192784337 L -7.080742137868206,-2.464113987634085 L -3.5488890088651703,-5.673430041705956 L -3.9258231435284654,-6.1001360857719575 L -5.5074492018924515,-9.197425479916596 L -6.959375086227705,-8.335589903290444 L -7.05824382041054,-9.68753704300532 L -9.625307759520444,-11.418878244951372 L -5.529609696271978,-4.526192784337" fill="none" stroke="#000000" stroke-width="0.026042233586874013"/>
	<path d="M 6.116093330120215,-7.398568778609535 L 7.017290110317057,-3.5622611837575473 L 6.974191613556346,-5.207123637509476 L 6.700929409774721,-4.923511741756193 L 7.100183445034173,-6.256420263921527 L 8.254119163376755,-8.662634782227734 L 9.118700255950795,-7.672929178301281 L 10.094340641642338,-8.571106472635142 L 9.01677822397268,-8.887586131837102 L 11.150496034246677,-10.435998575817715 L 6.116093330120215,-7.398568778609535" fill="none" stroke="#000000" stroke-width="0.026042233586874013"/>
	<path d="M -2.9142693032937412,-7.272649506534872 L -2.397987063211236,-7.572795835696601 L -2.030660345902825,-7.987883512858017 L -2.6420537638824646,-10.091010869225858 L -2.372274556327681,-9.634255722013387 L -3.895856789881247,-12.594585872668421 L -2.911250811447443,-12.591226571647985 L -4.000669419063795,-12.787748125040551 L -2.9142693032937412,-7.272649506534872" fill="none" stroke="#000000" stroke-width="0.026042233586874013"/>
	<path d="M -9.372006699772601,-1.3700697180341983 L -6.853235184948094,-5.447194790013785 L -9.248314640551381,-3.2894317189246327 L -10.083885892771098,-4.132984362736247 L -11.692748054569707,-4.9853534286988355 L -11.817322013117689,-5.031095467199688 L -13.83117842820368,-6.3500964897414995 L -14.891737552627335,-7.55094218419877 L -14.030786207122674,-1.7541851899245051 L -9.372006699772601,-1.3700697180341983" fill="none" stroke="#000000" stroke-width="0.026042233586874013"/>
</svg>
