<?xml version="1.0" ?>
<svg baseProfile="full" height="500" version="1.1" viewBox="-13.996224126745531 -15.231225659529613 29.850189834527864 27.172278053388624" width="500" xmlns="http://www.w3.org/2000/svg" xmlns:ev="http://www.w3.org/2001/xml-events" xmlns:xlink="http://www.w3.org/1999/xlink">
	<defs/>
	<path d="M -3.2762136056190787,-0.29190656425189765 L -3.0493312270395987,3.1286608217164327 L -0.292166288330423,3.1972425569084693 L -2.9782407933464285,3.1358969620839567 L -0.9296624378278673,3.391007509676453 L -0.15167129582508831,6.940597512733131 L -3.052726282693938,3.261805843120754 L -6.817332310841149,3.813435499969734 L -3.2762136056190787,-0.29190656425189765" fill="none" stroke="#000000" stroke-width="0.02485444615697574"/>
	<path d="M -1.5967989529208069,2.2040142163467102 L 1.4147495353805892,0.12173300157380273 L 2.558675463509302,0.9497906265728031 L 0.1292968576519664,-2.4516973984244173 L -1.5967989529208069,2.2040142163467102" fill="none" stroke="#000000" stroke-width="0.02485444615697574"/>
	<path d="M 8.62374229367721,-8.0686843054014 L 11.419217195996268,-6.065660710472552 L 11.792806570986738,-5.120409334340554 L 9.232350433993547,-5.02911583611115 L 9.241528770237627,-1.8864529059583517 L 8.469079913334697,-0.15850316457755964 L 5.852203529787315,0.13197040607140476 L 6.835004134669725,-1.161722152782441 L 3.510224371603794,1.8436665150096836 L 8.62374229367721,-8.0686843054014" fill="none" stroke="#000000" stroke-width="0.02485444615697574"/>
	<path d="M -7.521525554042361,-7.984386328595137 L -11.354663519027014,-7.074407707986175 L -9.384318441769697,-5.974608482429179 L -11.49835228796947,-6.7443112566070775 L -10.358637655822623,-10.512337673544767 L -6.2872792811956915,-10.867800683880946 L -7.521525554042361,-7.984386328595137" fill="none" stroke="#000000" stroke-width="0.02485444615697574"/>
	<path d="M 7.940665827619231,-8.22107521570006 L 7.627953473319667,-7.899260504453642 L 11.080017643005581,-9.725459796474246 L 13.356093869006271,-10.105850188411779 L 10.811849663312419,-9.756493288163066 L 7.940665827619231,-8.22107521570006" fill="none" stroke="#000000" stroke-width="0.02485444615697574"/>
	<path d="M 1.6481212715492948,-7.130534243501394 L 3.942767363345053,-5.811691184838841 L 0.23021737553516974,-7.717569011650055 L -2.7810722670349057,-9.856595890740284 L -1.3692398520205515,-12.598606376154946 L -1.0413638493527952,-12.956513135848489 L -0.9174714690390837,-12.929803209388771 L 1.5801176748310826,-9.479241950602002 L 1.6481212715492948,-7.130534243501394" fill="none" stroke="#000000" stroke-width="0.02485444615697574"/>
	<path d="M -8.660897939537552,-9.435881030400633 L -7.952239513945761,-9.450302022903566 L -8.761105843450482,-10.063041292771638 L -8.660897939537552,-9.435881030400633" fill="none" stroke="#000000" stroke-width="0.02485444615697574"/>
	<path d="M -9.307159347142566,3.6265541284842193 L -9.399660096617323,1.6150734661069226 L -7.07772520225235,1.4157430854111088 L -7.814557710773773,-0.7587796359892072 L -8.402787654615166,-0.4867495772775676 L -10.876321854565376,-1.610267003355029 L -9.307159347142566,3.6265541284842193" fill="none" stroke="#000000" stroke-width="0.02485444615697574"/>
	<path d="M 3.8893324216560554,-1.0676111288466856 L 4.047095822290428,-2.031933109977608 L 4.5213135908681785,-3.056480049751849 L 4.450004895155776,-4.957484400513159 L 3.8893324216560554,-1.0676111288466856" fill="none" stroke="#000000" stroke-width="0.02485444615697574"/>
	<path d="M -3.6970448712442057,6.920606352750614 L -1.880562137017234,6.666037864525518 L -0.7737614363756855,6.381923027822604 L -3.8048624420285053,8.507262453414864 L -3.4953556076762253,8.310835517998022 L -4.368350386371533,9.205237911649265 L -3.1949617605359286,7.630569443445159 L -4.714975553222126,9.666339870177882 L -3.6970448712442057,6.920606352750614" fill="none" stroke="#000000" stroke-width="0.02485444615697574"/>
</svg>
