<?xml version="1.0" ?>
<svg baseProfile="full" height="500" version="1.1" viewBox="-12.749128156572716 -14.645879619685171 29.16181039246794 20.115267347372694" width="500" xmlns="http://www.w3.org/2000/svg" xmlns:ev="http://www.w3.org/2001/xml-events" xmlns:xlink="http://www.w3.org/1999/xlink">
	<defs/>
	<path d="M -7.7783548244344765,3.7829982511293085 L -8.844100055125404,2.6293666879788935 L -10.137736577162281,-1.0575869417871995 L -7.007086618777535,-3.14478134322077 L -7.8998804795148905,-5.724278694567992 L -10.308860092923233,-6.99741830413706 L -4.6759308530029955,-8.348807298627895 L -7.7783548244344765,3.7829982511293085" fill="none" stroke="#000000" stroke-width="0.02428127426516898"/>
	<path d="M 6.008746724788892,2.3352111616419275 L 7.020488731718832,3.1601552876389585 L 6.539000800749793,1.6430732497698297 L 6.789961782243054,-2.647726358942493 L 6.008746724788892,2.3352111616419275" fill="none" stroke="#000000" stroke-width="0.02428127426516898"/>
	<path d="M -8.260471760643775,-8.813527201352702 L -9.40353785396825,-9.416589612540431 L -5.975411967611544,-12.620047834164357 L -8.279547931055978,-11.28917940581043 L -6.4515253228936045,-12.95949014312696 L -6.152838227036342,-12.687746054599232 L -5.964063680445763,-12.871615586696377 L -5.191595074843237,-12.738894567930501 L -8.260471760643775,-8.813527201352702" fill="none" stroke="#000000" stroke-width="0.02428127426516898"/>
	<path d="M 9.647236236105226,-5.416635571959181 L 11.757720674925052,-9.746661727373258 L 12.1970218690302,-10.028445816233766 L 12.6778041189685,-9.599985235510774 L 13.972414172245745,-8.476284661111928 L 9.647236236105226,-5.416635571959181" fill="none" stroke="#000000" stroke-width="0.02428127426516898"/>
	<path d="M -4.987036415922472,-2.0487063315235066 L -3.0751884214982455,-0.39595420814270366 L -2.1350903186997927,1.0904049827869484 L -2.539265245447746,0.955518030868308 L -7.049516205500652,2.1405511415487 L -5.953959066440028,-2.181394922497333 L -5.532015648728695,-1.167746110355634 L -5.440274444977286,-2.9442486621202146 L -4.987036415922472,-2.0487063315235066" fill="none" stroke="#000000" stroke-width="0.02428127426516898"/>
	<path d="M -2.9733186951500894,-8.484411192380465 L -0.9389817370737141,-6.824633134448135 L 0.6781285746003785,-5.2610652458476626 L -0.5028470031104393,-4.633295512383318 L -2.9733186951500894,-8.484411192380465" fill="none" stroke="#000000" stroke-width="0.02428127426516898"/>
	<path d="M -2.197383207985288,-4.35013326814115 L -3.6402562680782595,-4.841454102704619 L -3.673463021151604,-5.1284794232462 L -2.197383207985288,-4.35013326814115" fill="none" stroke="#000000" stroke-width="0.02428127426516898"/>
</svg>
