<?xml version="1.0" ?>
<svg baseProfile="full" height="500" version="1.1" viewBox="-17.14489424057968 -20.807924253316123 28.316753231169912 32.452177708127834" width="500" xmlns="http://www.w3.org/2000/svg" xmlns:ev="http://www.w3.org/2001/xml-events" xmlns:xlink="http://www.w3.org/1999/xlink">
	<defs/>
	<path d="M -8.098398235955672,-9.981663068615648 L -6.332250250957725,-12.71526875029576 L -3.5448055252467414,-14.542100108554031 L -3.7375205306390127,-17.536416106457406 L -1.3764931700609018,-18.09231737599152 L -1.1483752930951918,-17.845432592291168 L -0.277946656241963,-15.414009836086347 L -8.098398235955672,-9.981663068615648" fill="none" stroke="#000000" stroke-width="0.027020963953478628"/>
	<path d="M 3.3094046552510843,8.772479898752387 L 6.60836446854076,6.044976807699649 L 7.571181907950392,4.1751420403838155 L 7.159700670855781,4.58158983272488 L 4.993368971133925,7.344079821165696 L 3.3094046552510843,8.772479898752387" fill="none" stroke="#000000" stroke-width="0.027020963953478628"/>
	<path d="M -8.757757239759883,0.7845411223753374 L -10.659471319484279,-0.6392157858100544 L -10.7504930932286,-0.38436724053999294 L -10.082810256760903,0.21471684185146256 L -13.97102974829048,-1.1314171908661956 L -14.773906069668238,1.5200306216024484 L -11.454598062773785,1.813460310257141 L -10.717531388201849,1.720069759364032 L -8.757757239759883,0.7845411223753374" fill="none" stroke="#000000" stroke-width="0.027020963953478628"/>
	<path d="M 7.619495781437745,-2.598880618677903 L 4.898436709215413,-1.357865777958222 L 8.404940682107755,-4.376495253225104 L 8.308660115523642,-4.267098932512883 L 8.800870819678792,-4.64858941132029 L 7.619495781437745,-2.598880618677903" fill="none" stroke="#000000" stroke-width="0.027020963953478628"/>
	<path d="M -2.0319909245666645,5.911508357101944 L -0.5272811447159282,3.565645992917383 L -4.077333507223952,6.2378751190337995 L -4.3889750284277405,3.973881155850799 L -4.629844526115461,6.399022672299769 L -8.44916461774418,8.92864657748711 L 0.05897193538204437,5.6640438751462705 L -2.0319909245666645,5.911508357101944" fill="none" stroke="#000000" stroke-width="0.027020963953478628"/>
	<path d="M 5.6354396915039455,-5.0202768901899315 L 5.489366904541402,-5.306214173891749 L 5.619749759802957,-5.404691270744274 L 5.698262260735664,-5.301890923989583 L 5.671140538745227,-5.686771923692369 L 5.30943311493411,-6.052472768786256 L 6.276496732081126,-6.263712571491057 L 5.6354396915039455,-5.0202768901899315" fill="none" stroke="#000000" stroke-width="0.027020963953478628"/>
	<path d="M -5.985232066288308,-5.191337693001989 L -5.112658363525031,-4.8859652231360915 L -4.145392085899497,-4.0821614478965165 L -3.1348633565832045,-5.952360465744837 L -3.637834433880704,-8.629044882382964 L -2.7578424544254636,-11.658447317234959 L -5.706352714641436,-7.802838723605783 L -9.055084383621624,-7.394833298118299 L -8.941410460268546,-5.165548547638969 L -5.985232066288308,-5.191337693001989" fill="none" stroke="#000000" stroke-width="0.027020963953478628"/>
</svg>
