<?xml version="1.0" ?>
<svg baseProfile="full" height="500" version="1.1" viewBox="-16.582750161825885 -9.735043319792545 26.420312963050623 24.73231874956793" width="500" xmlns="http://www.w3.org/2000/svg" xmlns:ev="http://www.w3.org/2001/xml-events" xmlns:xlink="http://www.w3.org/1999/xlink">
	<defs/>
	<path d="M -9.173638664959629,3.1125710778852493 L -10.019367614340075,3.2553792130719073 L -9.664542410055171,3.6827892244099667 L -9.173638664959629,3.1125710778852493" fill="none" stroke="#000000" stroke-width="0.021998595306453473"/>
	<path d="M -9.216894888754418,9.8141109504103 L -12.845332935683235,12.316888375777765 L -14.102535691125487,10.016379093842193 L -14.371891333527312,10.796984118922627 L -13.125501981711434,12.927082785933703 L -9.216894888754418,9.8141109504103" fill="none" stroke="#000000" stroke-width="0.021998595306453473"/>
	<path d="M -4.671296954225084,-1.1352703922910443 L -6.356078899121177,-5.4730129030067625 L -7.163985803940064,-4.764429647870976 L -5.75539406134024,-7.664850675950861 L -9.225521533090713,-7.381339978503455 L -7.781817264039982,-3.660984903395068 L -8.49997285598966,-3.207053084465309 L -4.413522687973364,0.03305774223078917 L -4.671296954225084,-1.1352703922910443" fill="none" stroke="#000000" stroke-width="0.021998595306453473"/>
	<path d="M -4.239634973254529,1.041743456930309 L -1.9477997913374572,3.8248564784808026 L -1.7722540191425131,3.715034392922192 L -2.2333828007569783,3.4050441859899485 L -4.239634973254529,1.041743456930309" fill="none" stroke="#000000" stroke-width="0.021998595306453473"/>
	<path d="M 7.626703972926162,2.7214657236641226 L 4.175504722161963,0.8077782598506267 L 4.865832554214057,-0.8840496260773334 L 7.626703972926162,2.7214657236641226" fill="none" stroke="#000000" stroke-width="0.021998595306453473"/>
	<path d="M -0.9993207020040593,9.054688920277226 L -1.2225818384925264,9.317093191888945 L -3.6510979224069096,7.203662312073879 L -5.3485811622520885,6.027878383271888 L -5.675314127192913,6.00254866784136 L -5.469269432192444,5.762962244687308 L -4.651432754147055,1.2611052644701353 L -2.3002322596624927,7.539144281425209 L -0.9993207020040593,9.054688920277226" fill="none" stroke="#000000" stroke-width="0.021998595306453473"/>
</svg>
