<?xml version="1.0" ?>
<svg baseProfile="full" height="500" version="1.1" viewBox="-19.599637490060044 -14.045075572209763 42.70178041022539 25.228395231157272" width="500" xmlns="http://www.w3.org/2000/svg" xmlns:ev="http://www.w3.org/2001/xml-events" xmlns:xlink="http://www.w3.org/1999/xlink">
	<defs/>
	<path d="M -4.6683339134779285,-3.9109484487133583 L -8.634852433907124,-6.297237919916416 L -6.576205659633722,-9.029983772154395 L -4.6683339134779285,-3.9109484487133583" fill="none" stroke="#000000" stroke-width="0.03555518768544995"/>
	<path d="M -4.589563098349096,-3.219692419816445 L -6.760558402303407,-4.675689479219494 L -6.599285533219166,-3.7875645681694934 L -7.658990485569991,-2.566322520679515 L -8.552790058828174,-0.9521093869058994 L -6.7512635389085505,-0.4757656271813806 L -4.589563098349096,-3.219692419816445" fill="none" stroke="#000000" stroke-width="0.03555518768544995"/>
	<path d="M 7.747737607216148,-1.0551370738307835 L 9.643674820082058,-3.700960675892864 L 9.342996515894697,-3.722048177483709 L 9.46272184735522,-4.815827466026914 L 7.747737607216148,-1.0551370738307835" fill="none" stroke="#000000" stroke-width="0.03555518768544995"/>
	<path d="M 8.773496376961834,0.3575635049608259 L 7.187480601300009,0.6363046926749891 L 9.286674767762438,3.894301762073334 L 6.8646711872774855,0.382035837268324 L 8.773496376961834,0.3575635049608259" fill="none" stroke="#000000" stroke-width="0.03555518768544995"/>
	<path d="M 9.724498354641746,0.4186725488785683 L 11.094795491485886,4.425140861937158 L 12.178629383423246,3.2118392930755673 L 16.42879116315084,4.115313597565055 L 15.34838709224287,3.8795564469975004 L 19.52884655777763,0.35081908664751893 L 9.724498354641746,0.4186725488785683" fill="none" stroke="#000000" stroke-width="0.03555518768544995"/>
	<path d="M -7.021726527236279,5.613671218507372 L -10.638119729673075,2.785633624633093 L -11.538280958576975,2.169139401602652 L -12.679019715412984,5.724990642603197 L -7.021726527236279,5.613671218507372" fill="none" stroke="#000000" stroke-width="0.03555518768544995"/>
	<path d="M -4.296041851958334,-6.339903000930516 L -3.4581746784191854,-8.76216863195883 L -2.1525035249144273,-7.957509417882426 L -4.296041851958334,-6.339903000930516" fill="none" stroke="#000000" stroke-width="0.03555518768544995"/>
	<path d="M -8.1909462660737,-4.618272333954816 L -11.589863779394063,-5.886798207347198 L -14.8589116729844,-5.533209084044016 L -14.637541919869298,-6.009021057603878 L -15.725432797917152,-5.268801049007436 L -16.026341127672325,-8.757426456118495 L -8.1909462660737,-4.618272333954816" fill="none" stroke="#000000" stroke-width="0.03555518768544995"/>
	<path d="M 4.270146405509685,4.041902155349577 L 6.033949809870357,1.0099684011530932 L 6.052205606477962,1.2697747820966547 L 4.270146405509685,4.041902155349577" fill="none" stroke="#000000" stroke-width="0.03555518768544995"/>
	<path d="M -6.704898987363521,8.743264090982041 L -5.484650877868507,7.744367186646121 L -4.008489705942598,9.0661387281488 L -3.9712156352468178,8.933968963708544 L -1.4165873437840477,4.6380075484765415 L -0.5307191405817564,5.419543164148062 L 0.7427602311992596,7.333538453532366 L -1.5075164564415016,3.4549244989580927 L -2.3262869101006745,3.9474758382379664 L -6.704898987363521,8.743264090982041" fill="none" stroke="#000000" stroke-width="0.03555518768544995"/>
	<path d="M 8.02254675217981,-8.352638063419484 L 4.102155266447621,-11.29718848860378 L 3.784265004856522,-11.927894641411052 L 8.02254675217981,-8.352638063419484" fill="none" stroke="#000000" stroke-width="0.03555518768544995"/>
</svg>
