<?xml version="1.0" ?>
<svg baseProfile="full" height="500" version="1.1" viewBox="-14.777846464800902 -10.890557960994512 36.66108193710652 28.000276410165714" width="500" xmlns="http://www.w3.org/2000/svg" xmlns:ev="http://www.w3.org/2001/xml-events" xmlns:xlink="http://www.w3.org/1999/xlink">
	<defs/>
	<path d="M 8.462990370740687,3.366805594222921 L 9.755115591296878,6.626509767891418 L 12.00414747759964,3.738490834896181 L 15.040084315092173,6.069662738821425 L 18.415482865894134,3.231772723425845 L 18.141451398459733,2.1493707643298237 L 18.815426367660155,-2.4362581969280104 L 17.993039972667766,-2.1647032559976784 L 18.5418584214303,-1.922617235113432 L 8.462990370740687,3.366805594222921" fill="none" stroke="#000000" stroke-width="0.03052546372781559"/>
	<path d="M 7.180430899313727,2.148024426081019 L 3.411529516656049,0.4458002448132228 L 3.8391840276690523,0.8465697744052767 L 2.606804734057028,4.406993341143802 L 6.196500559223841,2.016297938725775 L 7.180430899313727,2.148024426081019" fill="none" stroke="#000000" stroke-width="0.03052546372781559"/>
	<path d="M 4.602685665837175,-2.7335367155126633 L 4.206375216034774,-3.4920620063012753 L -0.6162153106073003,-3.789060858975546 L -3.2234006113247293,-7.160528278635564 L -5.599188726593956,-7.822640581160829 L -5.862220830607604,-8.079340605264882 L -4.986492800381211,-4.254449929100473 L 4.602685665837175,-2.7335367155126633" fill="none" stroke="#000000" stroke-width="0.03052546372781559"/>
	<path d="M -8.565705475501915,0.5830910596686678 L -8.360314206460234,0.8606089672411339 L -5.9042455002455645,-2.366896538175229 L -6.579729633580255,-2.308757377645567 L -6.714002570653592,-2.702352664025828 L -8.565705475501915,0.5830910596686678" fill="none" stroke="#000000" stroke-width="0.03052546372781559"/>
	<path d="M 8.590530150642401,8.62150578185307 L 8.70653849404815,8.943291132273426 L 11.471366527854144,10.0451309149617 L 10.95845687081,10.5996356143952 L 12.76989305294325,14.763643138437471 L 11.757275892790691,10.033658347312752 L 8.590530150642401,8.62150578185307" fill="none" stroke="#000000" stroke-width="0.03052546372781559"/>
	<path d="M 5.53859527471549,-2.2747265933383147 L 5.936272159220887,0.7841689842499227 L 6.70303614148224,0.4435182619441292 L 7.243774492852534,2.354372650185236 L 7.280544723868995,1.0339698765232321 L 9.327033076618614,-0.7583688229450278 L 7.051884500163062,0.7160992099776382 L 5.53859527471549,-2.2747265933383147" fill="none" stroke="#000000" stroke-width="0.03052546372781559"/>
	<path d="M -7.498022297196185,3.4198536791584093 L -7.497581331291519,0.797830149423107 L -11.595257976530988,3.5841690535106117 L -11.629414104567275,3.8196724650411453 L -7.498022297196185,3.4198536791584093" fill="none" stroke="#000000" stroke-width="0.03052546372781559"/>
	<path d="M 5.472958265142324,-2.541608892798699 L 5.005625003311394,-3.0731213491756746 L 4.85175317205853,-2.773726011620433 L 5.472958265142324,-2.541608892798699" fill="none" stroke="#000000" stroke-width="0.03052546372781559"/>
	<path d="M -5.793228370384842,6.2183411178455295 L -4.225321506380857,7.190643556161448 L -3.6495615538298014,7.439235315477035 L -2.1186495840592396,8.115236029768788 L -5.181608727524022,11.449810434746032 L -5.13125700625457,7.0039467442955505 L -6.859144095918143,9.91517638146713 L -5.793228370384842,6.2183411178455295" fill="none" stroke="#000000" stroke-width="0.03052546372781559"/>
	<path d="M -0.14451369487924204,-8.54101566347583 L -1.4741115958625663,-7.561585804418619 L -1.0451101209105753,-7.561206916902015 L -0.8703326558828226,-7.043363155603382 L -0.7634904198563162,-6.152897292067227 L -0.14451369487924204,-8.54101566347583" fill="none" stroke="#000000" stroke-width="0.03052546372781559"/>
	<path d="M -4.630342244838042,-5.503159690707946 L -4.734137347688454,-5.339854862181869 L -4.768627326998068,-5.567219118662193 L -4.630342244838042,-5.503159690707946" fill="none" stroke="#000000" stroke-width="0.03052546372781559"/>
	<path d="M -8.829457121793006,-8.544482650260779 L -11.710037360155436,-7.590431345528382 L -11.059157133116466,-7.403342533635399 L -8.829457121793006,-8.544482650260779" fill="none" stroke="#000000" stroke-width="0.03052546372781559"/>
</svg>
