<?xml version="1.0" ?>
<svg baseProfile="full" height="500" version="1.1" viewBox="-10.934323603008808 -9.574283885946695 25.925771320612125 24.348698348083005" width="500" xmlns="http://www.w3.org/2000/svg" xmlns:ev="http://www.w3.org/2001/xml-events" xmlns:xlink="http://www.w3.org/1999/xlink">
	<defs/>
	<path d="M 7.295710410037579,5.267802539797554 L 8.470872252040532,6.328291308087165 L 8.460090315280155,5.261340609445555 L 8.364198064566018,3.4994888706079426 L 7.159347499405646,0.4115093086751447 L 2.483783185322628,0.3536014737301214 L 0.9024617441762017,2.136663474270067 L -2.1671249916000237,4.245747721573187 L -4.720423015596391,4.883079874969906 L -1.0059229508913896,3.957101719451547 L 7.295710410037579,5.267802539797554" fill="none" stroke="#000000" stroke-width="0.02158682041682941"/>
	<path d="M -3.299161648278,1.5702503339436618 L -4.16964492862414,2.8357442284114254 L -6.729432111708728,0.25072161657885594 L -3.765198607186228,3.9247433355199184 L -3.299161648278,1.5702503339436618" fill="none" stroke="#000000" stroke-width="0.02158682041682941"/>
	<path d="M -7.084118809570372,6.593702885499887 L -7.887075921951583,5.015429802160261 L -8.764848151117452,9.838676402913109 L -7.636140144458352,10.157077134875369 L -8.471810240833621,11.301855870763843 L -7.352827267364534,10.749168857827899 L -5.241227256230552,12.736361757955711 L -7.073889208292081,10.982225383666208 L -7.084118809570372,6.593702885499887" fill="none" stroke="#000000" stroke-width="0.02158682041682941"/>
	<path d="M 5.276530323178928,3.5899550619377365 L 5.015573927469025,4.07201420509434 L 5.214958486531125,4.050829916956037 L 6.24692579773693,3.7499753683167354 L 5.276530323178928,3.5899550619377365" fill="none" stroke="#000000" stroke-width="0.02158682041682941"/>
	<path d="M 3.0448616177428907,-1.9980631335797625 L 4.942038214090243,-5.045561851334679 L 3.5388516116856668,-7.5362311817661 L 8.747312257275347,-6.539878566435219 L 3.0448616177428907,-1.9980631335797625" fill="none" stroke="#000000" stroke-width="0.02158682041682941"/>
	<path d="M -4.618928536318261,0.34092588079350605 L -3.775288041048467,0.5239674409329751 L -4.508379800704216,-0.04806932022814181 L -4.618928536318261,0.34092588079350605" fill="none" stroke="#000000" stroke-width="0.02158682041682941"/>
	<path d="M 1.016082796060278,9.932134487315277 L 3.1965071734244064,12.350438471898158 L 3.3949517148495802,12.151624790684425 L 4.982970960542921,11.676538467840778 L 1.016082796060278,9.932134487315277" fill="none" stroke="#000000" stroke-width="0.02158682041682941"/>
	<path d="M -8.435366369873005,-0.8744169982259429 L -6.808847180178544,-2.4658014886399315 L -6.879480388524584,-2.3775565482066754 L -8.435366369873005,-0.8744169982259429" fill="none" stroke="#000000" stroke-width="0.02158682041682941"/>
	<path d="M 9.050677681173966,-2.3143742078809275 L 7.57646712355997,-5.0385010462749795 L 11.199743845651817,-6.706524148815324 L 9.050677681173966,-2.3143742078809275" fill="none" stroke="#000000" stroke-width="0.02158682041682941"/>
	<path d="M 8.922473461541003,7.2316092178669 L 9.935420880868971,6.196844305390499 L 12.821972265711958,7.488159886683299 L 11.13631099261532,7.412874528922613 L 8.922473461541003,7.2316092178669" fill="none" stroke="#000000" stroke-width="0.02158682041682941"/>
	<path d="M 9.990955144152526,-0.8144792395124405 L 10.427503407808704,-1.1674118714574337 L 8.317176280108638,-1.2098872605341475 L 9.990955144152526,-0.8144792395124405" fill="none" stroke="#000000" stroke-width="0.02158682041682941"/>
	<path d="M 6.721559785527045,7.058907855215967 L 6.970652458163382,7.2855480799849675 L 7.309728474923909,11.399448244722956 L 6.721559785527045,7.058907855215967" fill="none" stroke="#000000" stroke-width="0.02158682041682941"/>
</svg>
