<?xml version="1.0" ?>
<svg baseProfile="full" height="500" version="1.1" viewBox="-19.08937064023009 -20.439043352330867 34.062186392228334 32.91399221115606" width="500" xmlns="http://www.w3.org/2000/svg" xmlns:ev="http://www.w3.org/2001/xml-events" xmlns:xlink="http://www.w3.org/1999/xlink">
	<defs/>
	<path d="M -5.320813673746874,-0.9296154201297782 L -1.5577772812036974,0.1993180456096435 L -1.1009951813366547,0.46347487179830443 L -5.381168426846321,1.7082051332105153 L -5.320813673746874,-0.9296154201297782" fill="none" stroke="#000000" stroke-width="0.028361520726251734"/>
	<path d="M -6.145329191159532,-2.457434269082592 L -8.191844211526682,-1.1130455636081316 L -9.773735672065218,1.3454389604405586 L -10.552436737113217,3.6454965706120808 L -11.21856025491605,4.927705562642626 L -12.396457131483794,5.120345175056446 L -16.151255360261025,4.592840199888183 L -13.062562969286745,4.546558030015816 L -15.631496121102966,1.1273056740418097 L -6.145329191159532,-2.457434269082592" fill="none" stroke="#000000" stroke-width="0.028361520726251734"/>
	<path d="M -8.151384867072714,-4.0144756630502965 L -10.640239785957538,-2.8363344273042106 L -9.723774449097059,-1.7857185996998006 L -11.426924671156357,-2.3081978961278393 L -14.170942552026066,-2.77867477379832 L -14.65447443144092,-4.328137529892456 L -14.798251574452907,-3.9018107404405473 L -15.748245231356092,-2.811873308654952 L -16.23903780724179,-5.280833906627283 L -8.151384867072714,-4.0144756630502965" fill="none" stroke="#000000" stroke-width="0.028361520726251734"/>
	<path d="M 2.351478331161985,-4.400204205850531 L 5.504457986378507,-5.76795018384379 L 8.043132723204655,-7.299906468651011 L 5.380164132057051,-8.697721161757944 L 2.03065612854771,-10.438873985492505 L 2.2239285896026426,-10.626760067850498 L 1.9148893626339878,-14.716453275277143 L 1.2611411226543647,-14.596621844510297 L 4.019392806756581,-17.684393367765256 L -0.8331149526281796,-16.589995133577503 L 2.351478331161985,-4.400204205850531" fill="none" stroke="#000000" stroke-width="0.028361520726251734"/>
	<path d="M -5.392565937580651,-0.0978385795699861 L -7.104783942333053,-0.31843090652907924 L -9.189163608503604,0.802931231862931 L -7.3349814486725755,1.9078989253343868 L -8.084589902528618,1.3971619891190452 L -4.050926400294123,2.567261718640286 L -6.905038638809167,0.7875968714977128 L -5.392565937580651,-0.0978385795699861" fill="none" stroke="#000000" stroke-width="0.028361520726251734"/>
	<path d="M 7.128891276349808,-9.489320608594118 L 8.940166598964964,-11.894396484743107 L 9.308351078132494,-13.526981077575767 L 10.095419167430908,-12.27875245478649 L 10.678686380131147,-11.492319569318449 L 10.751920596376818,-10.387425360200188 L 12.122482919009945,-9.288075897443251 L 7.128891276349808,-9.489320608594118" fill="none" stroke="#000000" stroke-width="0.028361520726251734"/>
	<path d="M 8.122887475180438,-2.151357757065224 L 11.578785320844595,0.9490179786500992 L 11.160296492500244,0.8191588522728261 L 10.433142209847647,0.2713152787863574 L 6.951472265876237,-2.238135908897693 L 9.17028460604874,-3.641614904934346 L 8.122887475180438,-2.151357757065224" fill="none" stroke="#000000" stroke-width="0.028361520726251734"/>
	<path d="M -9.745709739587697,8.365156198026462 L -10.785425131476504,9.67759838524545 L -10.884770393346836,9.720298874259578 L -11.622122400986173,9.470755235722228 L -11.721741278480444,9.570684279356936 L -11.040170098427298,8.503917113591164 L -10.348555058850078,8.009885178020896 L -9.745709739587697,8.365156198026462" fill="none" stroke="#000000" stroke-width="0.028361520726251734"/>
	<path d="M -6.876456045938206,4.887857904032526 L -6.099794144764711,5.386117058449012 L -6.447487754915004,5.781735137863426 L -5.99201951211296,5.357097780910438 L -6.876456045938206,4.887857904032526" fill="none" stroke="#000000" stroke-width="0.028361520726251734"/>
	<path d="M 9.554639149225768,-3.8423705145098763 L 10.35209411425667,-5.0885949866958935 L 9.56949268853953,-2.141941533081301 L 9.554639149225768,-3.8423705145098763" fill="none" stroke="#000000" stroke-width="0.028361520726251734"/>
	<path d="M 6.148701755254219,-4.890450248547566 L 6.2276380789639205,-5.5202584429248205 L 5.341622265071827,-5.678704525950643 L 6.148701755254219,-4.890450248547566" fill="none" stroke="#000000" stroke-width="0.028361520726251734"/>
</svg>
