<?xml version="1.0" ?>
<svg baseProfile="full" height="500" version="1.1" viewBox="-15.23071447870558 -12.395542265048327 31.173202647050164 28.672185746048672" width="500" xmlns="http://www.w3.org/2000/svg" xmlns:ev="http://www.w3.org/2001/xml-events" xmlns:xlink="http://www.w3.org/1999/xlink">
	<defs/>
	<path d="M -7.768187602722163,-3.2373500157627717 L -11.571308575171708,-6.3043440575604635 L -12.622132575267994,-7.773431470865149 L -10.985178867914572,-5.97244285004397 L -9.082674709276224,-9.995378436694198 L -10.020638511006629,-6.169491710823317 L -9.350542092978335,-7.776512195913341 L -9.559630994900068,-7.735933282020737 L -6.11846518899041,-9.606659374918037 L -7.768187602722163,-3.2373500157627717" fill="none" stroke="#000000" stroke-width="0.02595603884017499"/>
	<path d="M 6.76688064652901,-4.640548435228997 L 8.36587752611783,-8.07183070450402 L 9.645792562462715,-6.637507498070667 L 9.413460493242063,-8.338923437699314 L 10.997256015970835,-5.565151382198613 L 6.76688064652901,-4.640548435228997" fill="none" stroke="#000000" stroke-width="0.02595603884017499"/>
	<path d="M 5.555688322086482,3.2497327408952703 L 6.068633937279729,4.089420778232613 L 8.296787117293492,6.443640532048085 L 7.785955981868551,10.368808205828081 L 9.237281887608436,13.876479652646214 L 9.92313266974591,11.293641969801994 L 8.47677039091952,10.845694977789345 L 11.350038666659355,9.386060486121133 L 10.917901668750737,9.682395353273124 L 13.333906264906997,8.21944286431448 L 5.555688322086482,3.2497327408952703" fill="none" stroke="#000000" stroke-width="0.02595603884017499"/>
	<path d="M -4.50933806323504,-2.399818133468095 L -4.209382123494182,-2.6063865470447665 L -4.268028065705546,-2.7588733100513 L -4.50933806323504,-2.399818133468095" fill="none" stroke="#000000" stroke-width="0.02595603884017499"/>
	<path d="M -0.1048864291722893,-5.210132979943869 L 0.35306440020682567,-5.484704242746383 L 0.9832267643383206,-5.764372964121848 L 2.10899135863262,-5.365041371777119 L -0.7989520051389496,-9.033170308588915 L -2.8126810877045187,-8.237612177516574 L -0.1048864291722893,-5.210132979943869" fill="none" stroke="#000000" stroke-width="0.02595603884017499"/>
	<path d="M -4.3776067092144055,-3.521551567059822 L -3.9962624539754974,-3.484063176785698 L -5.2888352831916885,-4.627649992045614 L -5.1648310885097155,-4.77824986420699 L -6.041925227972318,-4.753217586105562 L -4.3776067092144055,-3.521551567059822" fill="none" stroke="#000000" stroke-width="0.02595603884017499"/>
</svg>
