<?xml version="1.0" ?>
<svg baseProfile="full" height="500" version="1.1" viewBox="-18.27562058727775 -9.816831486217747 34.03168388452516 23.16959760868315" width="500" xmlns="http://www.w3.org/2000/svg" xmlns:ev="http://www.w3.org/2001/xml-events" xmlns:xlink="http://www.w3.org/1999/xlink">
	<defs/>
	<path d="M -5.365634738158778,0.6081066247844653 L -2.5624368615977793,1.9719631964145754 L -3.0834330985375216,2.0810448702596775 L -2.838151029257134,1.881246171588137 L -4.401896576399748,2.2860317763458773 L -8.053409386047162,3.744433914065763 L -6.760897383977671,0.332650388196829 L -10.178675116577843,-2.4356360761742786 L -13.85430797877428,-4.966479145951746 L -5.365634738158778,0.6081066247844653" fill="none" stroke="#000000" stroke-width="0.02833612313449222"/>
	<path d="M 5.938605763527658,-5.556289213852372 L 4.116734554781142,-2.1679835539842687 L 2.2518777329336883,-0.33819707864162263 L -1.0919993072844836,1.7692671515904768 L 1.690903595131184,0.7271710387133701 L 1.5644517022733309,0.9362227226154742 L 1.4129317726944066,1.6005268149588558 L -0.6407525620239665,2.425757278714298 L -2.012855853375748,4.981719027494396 L 2.373234686274759,6.002997055790447 L 5.938605763527658,-5.556289213852372" fill="none" stroke="#000000" stroke-width="0.02833612313449222"/>
	<path d="M -6.890745328006163,8.197551107540782 L -4.000465124902336,5.48347321693001 L -5.292964739631763,5.976807774219326 L -4.378397866785242,4.892438300810333 L -2.7232069272098474,4.166093005313003 L -5.317791882639314,4.085447142897679 L -5.458133032658422,3.8007374992052028 L -6.890745328006163,8.197551107540782" fill="none" stroke="#000000" stroke-width="0.02833612313449222"/>
	<path d="M -5.160563423471958,9.81048516216675 L -6.8211908964578605,10.336538600697907 L -7.901223122705514,11.4101596037691 L -6.889130244417031,10.091919594593701 L -5.160563423471958,9.81048516216675" fill="none" stroke="#000000" stroke-width="0.02833612313449222"/>
	<path d="M -3.76412317589641,9.633122059152402 L -2.3350447519997126,10.917669891435509 L -0.34803769712183974,8.89152573521123 L -0.6116707958796697,8.320166389894986 L -0.3629610955036065,7.293351883171556 L -3.76412317589641,9.633122059152402" fill="none" stroke="#000000" stroke-width="0.02833612313449222"/>
	<path d="M 7.743664788010481,5.898106784622728 L 6.223288137050001,5.39128114439152 L 9.812806122005048,5.031637279820768 L 11.508528756057768,3.181634048125164 L 12.908282922230937,5.306327693204834 L 9.179552466724068,5.988235877469591 L 9.705116988786418,7.840854686625747 L 7.743664788010481,5.898106784622728" fill="none" stroke="#000000" stroke-width="0.02833612313449222"/>
	<path d="M -0.4459731042470132,-0.8753502976345153 L -4.404504496910516,-1.8359405926026668 L -5.695544526375419,-4.558174073626741 L -3.252343862742738,1.5599665796074236 L -0.4459731042470132,-0.8753502976345153" fill="none" stroke="#000000" stroke-width="0.02833612313449222"/>
	<path d="M -8.45475595542878,8.980181116629083 L -8.424471087798882,8.858719875222206 L -6.471380857811441,5.828781328830738 L -6.81159084246063,7.853042830633235 L -8.45475595542878,8.980181116629083" fill="none" stroke="#000000" stroke-width="0.02833612313449222"/>
	<path d="M -9.816577185708589,1.5323945075760683 L -9.341007286084922,1.4675633033141349 L -10.633948674656706,5.432379207282457 L -11.716742002972465,3.45088833390655 L -15.361508495244234,5.422002306797039 L -15.427840212261282,5.114453742209951 L -14.859106125954476,0.7382310205065812 L -9.816577185708589,1.5323945075760683" fill="none" stroke="#000000" stroke-width="0.02833612313449222"/>
	<path d="M -6.644612250146629,-6.411332878981972 L -6.977269033100442,-7.874224967521447 L -7.690218856774328,-7.784182183149234 L -7.7536568446932055,-5.131008667203973 L -6.889145470103347,-5.9536085395430565 L -6.644612250146629,-6.411332878981972" fill="none" stroke="#000000" stroke-width="0.02833612313449222"/>
</svg>
