<?xml version="1.0" ?>
<svg baseProfile="full" height="500" version="1.1" viewBox="-18.22829035524493 -13.58215351020662 38.71145051191394 25.590045521700446" width="500" xmlns="http://www.w3.org/2000/svg" xmlns:ev="http://www.w3.org/2001/xml-events" xmlns:xlink="http://www.w3.org/1999/xlink">
	<defs/>
	<path d="M 2.1426480077300507,-6.291392060268562 L 1.220415804569623,-6.09364456557468 L 0.05574539539406653,-8.127697435574845 L 0.8345157034639943,-9.096584338545357 L -0.8779820483419345,-7.557209809634322 L -0.7259675890813786,-5.952039991398082 L -0.1767115916390375,-4.062938546627798 L 1.433025536400934,-2.034100846427527 L 2.1426480077300507,-6.291392060268562" fill="none" stroke="#000000" stroke-width="0.032232681525323846"/>
	<path d="M 7.39354740966499,-0.7666925558930782 L 7.455054985511643,-4.525005364228042 L 8.004659379489748,-4.837820157563535 L 8.699016549849762,-4.147973601964683 L 8.211306171326298,-3.6578292686230904 L 12.54758042211018,-5.252254915448522 L 7.39354740966499,-0.7666925558930782" fill="none" stroke="#000000" stroke-width="0.032232681525323846"/>
	<path d="M -3.77467186648353,8.76071782111574 L -1.935590055866032,9.42119440253106 L -2.77685204501992,9.861957934049903 L -4.397258262461987,8.885621014567779 L -3.77467186648353,8.76071782111574" fill="none" stroke="#000000" stroke-width="0.032232681525323846"/>
	<path d="M 1.4241974395111416,-9.576940982667562 L 2.624880495409033,-7.416844347725425 L 0.9369317906055294,-7.170235959149861 L 1.4241974395111416,-9.576940982667562" fill="none" stroke="#000000" stroke-width="0.032232681525323846"/>
	<path d="M -7.77382426766446,2.9490308585298592 L -8.984202836969029,0.4711309022858736 L -7.358977773182585,-0.9510641004280775 L -10.541323667632392,-1.4188170213144558 L -10.154345142117029,-2.747305141607685 L -10.59017122751767,-1.3302827537421893 L -7.77382426766446,2.9490308585298592" fill="none" stroke="#000000" stroke-width="0.032232681525323846"/>
	<path d="M 4.436460550725824,7.469494994280108 L 3.545557483482911,5.891583697291344 L 2.9660413773706398,5.117547754022771 L 1.5811727659659824,6.159540313467479 L 4.748061456763637,9.273400060234179 L 4.436460550725824,7.469494994280108" fill="none" stroke="#000000" stroke-width="0.032232681525323846"/>
	<path d="M 5.095488828643653,-7.304330101702494 L 4.492321807013049,-9.042703802648251 L 3.167113345274661,-7.778791631070723 L 3.514522035927123,-7.963070788605297 L 1.2321186329878473,-6.352718931929782 L 1.791146944816438,-6.499751455038882 L 4.22012339144014,-7.42997273149576 L 4.038517432135077,-8.343940002054913 L 4.336503968062159,-8.792394948135783 L 5.095488828643653,-7.304330101702494" fill="none" stroke="#000000" stroke-width="0.032232681525323846"/>
	<path d="M 9.647445133798346,-9.085690427462554 L 11.799921030943866,-5.3484082221572296 L 14.845578715748408,-8.180249909914751 L 17.243775663373967,-6.686212696865775 L 16.54601488386966,-8.63382248402647 L 17.08237292602187,-9.016819453070198 L 15.578680029615693,-8.581405518686122 L 13.913137232175682,-9.98216313065141 L 11.831184699069103,-9.62547730328867 L 9.647445133798346,-9.085690427462554" fill="none" stroke="#000000" stroke-width="0.032232681525323846"/>
	<path d="M -9.047001173076648,-7.346042598342109 L -9.074176657235514,-7.640361675357029 L -8.993878520429393,-7.565680297160369 L -12.340742594227855,-10.826338320290926 L -12.930684543394523,-10.826304574570312 L -14.988905861949881,-11.436219432762698 L -9.047001173076648,-7.346042598342109" fill="none" stroke="#000000" stroke-width="0.032232681525323846"/>
	<path d="M 9.16218915504945,-7.36102630862697 L 8.952906165146189,-6.631152091972363 L 8.588848180156255,-7.057405512877112 L 9.16218915504945,-7.36102630862697" fill="none" stroke="#000000" stroke-width="0.032232681525323846"/>
	<path d="M 4.656853230656557,-8.69461245158439 L 5.9568114044250144,-10.645863256330447 L 8.945560780031697,-7.848279159195952 L 4.656853230656557,-8.69461245158439" fill="none" stroke="#000000" stroke-width="0.032232681525323846"/>
</svg>
