<?xml version="1.0" ?>
<svg baseProfile="full" height="500" version="1.1" viewBox="-12.207340538600116 -17.900542276219223 27.884746676471345 32.85396514290299" width="500" xmlns="http://www.w3.org/2000/svg" xmlns:ev="http://www.w3.org/2001/xml-events" xmlns:xlink="http://www.w3.org/1999/xlink">
	<defs/>
	<path d="M 2.1477470559612417,-2.1518419695689683 L 0.8222949593509348,-0.9688337767460651 L -2.328440374353291,1.815895020567322 L -0.4903460333092633,1.1519235215717 L 0.3627410398584433,0.5227894447842859 L 4.224075070009867,-0.9363413483281232 L 2.5383891602978093,-2.179913226832639 L 3.5902345477394544,-0.8844808530185124 L 2.615232016638754,-1.0404094576541427 L 2.261660116950463,-3.519742303522478 L 2.1477470559612417,-2.1518419695689683" fill="none" stroke="#000000" stroke-width="0.02735550802906161"/>
	<path d="M -9.631849067010037,-8.45349297919797 L -9.275262340451004,-6.373368441043587 L -8.552311295949476,-7.56824024198336 L -7.7628706370771425,-8.29120911141127 L -7.550327002788882,-8.293212516248545 L -9.631849067010037,-8.45349297919797" fill="none" stroke="#000000" stroke-width="0.02735550802906161"/>
	<path d="M -9.570357535000964,9.268803728101844 L -8.087913663726543,4.820142003104799 L -5.596617288253803,7.695576846420046 L -6.864737749659778,8.990160170763383 L -8.774622008172342,9.744641634874522 L -9.142716366915124,9.4692544322898 L -5.882771952418471,12.204194309763079 L -9.872213520548728,11.463466911891874 L -9.570357535000964,9.268803728101844" fill="none" stroke="#000000" stroke-width="0.02735550802906161"/>
	<path d="M -9.499949624614032,6.464748401940842 L -8.684985602443346,5.339521499160897 L -8.187862844715998,1.4618355656069753 L -7.966958429844891,1.6379523783581535 L -7.703622696864757,-1.3027770382647224 L -9.499949624614032,6.464748401940842" fill="none" stroke="#000000" stroke-width="0.02735550802906161"/>
	<path d="M 8.77843638132303,4.464449655544868 L 9.419935293071148,3.3829757045139823 L 9.140890517113135,4.403512548220201 L 8.77843638132303,4.464449655544868" fill="none" stroke="#000000" stroke-width="0.02735550802906161"/>
	<path d="M 9.219709216413051,-7.044824081869945 L 10.88509617846354,-9.803107284434763 L 12.236218410279811,-10.839812947604377 L 9.219709216413051,-7.044824081869945" fill="none" stroke="#000000" stroke-width="0.02735550802906161"/>
	<path d="M 0.39250999894384897,6.45177356167261 L -2.132067943975839,8.915886972525232 L -1.2293667266953587,8.310266362110186 L -0.07983585074998234,9.199193094761426 L 0.5431128098939914,9.856814440274567 L 0.4196444266914918,9.545643762495668 L 0.8550553577823324,8.313782545723267 L 0.04627115840768031,9.19284988125585 L 0.39250999894384897,6.45177356167261" fill="none" stroke="#000000" stroke-width="0.02735550802906161"/>
	<path d="M 7.211432684828154,-9.668912918661576 L 8.318886503872255,-13.241933722584276 L 8.336068828661622,-13.631276681924694 L 8.343701006411845,-13.044221187265945 L 9.687901563960711,-15.151313719298532 L 9.986955028311135,-14.893770451909269 L 13.34227911981984,-13.602986640238939 L 9.64278463317391,-14.549218279889718 L 7.211432684828154,-9.668912918661576" fill="none" stroke="#000000" stroke-width="0.02735550802906161"/>
	<path d="M 5.255548845674509,1.564451717585671 L 5.034107808003473,2.3013212916609276 L 4.885533401759588,2.8942275699218123 L 5.902894440777437,2.2710575356667553 L 7.310601421690659,1.2251566820110233 L 7.322133104392973,1.0398666638160863 L 6.44127388853799,1.6138571774350927 L 5.255548845674509,1.564451717585671" fill="none" stroke="#000000" stroke-width="0.02735550802906161"/>
</svg>
