<?xml version="1.0" ?>
<svg baseProfile="full" height="500" version="1.1" viewBox="-14.084921129193722 -12.629425692061956 26.088653036501338 30.49857793552581" width="500" xmlns="http://www.w3.org/2000/svg" xmlns:ev="http://www.w3.org/2001/xml-events" xmlns:xlink="http://www.w3.org/1999/xlink">
	<defs/>
	<path d="M 6.4584480312611845,-0.625732326116097 L 6.955724130292804,-3.2717111229087337 L 6.666354385514127,-2.105439624014106 L 4.927826820825774,1.0689940288349398 L 6.637668410457396,5.292743333147274 L 6.35821159401745,4.103123433387701 L 6.902978206477855,4.429015982602066 L 6.757381252910873,3.0995404403600717 L 6.4584480312611845,-0.625732326116097" fill="none" stroke="#000000" stroke-width="0.025394319679871616"/>
	<path d="M 5.535511383906622,-8.599453400978907 L 2.448664798857663,-9.736579313645274 L 4.139631278760554,-8.753576583944113 L 6.460644920080282,-7.852785642616327 L 5.40304728162596,-8.418790612799542 L 9.819096521065891,-6.891683404057677 L 5.856870661113901,-8.712189361457476 L 5.535511383906622,-8.599453400978907" fill="none" stroke="#000000" stroke-width="0.025394319679871616"/>
	<path d="M -5.187773884479303,2.4754632045092 L -7.184861166301823,-0.9426663709030638 L -4.159601138790161,-4.099885585539753 L -4.491629857683444,-5.976988894877132 L -7.13029311160489,-2.0383452165904243 L -10.16997080216952,0.015129449798649386 L -11.900285742951997,3.4545329770835065 L -10.399172799680896,3.400823371109308 L -5.187773884479303,2.4754632045092" fill="none" stroke="#000000" stroke-width="0.025394319679871616"/>
	<path d="M 0.39593315674840923,8.162041104443986 L -1.5642723549740647,12.463820237606397 L -1.4747230004307648,14.637276018088134 L 2.1544833682947937,15.317023115636754 L 0.39593315674840923,8.162041104443986" fill="none" stroke="#000000" stroke-width="0.025394319679871616"/>
	<path d="M 1.6139773008633522,-2.9953978449014063 L 0.6338087886372632,-3.853180906306231 L 0.6432944122477252,-3.7444370270401266 L -0.1732921396357643,-2.7209037515104866 L -0.9612207540133734,-1.5244100214138059 L 1.6139773008633522,-2.9953978449014063" fill="none" stroke="#000000" stroke-width="0.025394319679871616"/>
	<path d="M 1.0619865252182432,-9.86686240400485 L 1.4320523331600796,-10.077296564234858 L 5.002935873237739,-7.364916327051539 L 6.212636439320408,-6.808506067334955 L 6.417046521864286,-4.481020655269708 L 1.0619865252182432,-9.86686240400485" fill="none" stroke="#000000" stroke-width="0.025394319679871616"/>
</svg>
