<?xml version="1.0" ?>
<svg baseProfile="full" height="500" version="1.1" viewBox="-12.921643322562417 -12.768118193613724 30.14777783810481 24.6273301373906" width="500" xmlns="http://www.w3.org/2000/svg" xmlns:ev="http://www.w3.org/2001/xml-events" xmlns:xlink="http://www.w3.org/1999/xlink">
	<defs/>
	<path d="M 7.71726771088732,5.838195937106512 L 9.398644880572247,5.105882213701405 L 9.71958516558841,5.418034000799037 L 9.492181856270333,5.016316804481341 L 13.01689015356265,1.782434680891642 L 13.292058923802553,1.1231835611978633 L 13.900173872942228,-0.4071411616980427 L 14.09605377645739,-0.12835898085572361 L 14.703360433336282,-1.3164902163264904 L 7.71726771088732,5.838195937106512" fill="none" stroke="#000000" stroke-width="0.025102229673692595"/>
	<path d="M 4.229271418082838,8.908777255934034 L 3.0508994718666966,9.796475169963623 L 1.514664420361779,7.826124377501895 L 1.537333752057985,8.746259292789246 L -0.7795887456503157,7.381655081021353 L -1.2101035967214122,7.181425626941497 L -0.30919012143000635,7.984111271631756 L -2.4541797307107514,7.383298352437658 L 0.989907924919408,6.424859140472585 L 4.229271418082838,8.908777255934034" fill="none" stroke="#000000" stroke-width="0.025102229673692595"/>
	<path d="M 9.7424629518177,-3.7827821857093475 L 13.54282638737728,-1.70997940501175 L 9.551014707955229,-1.562285118306875 L 8.304660945260151,-1.5364166306533655 L 5.592617622978409,1.8467370274152035 L 4.959035067276345,-2.6424992043831983 L 7.035899947239924,-3.5140824384566454 L 6.4035244872605555,-4.2719651110556836 L 9.7424629518177,-3.7827821857093475" fill="none" stroke="#000000" stroke-width="0.025102229673692595"/>
	<path d="M -4.549765761763065,-5.1709111291608 L -1.4474978172880775,-2.499133016950918 L 0.7494399519266337,-2.6704915599720405 L 0.1913977057249504,0.3547260092586537 L -0.17821460742938466,2.8640215942760694 L -1.3481527315026665,1.6874435453184085 L -4.549765761763065,-5.1709111291608" fill="none" stroke="#000000" stroke-width="0.025102229673692595"/>
	<path d="M -4.315717723434784,-3.306737567215528 L -7.560411293367765,-5.5269063117044315 L -6.792637368028196,-7.134877573591866 L -8.295716338324889,-5.840535353541853 L -10.398869240356312,-3.742899581341349 L -10.058377550291532,-1.6961159126079388 L -7.600115091852337,-4.656027686431486 L -4.315717723434784,-3.306737567215528" fill="none" stroke="#000000" stroke-width="0.025102229673692595"/>
	<path d="M -4.474656694386649,-7.214831578923471 L -4.694615496917485,-7.457035593999281 L -4.91968598236223,-7.2386856533097435 L -4.474656694386649,-7.214831578923471" fill="none" stroke="#000000" stroke-width="0.025102229673692595"/>
	<path d="M 2.7318917741603315,-8.97289698781426 L 4.685406446925436,-9.73794315962696 L 6.271768649570585,-8.113621087754693 L 10.140854368664115,-8.879543776605903 L 6.671590426125527,-10.104829473287316 L 6.858112486591015,-9.831234966342793 L 6.1829642820930815,-10.549029632631608 L 4.390811272501147,-10.705381419800467 L 2.7318917741603315,-8.97289698781426" fill="none" stroke="#000000" stroke-width="0.025102229673692595"/>
	<path d="M -6.5518655666808145,-1.330163403761313 L -5.289524113369991,-0.7281665102666904 L -6.979178653583653,-1.2166776720045331 L -7.190590664441416,-0.4918133721120703 L -8.197255390585873,-2.02884023038373 L -6.5518655666808145,-1.330163403761313" fill="none" stroke="#000000" stroke-width="0.025102229673692595"/>
</svg>
