<?xml version="1.0" ?>
<svg baseProfile="full" height="500" version="1.1" viewBox="-15.866711245173613 -22.35327262522288 27.000186567186383 34.76187425364534" width="500" xmlns="http://www.w3.org/2000/svg" xmlns:ev="http://www.w3.org/2001/xml-events" xmlns:xlink="http://www.w3.org/1999/xlink">
	<defs/>
	<path d="M -9.314645549416593,-6.794968712897109 L -13.604635652718779,-8.154863323755745 L -11.701311942760665,-7.05561737080123 L -9.314645549416593,-6.794968712897109" fill="none" stroke="#000000" stroke-width="0.028944108454325844"/>
	<path d="M 8.78882623200385,8.657398480964112 L 6.456424497044447,6.663359707754637 L 6.872534943725608,6.915203876678764 L 8.159384979980825,6.321985872023244 L 8.871399729557934,7.186237456227431 L 8.78882623200385,8.657398480964112" fill="none" stroke="#000000" stroke-width="0.028944108454325844"/>
	<path d="M -1.5698333655557555,-8.172179112712785 L -1.953277817990243,-11.684879946330069 L -1.1843506939226411,-11.972540790486198 L -2.052948881710363,-13.953275375775757 L -1.6437693848374404,-14.174210911949059 L -3.8890735834795978,-18.51303856176556 L -2.734274332058376,-19.44438972556313 L -8.632558974227962,-17.074668542380394 L -1.5698333655557555,-8.172179112712785" fill="none" stroke="#000000" stroke-width="0.028944108454325844"/>
	<path d="M -4.3685798361849315,-0.23163450520097228 L -2.1424183494851357,-1.9184119462635398 L -0.7521045362007075,0.27563989778973275 L -4.3685798361849315,-0.23163450520097228" fill="none" stroke="#000000" stroke-width="0.028944108454325844"/>
	<path d="M -5.684071357063473,6.822602458233533 L -6.497354619446837,4.0183484445036415 L -7.604681450991531,0.9552644820069078 L -8.324565797403688,0.6125497242892297 L -4.852348173208679,-0.6637974278716494 L -5.684071357063473,6.822602458233533" fill="none" stroke="#000000" stroke-width="0.028944108454325844"/>
	<path d="M -7.660490205479189,8.448661641382987 L -8.020565286990143,8.436126528163376 L -10.768092334707298,9.499718728762714 L -8.088247766120045,9.398862705857043 L -7.660490205479189,8.448661641382987" fill="none" stroke="#000000" stroke-width="0.028944108454325844"/>
	<path d="M -2.1454626547468987,-5.437486088727306 L -2.623829578233971,-5.045494253251396 L -5.350324293872912,-8.967435316348652 L -3.9852428576354813,-8.1116461846169 L 0.19062438144997973,-5.724796828811213 L -0.7375680504986735,-2.3580320486145214 L 0.9731060996933567,-3.8072133605802816 L -0.7593412572493103,-0.6688438759412074 L -2.301240481243679,-6.3284310951594644 L -2.1454626547468987,-5.437486088727306" fill="none" stroke="#000000" stroke-width="0.028944108454325844"/>
	<path d="M -5.88633101980673,6.664800048602949 L -5.0701282597984,4.995172530282089 L -5.779369247560762,7.828887068166193 L -5.88633101980673,6.664800048602949" fill="none" stroke="#000000" stroke-width="0.028944108454325844"/>
	<path d="M -8.705792358089075,8.329279187534848 L -8.801240973776274,8.436162794312786 L -8.513377382445645,8.341847675149308 L -6.57086957172858,5.098071953575465 L -9.826779699265344,5.469059745748744 L -13.334451827050197,6.367220423388152 L -12.62768819395676,6.380592460166432 L -11.727431052400757,8.043452034119912 L -12.03369467897137,8.912866602167025 L -8.705792358089075,8.329279187534848" fill="none" stroke="#000000" stroke-width="0.028944108454325844"/>
	<path d="M 7.4287576459926505,4.734934639555233 L 7.305108098038118,3.3071879986619086 L 7.706251874572019,4.201611184572469 L 7.4287576459926505,4.734934639555233" fill="none" stroke="#000000" stroke-width="0.028944108454325844"/>
	<path d="M -9.342038632294008,-9.200588155681793 L -11.875253617816096,-13.4453617307441 L -10.996587306612147,-13.07979636724981 L -9.939927774929366,-14.462878115898627 L -9.389637380946802,-14.824838742300933 L -9.886207001092199,-15.062708700457124 L -8.101639302192577,-15.68400602930955 L -9.342038632294008,-9.200588155681793" fill="none" stroke="#000000" stroke-width="0.028944108454325844"/>
</svg>
