<?xml version="1.0" ?>
<svg baseProfile="full" height="500" version="1.1" viewBox="-18.99382544116945 -15.674591819102966 39.0550340657437 29.054148969316376" width="500" xmlns="http://www.w3.org/2000/svg" xmlns:ev="http://www.w3.org/2001/xml-events" xmlns:xlink="http://www.w3.org/1999/xlink">
	<defs/>
	<path d="M -8.284246692632326,8.355572299110815 L -10.406197588812102,9.512771320298855 L -12.499892390234205,10.451904426298736 L -11.335550568061779,5.723490550442768 L -11.939657045695325,2.5465248671390097 L -11.823660588668758,-0.19910997985534085 L -10.636820088442615,2.64760382310831 L -7.618426700005733,4.018709003683039 L -8.284246692632326,8.355572299110815" fill="none" stroke="#000000" stroke-width="0.03251876275249267"/>
	<path d="M -3.300554773487436,8.708712233482117 L 0.11308415753836698,10.94482858495684 L -2.4420046549744665,10.018602240028008 L -6.955945592346529,7.9464425086231945 L -7.659829768870654,7.248318837778673 L -7.8346715767476285,6.659212132925777 L -3.300554773487436,8.708712233482117" fill="none" stroke="#000000" stroke-width="0.03251876275249267"/>
	<path d="M 3.7389679450246227,-7.112990848965433 L 4.179595330930879,-5.098995908930355 L 3.9897525435277053,-4.929960802954394 L 5.804162454945403,-3.729525467462979 L 8.099618881342547,-1.6707949028999067 L 7.940017787462996,-3.391919438073028 L 8.151381599371875,-3.1690808802454913 L 8.277100453923135,-3.286679135288577 L 3.7389679450246227,-7.112990848965433" fill="none" stroke="#000000" stroke-width="0.03251876275249267"/>
	<path d="M 9.83390555934698,-2.370415412321605 L 10.279000435526083,-2.847414905526823 L 11.288838289515311,-4.836235334143652 L 13.987575920062284,-7.727801923162017 L 16.793072967948735,-10.56896605286886 L 15.459755868023159,-13.239863253846396 L 14.621621653330854,-12.056312282227747 L 10.902071046412168,-9.749720156352868 L 9.566550486281981,-6.788698880078661 L 12.491658193771116,-7.494540151511497 L 9.83390555934698,-2.370415412321605" fill="none" stroke="#000000" stroke-width="0.03251876275249267"/>
	<path d="M -9.715598624994078,-8.811087923976078 L -13.44697908649625,-8.39243524907667 L -12.088994009042654,-8.210516909213153 L -10.183392636800999,-4.77504781234251 L -10.663578067936138,-2.9033972273238335 L -10.988259369575562,-3.694555463800364 L -12.042621974720973,-5.469674992194881 L -14.34433284537862,-8.129068191676993 L -15.725689784543937,-10.627879171339428 L -13.416465357955278,-9.558469163967036 L -9.715598624994078,-8.811087923976078" fill="none" stroke="#000000" stroke-width="0.03251876275249267"/>
</svg>
