<?xml version="1.0" ?>
<svg baseProfile="full" height="500" version="1.1" viewBox="-12.768405076891677 -13.52392460717222 28.09342235342318 32.66067323430174" width="500" xmlns="http://www.w3.org/2000/svg" xmlns:ev="http://www.w3.org/2001/xml-events" xmlns:xlink="http://www.w3.org/1999/xlink">
	<defs/>
	<path d="M 4.863443517705148,4.418704815156646 L 5.42338595327526,8.340825046563731 L 4.295632678887663,7.921378780391986 L 1.6764807798628505,9.797411731837874 L 1.889979816060657,10.224372327681998 L 2.6356291144697357,10.991254953620217 L 3.4124705707895586,11.714304001056293 L 6.088474760718842,12.627348368624766 L 4.1440702727201675,16.403694788622172 L 6.245083508437733,12.564685393181533 L 4.863443517705148,4.418704815156646" fill="none" stroke="#000000" stroke-width="0.027194565557287043"/>
	<path d="M -8.139182400102696,-8.919910732474872 L -6.812684552586924,-8.514019193978466 L -7.983112241691344,-4.825007096998885 L -7.409736756516732,-5.805627599255045 L -4.308192281967813,-8.346066482633557 L -8.139182400102696,-8.919910732474872" fill="none" stroke="#000000" stroke-width="0.027194565557287043"/>
	<path d="M -2.160931958221335,6.70141458265708 L 0.643543674791474,6.094604623149676 L 3.5784382007246403,2.1657981189261664 L 3.920896814364975,-1.094874872837249 L 2.285746527411999,-0.6070990207067254 L 0.9184298745449404,0.11796391166323705 L -2.3602295787968925,1.1061712051289487 L 1.646640675817158,1.5824529581618005 L -2.160931958221335,6.70141458265708" fill="none" stroke="#000000" stroke-width="0.027194565557287043"/>
	<path d="M 1.4175877410567654,-9.37653128796633 L 1.1675259281079005,-7.999492942534359 L 1.7548220056036186,-7.729386482524361 L 1.8556408038712648,-7.8058928852876 L 2.8884356043199433,-8.974357891686813 L 2.022372482446602,-6.652192955317386 L 2.097214777007499,-6.331652587929195 L 3.633196347366316,-10.79087076866487 L 1.4175877410567654,-9.37653128796633" fill="none" stroke="#000000" stroke-width="0.027194565557287043"/>
	<path d="M -1.6345441207117606,-5.782566678766337 L -3.0996449616006494,-4.592690905152528 L -5.743082829163624,-5.051318353968528 L -1.6345441207117606,-5.782566678766337" fill="none" stroke="#000000" stroke-width="0.027194565557287043"/>
	<path d="M 3.0881260096476932,9.620321641449486 L 3.5796837112192996,8.76766128655679 L 4.010706277430065,9.205316163290332 L 5.015828549723088,8.816995425988516 L 5.378795347614129,8.90924663557794 L 3.0881260096476932,9.620321641449486" fill="none" stroke="#000000" stroke-width="0.027194565557287043"/>
	<path d="M 8.612017692297705,-8.478876422942292 L 8.503522596632118,-8.944814119640816 L 9.788482162031231,-9.970902080361046 L 9.453584856323756,-9.110020218211938 L 8.612017692297705,-8.478876422942292" fill="none" stroke="#000000" stroke-width="0.027194565557287043"/>
	<path d="M 1.6843396655438347,8.965913116774011 L 3.103766739293355,6.147822549315199 L 3.2222416223795216,6.235701842608594 L 1.6843396655438347,8.965913116774011" fill="none" stroke="#000000" stroke-width="0.027194565557287043"/>
	<path d="M 9.096396604572355,-7.462065072022385 L 12.972567678097366,-4.953573539950527 L 12.30218364102564,-4.932541772280877 L 9.096396604572355,-7.462065072022385" fill="none" stroke="#000000" stroke-width="0.027194565557287043"/>
	<path d="M -3.8921428712505524,5.6377658334833125 L -2.355818116062972,7.1621151050638145 L -2.496872487262783,7.312408510912488 L -3.8921428712505524,5.6377658334833125" fill="none" stroke="#000000" stroke-width="0.027194565557287043"/>
	<path d="M -9.955783276970397,-2.517405497867875 L -9.12585651437562,-0.6093914639015268 L -8.609307722681855,-4.120928028368497 L -8.178572074845981,-0.260767009386091 L -8.19777027872783,-0.016082981086103176 L -8.467242551222494,0.08135125908009784 L -10.415955478457542,-1.4520611838828918 L -9.955783276970397,-2.517405497867875" fill="none" stroke="#000000" stroke-width="0.027194565557287043"/>
	<path d="M -5.19170523437301,-2.2893219137548577 L -4.624790068672372,-2.4460989168311613 L -4.6407776898997115,-2.55557725595181 L -1.8410817405419575,-3.423245021410266 L -2.832597233849929,-3.1523722178496865 L -0.103398176685082,-4.116525904047596 L -2.6056795260827905,-3.6112028464149883 L -2.0341858351102147,-3.9997637806022883 L -5.19170523437301,-2.2893219137548577" fill="none" stroke="#000000" stroke-width="0.027194565557287043"/>
</svg>
