<?xml version="1.0" ?>
<svg baseProfile="full" height="500" version="1.1" viewBox="-13.787798869471317 -8.529292382014349 28.454785863946206 23.609547679478215" width="500" xmlns="http://www.w3.org/2000/svg" xmlns:ev="http://www.w3.org/2001/xml-events" xmlns:xlink="http://www.w3.org/1999/xlink">
	<defs/>
	<path d="M 9.467685180185054,1.6374512924518232 L 11.675093159659761,-2.0424493129507373 L 12.285882931754992,-2.934357883102087 L 9.467685180185054,1.6374512924518232" fill="none" stroke="#000000" stroke-width="0.023692577738506415"/>
	<path d="M -8.915692273243232,-1.001620290943091 L -6.473235741458546,-0.6350038949422756 L -5.271460655772339,0.3476706166364846 L -6.057972307214305,0.8184051180496987 L -5.8755626605924185,2.304980852373905 L -7.033392606725775,0.8307067694922661 L -8.915692273243232,-1.001620290943091" fill="none" stroke="#000000" stroke-width="0.023692577738506415"/>
	<path d="M -8.614834488465089,1.6232996070539265 L -9.633349762374145,-0.5717839160998448 L -9.721984209507372,-0.8771653789482919 L -9.587642889918262,-1.038316384252043 L -9.576078092871251,-1.1844999012698887 L -11.091722382427042,1.9714960130152068 L -11.406694806751423,2.6928282915610238 L -10.901697896960304,2.5132490408185415 L -11.383696498353842,3.511623715421721 L -8.614834488465089,1.6232996070539265" fill="none" stroke="#000000" stroke-width="0.023692577738506415"/>
	<path d="M 7.576873131387394,5.484000010088032 L 4.992032539216628,1.654781684362204 L 5.167047878514042,0.9088011322937879 L 7.576873131387394,5.484000010088032" fill="none" stroke="#000000" stroke-width="0.023692577738506415"/>
	<path d="M 3.7800415660583138,4.698837730631066 L 6.6014976922075,2.7202146363120843 L 6.661274405175522,2.8151374172571546 L 9.59971478058455,6.51577713722533 L 7.172526352327158,4.337149487162586 L 9.08493488963903,6.347025591885675 L 3.7800415660583138,4.698837730631066" fill="none" stroke="#000000" stroke-width="0.023692577738506415"/>
	<path d="M 9.528610002990192,2.2699941086766273 L 8.157563989415614,0.8689876950128674 L 8.941116555467865,0.05965979165738444 L 9.528610002990192,2.2699941086766273" fill="none" stroke="#000000" stroke-width="0.023692577738506415"/>
	<path d="M 9.106784036566687,-6.395724879207238 L 9.13811514166424,-6.249438780354138 L 9.381061335859243,-6.55195816800012 L 9.106784036566687,-6.395724879207238" fill="none" stroke="#000000" stroke-width="0.023692577738506415"/>
	<path d="M 4.978153467122917,-2.8877114691564465 L 5.004170597281019,-2.9905276500064453 L 5.0872467075532715,-3.0926201681680308 L 3.8315540569553166,-2.7630902039664074 L 4.029598755167215,-2.0244862113206903 L 4.153787651636764,-1.813573996900064 L 3.7797866646774985,-1.0150688439215476 L 3.594570531720193,-0.9426576745421458 L 2.9874018220941485,-1.6086510983379747 L 3.7875040362548127,-0.5078331142847343 L 4.978153467122917,-2.8877114691564465" fill="none" stroke="#000000" stroke-width="0.023692577738506415"/>
	<path d="M 1.0677226386165692,9.316619999950365 L 4.8086306112449275,6.391724698685149 L 5.599079152088811,6.165978671475942 L 8.58326391205097,7.796701838387176 L 7.543410730400813,9.261171772826195 L 5.346508734508276,8.64593351663271 L 4.399015748142123,13.102921083449635 L 1.0677226386165692,9.316619999950365" fill="none" stroke="#000000" stroke-width="0.023692577738506415"/>
	<path d="M 8.239882699889232,2.8658587921330962 L 8.929372717849906,2.104382351240229 L 8.094388750771142,2.9119500734883266 L 8.239882699889232,2.8658587921330962" fill="none" stroke="#000000" stroke-width="0.023692577738506415"/>
	<path d="M -5.473323485009116,7.6711035298054355 L -5.246843795955676,7.558229809717364 L -4.8882796085363385,8.268050078972193 L -5.01060098791363,8.011887622163588 L -5.020939514691453,7.599228376092745 L -8.21613552303409,4.448405092700705 L -5.473323485009116,7.6711035298054355" fill="none" stroke="#000000" stroke-width="0.023692577738506415"/>
</svg>
