<?xml version="1.0" ?>
<svg baseProfile="full" height="500" version="1.1" viewBox="-14.39990293062211 -13.970483350325164 29.00549526038344 29.096132798417848" width="500" xmlns="http://www.w3.org/2000/svg" xmlns:ev="http://www.w3.org/2001/xml-events" xmlns:xlink="http://www.w3.org/1999/xlink">
	<defs/>
	<path d="M 9.723249975211047,8.703754795580018 L 8.06208988660893,10.77267226055439 L 12.178373312850937,12.690877303012757 L 9.723249975211047,8.703754795580018" fill="none" stroke="#000000" stroke-width="0.024226588508257995"/>
	<path d="M -9.654491373996539,-8.741348667672922 L -9.918491927420098,-9.186321335800956 L -7.740564514780365,-11.535711205245237 L -9.654491373996539,-8.741348667672922" fill="none" stroke="#000000" stroke-width="0.024226588508257995"/>
	<path d="M 3.4358866662060024,7.182266576572932 L 3.2911902482588435,6.232006927752909 L 2.856990221524297,1.8348152282050254 L 3.981419648180583,0.14836994112061608 L 5.4209084771869955,4.495303028030632 L 3.4358866662060024,7.182266576572932" fill="none" stroke="#000000" stroke-width="0.024226588508257995"/>
	<path d="M 9.177662786191835,-7.895183887354548 L 9.543170978683872,-11.080697553021135 L 6.758716044650681,-7.792301662601435 L 6.586721708852275,-5.42256819284688 L 6.130250760557589,-9.28709716182883 L 4.4615595238904,-2.452885786156501 L 9.177662786191835,-7.895183887354548" fill="none" stroke="#000000" stroke-width="0.024226588508257995"/>
	<path d="M -0.32133592568936464,-1.730305849743667 L -0.5718017560099535,-1.4987426752619075 L -2.320707422277815,-1.3132692984435006 L -2.124886418903645,-1.5058643397449079 L -3.201464790041884,-3.2676849693553 L -3.0874418419057412,-5.246044497169174 L -0.32133592568936464,-1.730305849743667" fill="none" stroke="#000000" stroke-width="0.024226588508257995"/>
	<path d="M -8.358648312710294,-3.20423497567252 L -9.800911185498384,-6.662520368679081 L -11.972683913711716,-8.563321051136604 L -8.67221538114682,-6.759605213350827 L -8.358648312710294,-3.20423497567252" fill="none" stroke="#000000" stroke-width="0.024226588508257995"/>
	<path d="M 3.1925668510380927,-3.760581837672361 L 1.1995969500725892,-1.3214608163343882 L -2.8755131508521554,-0.7857253851065213 L 1.4762193509005674,-1.8183642621353333 L 3.1925668510380927,-3.760581837672361" fill="none" stroke="#000000" stroke-width="0.024226588508257995"/>
	<path d="M 3.5670652371705245,7.8441052374989155 L 3.4240840078637933,8.01415222174657 L -0.011216976785857646,4.72969947342836 L -0.4731338339109517,4.51824534912182 L 2.7435716435160806,5.9028756068395705 L 2.401643547525274,5.328837624521198 L 2.4550505549365766,5.4372686234711365 L 2.3601331905775966,5.527619029761143 L 2.264294544450482,4.910877936105678 L 3.27977767720757,6.997471105171082 L 3.5670652371705245,7.8441052374989155" fill="none" stroke="#000000" stroke-width="0.024226588508257995"/>
</svg>
