<?xml version="1.0" ?>
<svg baseProfile="full" height="500" version="1.1" viewBox="-12.307267461430614 -16.359773383528996 22.932017921736175 33.339220552756046" width="500" xmlns="http://www.w3.org/2000/svg" xmlns:ev="http://www.w3.org/2001/xml-events" xmlns:xlink="http://www.w3.org/1999/xlink">
	<defs/>
	<path d="M -1.4493277414909063,-8.900082993000995 L -0.49537349209903636,-9.75134456748836 L 0.11809206199341316,-9.66581933991201 L -1.1090449983762638,-11.553297959228527 L -3.6960619630194977,-10.573714484551951 L -4.643450506864294,-10.495054566319183 L -1.4493277414909063,-8.900082993000995" fill="none" stroke="#000000" stroke-width="0.02775955083493426"/>
	<path d="M -4.063914397787858,-8.380009511234338 L -0.2977570563755614,-6.237638892250839 L 0.41127622842411127,-5.08865124505861 L 4.961144145213707,-5.015158433090541 L 5.251529859375175,-4.951558912309431 L 6.167645911365292,-5.419414389969941 L -4.063914397787858,-8.380009511234338" fill="none" stroke="#000000" stroke-width="0.02775955083493426"/>
	<path d="M -8.986529603562625,8.500550813019512 L -8.278956871582317,9.100036919618915 L -10.384699488438043,5.325391446670423 L -8.986529603562625,8.500550813019512" fill="none" stroke="#000000" stroke-width="0.02775955083493426"/>
	<path d="M 8.404950651552749,3.640468881196689 L 7.370175075405858,1.6756918109327015 L 7.8046316555474595,2.3579798937926655 L 6.247066204842836,-1.6508135509020163 L 6.597551454162872,-4.328824961718196 L 5.17306882453323,-1.7538610396585637 L 4.047440130343393,-1.095861888042986 L 2.3844935707826878,-2.9857656229818925 L 0.17208717914595306,-1.2145553926193897 L 8.404950651552749,3.640468881196689" fill="none" stroke="#000000" stroke-width="0.02775955083493426"/>
	<path d="M -0.36116139738408926,-9.166859055970944 L 0.704745252975435,-8.95616935839958 L 0.985839137249622,-10.050109546647363 L -2.2419897083229214,-13.569938524618104 L 0.712313718467364,-9.757929261640866 L -0.36116139738408926,-9.166859055970944" fill="none" stroke="#000000" stroke-width="0.02775955083493426"/>
	<path d="M 8.702182487312992,9.984929796923076 L 6.6068140495807555,12.06459765267973 L 3.8389665949921343,13.678743790031495 L 3.37065237094836,14.189612310316155 L 4.467478881961189,13.72750327840712 L 6.853104704417131,13.99046136185351 L 8.702182487312992,9.984929796923076" fill="none" stroke="#000000" stroke-width="0.02775955083493426"/>
	<path d="M 4.78384495724622,3.865203279869524 L 2.5553702064210015,1.0614793360620642 L 4.308760083787194,3.4525691792632283 L 4.978824296717898,7.522382840591543 L 8.666715754309323,9.218320379831864 L 6.409670991048337,6.2712028791257834 L 4.78384495724622,3.865203279869524" fill="none" stroke="#000000" stroke-width="0.02775955083493426"/>
	<path d="M -2.4911662729210615,-8.307822753633305 L 2.047103065056757,-6.630685772499686 L 6.4087814044530225,-6.555259136961905 L -2.4911662729210615,-8.307822753633305" fill="none" stroke="#000000" stroke-width="0.02775955083493426"/>
	<path d="M -7.379075906001351,4.846029032525179 L -8.204211775600923,3.2116103906470292 L -8.273212892175227,3.6880081362087838 L -7.379075906001351,4.846029032525179" fill="none" stroke="#000000" stroke-width="0.02775955083493426"/>
	<path d="M 3.4618475657539918,3.786847366967274 L 4.19203790751824,4.716058059709474 L 3.498797004740434,5.168722418691855 L 3.4618475657539918,3.786847366967274" fill="none" stroke="#000000" stroke-width="0.02775955083493426"/>
	<path d="M 5.435849479520005,3.56852021000857 L 4.966798957769475,3.1617630369677645 L 5.643359860732745,3.4588840096101032 L 5.435849479520005,3.56852021000857" fill="none" stroke="#000000" stroke-width="0.02775955083493426"/>
	<path d="M 5.1109187050156955,8.287420848128377 L 5.68218835246654,8.081470384216875 L 5.736980996412812,9.411615239282902 L 5.1109187050156955,8.287420848128377" fill="none" stroke="#000000" stroke-width="0.02775955083493426"/>
</svg>
