<?xml version="1.0" ?>
<svg baseProfile="full" height="500" version="1.1" viewBox="-13.67677715786943 -12.242620733235622 27.437068074505845 25.788894356272934" width="500" xmlns="http://www.w3.org/2000/svg" xmlns:ev="http://www.w3.org/2001/xml-events" xmlns:xlink="http://www.w3.org/1999/xlink">
	<defs/>
	<path d="M -1.849220395153715,7.708030095991841 L -4.246242804968897,10.760291141703988 L -3.37366627190041,11.387680265955968 L -5.9195593229261725,9.754598989379188 L -8.437228263309118,6.525680899104749 L -9.963719646868217,6.862420771402752 L -11.380835990935346,5.170132096961629 L -8.993043233381197,6.093670192188428 L -1.849220395153715,7.708030095991841" fill="none" stroke="#000000" stroke-width="0.022845185740637677"/>
	<path d="M 3.686583342407726,-1.812307711370213 L 5.444844134057432,-3.0061700036753436 L 5.316719149379889,-4.343878766437939 L 6.637220919240316,-3.6047752045171544 L 6.83723147347163,-3.4069882223046783 L 5.035671160720335,-0.02936073509149617 L 6.350679942944047,3.0081653960580126 L 8.412670332861369,5.392772607006558 L 11.464349749702329,6.916110136550563 L 7.407645790276319,7.30758580595149 L 3.686583342407726,-1.812307711370213" fill="none" stroke="#000000" stroke-width="0.022845185740637677"/>
	<path d="M 7.692515311081724,1.3198034623939243 L 6.4945098949236755,0.5555329861906707 L 8.006042157472677,-1.7121205608188808 L 9.406471077965179,-3.201413961837776 L 7.246395248249522,-0.466428180100217 L 9.258793127965077,-0.6576458829670677 L 9.66452138350258,-0.7790540802831433 L 11.020640827901039,-2.9843436723403003 L 11.315497443189981,-0.4137924792816697 L 7.692515311081724,1.3198034623939243" fill="none" stroke="#000000" stroke-width="0.022845185740637677"/>
	<path d="M -0.21655081818346922,-5.579372456216225 L -1.1984531417041655,-6.387857440333358 L -2.9815370220610955,-5.575234233910908 L -4.758294440930693,-0.9248670428531209 L -3.839458980049409,1.6017903828408757 L -3.4033444187765354,1.167062037038224 L -0.09623570649271329,4.743632106232767 L 2.3473747863866645,6.902797264899402 L 4.316769400961991,7.457771051054882 L 0.7279395301269169,2.331689920190838 L -0.21655081818346922,-5.579372456216225" fill="none" stroke="#000000" stroke-width="0.022845185740637677"/>
	<path d="M 4.656294208310509,-5.799778288623809 L 6.3465523881163515,-7.507931496404 L 8.80022434091903,-10.084027376154278 L 4.656294208310509,-5.799778288623809" fill="none" stroke="#000000" stroke-width="0.022845185740637677"/>
</svg>
