<?xml version="1.0" ?>
<svg baseProfile="full" height="500" version="1.1" viewBox="-10.863026389944762 -3.9497561392566163 24.028503345926406 17.698765152926832" width="500" xmlns="http://www.w3.org/2000/svg" xmlns:ev="http://www.w3.org/2001/xml-events" xmlns:xlink="http://www.w3.org/1999/xlink">
	<defs/>
	<path d="M 8.558515669176032,4.909784741124712 L 7.400406944456451,4.99792626286628 L 10.976102929145217,4.050498106829462 L 10.268197779035878,4.417195411382259 L 11.154765393728853,6.048562539574417 L 11.08078194269927,9.33733288143257 L 8.558515669176032,4.909784741124712" fill="none" stroke="#000000" stroke-width="0.020007080221420823"/>
	<path d="M -7.63624674422757,7.076450786535467 L -7.069240834753456,8.98912769286796 L -3.002477522333007,11.25536548368408 L -3.5251256341166166,11.176341669028231 L -3.672784504695241,11.05053283500335 L -5.4771986037238225,11.807862109244118 L -5.766063907665354,12.265775634167388 L -8.85231482769197,9.403713643707535 L -7.319170680715535,5.019741408546901 L -6.92355351707989,8.41017416147141 L -7.63624674422757,7.076450786535467" fill="none" stroke="#000000" stroke-width="0.020007080221420823"/>
	<path d="M -0.7300029782488302,-2.466522759753788 L 2.1867587648332427,0.5100795065594665 L 4.2308152127760295,-0.9623929881622073 L 3.5776763358556707,0.5358407993951975 L 3.3177951376478787,0.39525910155950783 L 5.082231492434132,1.8045332120585713 L 0.5339744484099946,0.7475778663720717 L -0.7300029782488302,-2.466522759753788" fill="none" stroke="#000000" stroke-width="0.020007080221420823"/>
	<path d="M 7.868523095078256,5.748697217111843 L 5.612639999805509,7.242191285717902 L 8.45234994381864,5.141631160687276 L 5.556421978905581,10.755374091417732 L 7.868523095078256,5.748697217111843" fill="none" stroke="#000000" stroke-width="0.020007080221420823"/>
</svg>
