<?xml version="1.0" ?>
<svg baseProfile="full" height="500" version="1.1" viewBox="-12.081197173157449 -14.664287985378394 27.790991477856153 31.30778872585039" width="500" xmlns="http://www.w3.org/2000/svg" xmlns:ev="http://www.w3.org/2001/xml-events" xmlns:xlink="http://www.w3.org/1999/xlink">
	<defs/>
	<path d="M -0.6522711717170164,-5.096047492204587 L -2.0723476764629227,-6.953863742733614 L -4.220286524372224,-4.4680092159400555 L -0.6522711717170164,-5.096047492204587" fill="none" stroke="#000000" stroke-width="0.026068100521107734"/>
	<path d="M 2.9864420252690707,3.5171148078492003 L 6.367062406594499,6.874799934628468 L 4.310258716059051,4.13663505929708 L 5.394317693048739,3.4126647037844684 L 6.9531269047720645,2.1812192383742293 L 3.878477305376771,4.272057718797781 L 2.9864420252690707,3.5171148078492003" fill="none" stroke="#000000" stroke-width="0.026068100521107734"/>
	<path d="M 8.15058567831883,-1.8545222654716937 L 7.72344550191765,-3.5431709715908806 L 7.300965384905956,-5.238785930468622 L 8.15058567831883,-1.8545222654716937" fill="none" stroke="#000000" stroke-width="0.026068100521107734"/>
	<path d="M 7.546807178289853,-9.882577067728395 L 7.406075217997453,-10.220040367744001 L 7.16247326951515,-10.855323688731264 L 8.38651979430451,-10.19543245572047 L 9.206776180485187,-12.044443883007066 L 8.789417831118126,-10.236583992220169 L 13.383016639660232,-9.689200266831296 L 7.546807178289853,-9.882577067728395" fill="none" stroke="#000000" stroke-width="0.026068100521107734"/>
	<path d="M 9.230014013025883,6.400059406489159 L 12.119503390301398,3.799569487397083 L 12.736009438944176,5.284219303657738 L 11.092297717382177,0.6432959706872561 L 11.008443985934472,0.2637771269570661 L 7.384115438649971,-0.1308463116803395 L 9.230014013025883,6.400059406489159" fill="none" stroke="#000000" stroke-width="0.026068100521107734"/>
	<path d="M -1.3361549743757077,4.394678055842265 L -2.8852286854624793,5.095812511430227 L -2.480451442572356,5.3716322053717285 L -3.2095691133172153,6.896797056987063 L -1.3361549743757077,4.394678055842265" fill="none" stroke="#000000" stroke-width="0.026068100521107734"/>
	<path d="M 8.208748889004962,5.6303061360136795 L 4.89476043087047,6.717650022976312 L 3.620640295991046,8.14705256904525 L 4.103952747216244,7.998525830656668 L 3.044285799088795,10.738277144061398 L 5.569234417188534,12.57768885261116 L 6.890723602753247,13.698674936000376 L 5.245982529573358,12.266367883698504 L 4.7231407162279195,11.393865309867879 L 7.967914661399037,14.023656638100668 L 8.208748889004962,5.6303061360136795" fill="none" stroke="#000000" stroke-width="0.026068100521107734"/>
	<path d="M -9.754419508118975,-7.0389850795124564 L -9.105520700574424,-5.963693921813778 L -6.809184942578076,-3.9662897855165977 L -6.5016156593078875,-3.4736747695535315 L -3.7926446409495136,-6.164868003018297 L -1.1884807880527375,-7.951422186683411 L -3.0877838866759504,-6.85285306072228 L -9.754419508118975,-7.0389850795124564" fill="none" stroke="#000000" stroke-width="0.026068100521107734"/>
</svg>
