<?xml version="1.0" ?>
<svg baseProfile="full" height="500" version="1.1" viewBox="-8.26282149718451 -12.272082648010453 19.786965796533206 23.34886017113937" width="500" xmlns="http://www.w3.org/2000/svg" xmlns:ev="http://www.w3.org/2001/xml-events" xmlns:xlink="http://www.w3.org/1999/xlink">
	<defs/>
	<path d="M 5.706980636321251,-8.464288932597402 L 2.8262000507403657,-5.820534616533511 L 0.4788873334561048,-2.174359257715257 L 5.706980636321251,-8.464288932597402" fill="none" stroke="#000000" stroke-width="0.019441182490540693"/>
	<path d="M 1.211657957405457,0.6911546954535996 L 0.7203838995607583,1.1850948494587281 L 0.2096531332629118,-0.19674601308896755 L 1.221176324896545,2.9943689411319943 L 1.211657957405457,0.6911546954535996" fill="none" stroke="#000000" stroke-width="0.019441182490540693"/>
	<path d="M -6.60580718810235,4.096650878642372 L -6.009050883121008,8.470475152051637 L -6.167345195275184,8.77996404723078 L -6.3422813111263565,8.891648527763579 L -6.571052806614162,9.072288558441729 L -5.778711483196514,9.12293868282958 L -3.2587233461821175,5.182147863135857 L -1.3682253025051985,2.318815123944138 L -6.60580718810235,4.096650878642372" fill="none" stroke="#000000" stroke-width="0.019441182490540693"/>
	<path d="M -4.094473056412458,-3.5857802820118767 L -3.130891959302802,-2.551009411819666 L 0.20731532957072218,0.5925030709669938 L -3.484446271436805,-2.676465581138279 L -4.335831153757747,-3.6106216797849378 L -3.9849405269720513,-4.580951861142086 L -4.094473056412458,-3.5857802820118767" fill="none" stroke="#000000" stroke-width="0.019441182490540693"/>
	<path d="M -3.674745730511672,3.595585846363619 L -4.81974209920152,4.844983726883105 L -4.608270530839321,4.549303882231654 L -3.674745730511672,3.595585846363619" fill="none" stroke="#000000" stroke-width="0.019441182490540693"/>
	<path d="M 7.951390698031538,-5.325836333985543 L 7.888147121484786,-5.1073210926799275 L 9.559544178417472,-1.8523053015241606 L 9.867129990266537,-2.2430523159013815 L 7.951390698031538,-5.325836333985543" fill="none" stroke="#000000" stroke-width="0.019441182490540693"/>
	<path d="M 4.638741775745487,-4.181081688578939 L 4.531634080107374,-4.215415925097285 L 3.526631552733642,-5.492510314045619 L 3.4525067598989847,-5.6487411597800925 L 3.9367564524363976,-6.123533182918444 L 4.552856310997281,-5.002010629740276 L 4.638741775745487,-4.181081688578939" fill="none" stroke="#000000" stroke-width="0.019441182490540693"/>
	<path d="M -2.149677796197846,-7.236275776921612 L -4.097225483874283,-9.45743031168952 L -5.932648782090336,-8.414837058676515 L -4.191019503998417,-9.653241323867482 L -5.155001150994391,-10.318243807711113 L -4.105124199944556,-9.594720021634412 L -2.149677796197846,-7.236275776921612" fill="none" stroke="#000000" stroke-width="0.019441182490540693"/>
</svg>
