<?xml version="1.0" ?>
<svg baseProfile="full" height="500" version="1.1" viewBox="-12.329190977078719 -11.827304455495135 26.211502707837056 26.82879236388801" width="500" xmlns="http://www.w3.org/2000/svg" xmlns:ev="http://www.w3.org/2001/xml-events" xmlns:xlink="http://www.w3.org/1999/xlink">
	<defs/>
	<path d="M 8.35639532859534,-2.2274121535420743 L 8.41353108449135,-1.8726335588875118 L 11.247029288612964,0.9249847977247558 L 11.3637311524392,0.49086297656184297 L 11.688712042031462,-1.3458191503482118 L 10.712549048874363,0.06129810086749238 L 8.35639532859534,-2.2274121535420743" fill="none" stroke="#000000" stroke-width="0.02233871137709243"/>
	<path d="M -2.301750447501984,0.47843916857290836 L 1.872298038315793,-2.0860650062781345 L 2.59251032989801,-4.299018712293418 L 2.7145225666734576,-0.1548849939678678 L -2.301750447501984,0.47843916857290836" fill="none" stroke="#000000" stroke-width="0.02233871137709243"/>
	<path d="M -8.207398110350981,7.4510367075350565 L -10.135591288351842,9.467748615532116 L -7.0513718981345495,12.756447414995085 L -6.336894900548225,12.721627964354388 L -8.794549535204858,8.537025860368217 L -8.207398110350981,7.4510367075350565" fill="none" stroke="#000000" stroke-width="0.02233871137709243"/>
	<path d="M -7.328403688181966,-2.432639696457737 L -8.352958615024296,-2.6910440295127334 L -8.586022555580133,0.9007306838629199 L -8.404280697172387,0.7028807386081358 L -8.655897367317202,1.0194268787791751 L -7.780926940395165,0.8431003794574901 L -6.2020220818580505,1.5104709935515943 L -7.328403688181966,-2.432639696457737" fill="none" stroke="#000000" stroke-width="0.02233871137709243"/>
	<path d="M -2.573600151785838,-7.2468988939638805 L -2.6630981716818147,-6.851682778850599 L -6.266436342783647,-4.203417455403155 L -5.957622364336496,-3.9513048619825337 L -6.079170989201262,-4.0500345405754254 L -5.819212068821581,-3.158400582824669 L -7.671999708279678,-5.995521433659407 L -8.330643443610121,-6.152990758427277 L -9.908156934093203,-9.582263962097345 L -5.90574836167736,-7.9495297876829945 L -2.573600151785838,-7.2468988939638805" fill="none" stroke="#000000" stroke-width="0.02233871137709243"/>
</svg>
