<?xml version="1.0" ?>
<svg baseProfile="full" height="500" version="1.1" viewBox="-12.802399830383935 -8.704257769765949 19.90662032092949 17.129193364717896" width="500" xmlns="http://www.w3.org/2000/svg" xmlns:ev="http://www.w3.org/2001/xml-events" xmlns:xlink="http://www.w3.org/1999/xlink">
	<defs/>
	<path d="M -1.2781851507368618,4.5036906342217815 L -3.640780037031853,6.2829130981226875 L -4.671375228671213,6.990596548835455 L -1.2781851507368618,4.5036906342217815" fill="none" stroke="#000000" stroke-width="0.016575037735994582"/>
	<path d="M -9.938327828180544,-5.442306422923416 L -11.13660853791648,-3.5289369677039226 L -8.969236850235722,-5.617113230213976 L -8.0337530959751,-6.765253160272724 L -7.682561252026276,-7.239426566551728 L -9.938327828180544,-5.442306422923416" fill="none" stroke="#000000" stroke-width="0.016575037735994582"/>
	<path d="M 3.5144816974206368,-7.26991872364946 L 0.33623416628034786,-5.287155136767495 L 1.6484821495654152,-2.5385208349683075 L 0.043880431486821525,-2.453481732397906 L -0.1469411074645864,-1.8270018123148197 L -0.8303574047322908,-1.1711576985195498 L 3.0572465944853175,-0.9951089591450805 L 3.5144816974206368,-7.26991872364946" fill="none" stroke="#000000" stroke-width="0.016575037735994582"/>
	<path d="M -0.39038538913135135,6.735842705837495 L -0.1949283928697609,2.6217439694189775 L 3.9823957600103173,2.012454124104675 L 4.035334095173517,1.3230641233583094 L 5.232534190791919,0.17630095138527757 L 5.438429198078101,4.048825166735767 L -0.39038538913135135,6.735842705837495" fill="none" stroke="#000000" stroke-width="0.016575037735994582"/>
	<path d="M -3.018093972318054,-0.7653265333947719 L -4.194468042871579,-0.9481736021877151 L -6.32274604545769,-0.8975847941856814 L -7.853017144125687,-1.6024799762507653 L -8.622869595232345,-2.2885979908254974 L -8.644384527588482,-4.866140096845219 L -6.781211600537603,-3.989323586245825 L -7.67549430694773,-5.821262637234701 L -3.018093972318054,-0.7653265333947719" fill="none" stroke="#000000" stroke-width="0.016575037735994582"/>
</svg>
