<?xml version="1.0" ?>
<svg baseProfile="full" height="500" version="1.1" viewBox="-12.744234247486371 -12.069465122030408 26.844910674900873 27.838090666287705" width="500" xmlns="http://www.w3.org/2000/svg" xmlns:ev="http://www.w3.org/2001/xml-events" xmlns:xlink="http://www.w3.org/1999/xlink">
	<defs/>
	<path d="M 5.829753374646581,-5.204519922019967 L 3.427658176923607,-2.0011515322571025 L 7.748346906620567,-3.237412681434019 L 2.0674786118786708,-1.1179288933204856 L 5.829753374646581,-5.204519922019967" fill="none" stroke="#000000" stroke-width="0.02317909297775829"/>
	<path d="M 0.7926836545774147,3.585730873641495 L 2.632934724334899,4.327829137102085 L 2.5309641015175246,4.2639226128407195 L 4.193031608982743,4.3383850491647316 L 0.7926836545774147,3.585730873641495" fill="none" stroke="#000000" stroke-width="0.02317909297775829"/>
	<path d="M -4.5320456509196205,2.3851190174489485 L -2.9063126781691837,1.9451525740443478 L -2.299218740216749,5.698955429531307 L -4.5320456509196205,2.3851190174489485" fill="none" stroke="#000000" stroke-width="0.02317909297775829"/>
	<path d="M 0.909655206615076,7.200073114647367 L 0.7891911747083065,7.605415577688767 L 0.596108049964079,8.142142169708915 L 0.909655206615076,7.200073114647367" fill="none" stroke="#000000" stroke-width="0.02317909297775829"/>
	<path d="M -8.248720904568287,-9.56554336745979 L -10.4975004025039,-7.40798351822167 L -8.905851827056386,-9.7399662777657 L -8.248720904568287,-9.56554336745979" fill="none" stroke="#000000" stroke-width="0.02317909297775829"/>
	<path d="M 7.393525785360893,-7.70189730851124 L 7.654048496988126,-7.470841996955566 L 7.66009627098616,-7.733740739929667 L 8.755171858135855,-9.26091540685946 L 7.393525785360893,-7.70189730851124" fill="none" stroke="#000000" stroke-width="0.02317909297775829"/>
	<path d="M 9.30762417466337,5.324582052071918 L 9.066036621065356,5.724742059739695 L 11.853942582432028,1.9159111614551794 L 9.30762417466337,5.324582052071918" fill="none" stroke="#000000" stroke-width="0.02317909297775829"/>
	<path d="M 0.6101921253337768,8.955336114168407 L -0.6378203774673301,12.945922629102117 L -0.8838208961652897,13.439126699992586 L 0.6101921253337768,8.955336114168407" fill="none" stroke="#000000" stroke-width="0.02317909297775829"/>
</svg>
