<?xml version="1.0" ?>
<svg baseProfile="full" height="500" version="1.1" viewBox="-8.023977140011555 -8.128912533625002 16.59865895885598 20.883852569595454" width="500" xmlns="http://www.w3.org/2000/svg" xmlns:ev="http://www.w3.org/2001/xml-events" xmlns:xlink="http://www.w3.org/1999/xlink">
	<defs/>
	<path d="M 3.5365145467022643,5.6484354260460385 L 3.2792354783018127,1.7233696372635228 L 3.9019638081713355,0.9291855071929154 L 3.5365145467022643,5.6484354260460385" fill="none" stroke="#000000" stroke-width="0.01738871987476724"/>
	<path d="M 1.4733207909898898,-4.331663841811945 L 2.5493145936172357,-5.643343555452312 L 1.9570630763215067,-5.82912706829403 L 1.9069727773515073,-6.3813461862108944 L 1.4733207909898898,-4.331663841811945" fill="none" stroke="#000000" stroke-width="0.01738871987476724"/>
	<path d="M 3.29386563499855,8.825526395695722 L 4.377966157952267,8.700646931461597 L 3.9603040343421876,9.057615802105914 L 4.964712497983598,9.234790234146933 L 3.2948877262588065,11.007373688556347 L 3.29386563499855,8.825526395695722" fill="none" stroke="#000000" stroke-width="0.01738871987476724"/>
	<path d="M 6.830256180956074,-3.6176519306208625 L 7.184214938991941,-2.4133451203466962 L 3.7200734451451427,-1.611805603722216 L 6.232342080840023,-2.5749378480341942 L 3.19742912042919,-4.51188547521477 L 6.830256180956074,-3.6176519306208625" fill="none" stroke="#000000" stroke-width="0.01738871987476724"/>
	<path d="M -6.6335102601590705,2.03854339508867 L -5.785530992883292,3.9699718756986906 L -5.929179196061942,3.853284185080629 L -6.6335102601590705,2.03854339508867" fill="none" stroke="#000000" stroke-width="0.01738871987476724"/>
	<path d="M -4.8061394697310895,-0.08674454076200178 L -3.4487239373036065,-1.0322553415699525 L -2.432599963460416,-0.8511462756857726 L -4.8061394697310895,-0.08674454076200178" fill="none" stroke="#000000" stroke-width="0.01738871987476724"/>
</svg>
