<?xml version="1.0" ?>
<svg baseProfile="full" height="500" version="1.1" viewBox="-17.351770396783525 -22.874325873108557 38.006418741025335 32.59222995108316" width="500" xmlns="http://www.w3.org/2000/svg" xmlns:ev="http://www.w3.org/2001/xml-events" xmlns:xlink="http://www.w3.org/1999/xlink">
	<defs/>
	<path d="M 9.232715694504687,-0.6345701283679048 L 13.598381680176848,-1.593271580264104 L 16.083058501239268,-4.136263228364719 L 17.47426109738665,-3.927501905380466 L 14.796317276893257,-4.933257083009617 L 9.232715694504687,-0.6345701283679048" fill="none" stroke="#000000" stroke-width="0.031645644247315016"/>
	<path d="M -9.265659629567862,-6.8469664102090455 L -6.95323571150106,-9.666417626965687 L -7.021848509168149,-10.138918541264907 L -10.132235382901094,-13.86642660307437 L -9.953161626566153,-15.043349978734112 L -5.665764914662508,-12.69378035516431 L -5.067226951846507,-13.404540493792258 L -5.031239239471092,-16.83787064607712 L -4.9620487940408715,-16.984062553571643 L -3.0375046426016166,-12.459064214537177 L -9.265659629567862,-6.8469664102090455" fill="none" stroke="#000000" stroke-width="0.031645644247315016"/>
	<path d="M -5.487061939717872,-3.7742201947634157 L -6.328384401503326,-4.033434488578709 L -6.5271348234827204,-7.100684158900399 L -9.113248143289281,-3.5634626486860097 L -5.99707907675425,-7.998442269925111 L -5.487061939717872,-3.7742201947634157" fill="none" stroke="#000000" stroke-width="0.031645644247315016"/>
	<path d="M -9.346125919517602,-8.418184527302888 L -10.511345168398009,-10.14783181185795 L -11.782660884776258,-11.715526182194129 L -14.171383149928367,-15.132503001834154 L -13.163880437616086,-14.53500169572128 L -11.307841130118474,-18.142208000357492 L -11.283987402360557,-20.145121025415246 L -9.346125919517602,-8.418184527302888" fill="none" stroke="#000000" stroke-width="0.031645644247315016"/>
	<path d="M -5.064617306374622,4.047191547639606 L -7.773372048661236,2.298591325878039 L -6.551434341042903,5.102156806973485 L -9.840167223518783,4.2282719455351945 L -4.427505738408827,6.988699230281291 L -5.064617306374622,4.047191547639606" fill="none" stroke="#000000" stroke-width="0.031645644247315016"/>
	<path d="M -5.294503218796123,-3.9840761232514073 L -5.013636478900118,-0.9817509010289482 L -4.7717363184899835,-2.77767834450815 L -4.768943930911326,-2.8881912970785386 L -5.294503218796123,-3.9840761232514073" fill="none" stroke="#000000" stroke-width="0.031645644247315016"/>
	<path d="M -6.379564813925547,1.344044270972681 L -5.59883599637057,2.397638921506398 L -5.147839728094447,0.7426028986828948 L -1.8454073952027552,-2.7069592423389475 L 0.8830944410921373,-6.683206366943377 L -6.379564813925547,1.344044270972681" fill="none" stroke="#000000" stroke-width="0.031645644247315016"/>
</svg>
