<?xml version="1.0" ?>
<svg baseProfile="full" height="500" version="1.1" viewBox="-15.40300692792179 -12.361170671824107 22.02654476915145 31.59477227585095" width="500" xmlns="http://www.w3.org/2000/svg" xmlns:ev="http://www.w3.org/2001/xml-events" xmlns:xlink="http://www.w3.org/1999/xlink">
	<defs/>
	<path d="M -5.179709906416838,-2.919602715087473 L -5.121448145409581,-5.831441653131533 L -5.017483787699545,-5.932803242243004 L -5.766206287561352,-8.554843988923913 L -5.182230503737291,-1.6654600253174374 L -5.179709906416838,-2.919602715087473" fill="none" stroke="#000000" stroke-width="0.02630705435124975"/>
	<path d="M -8.21543359496026,-6.015043828722373 L -7.663375410434487,-7.3977433407798605 L -8.130498072216561,-9.717311709523507 L -10.261930620203891,-8.5337832202029 L -8.732898756558471,-9.233315605443993 L -8.903088892153162,-9.094155927956603 L -12.878325654488176,-6.6777697833912235 L -13.556500257846148,-2.6742761541286164 L -10.817644744276734,-3.3408759156257237 L -8.21543359496026,-6.015043828722373" fill="none" stroke="#000000" stroke-width="0.02630705435124975"/>
	<path d="M 0.9487472834376316,7.769281753049704 L 0.06569278678965995,8.029989663785003 L -4.577530179843571,9.188928514629964 L -4.6853217594914405,9.056733446230552 L -3.75491436010134,12.245386385293969 L -3.5565677804288858,13.041394632885721 L -3.012633565362427,16.589742641726243 L -2.3494565870047683,13.369865905402547 L 0.9487472834376316,7.769281753049704" fill="none" stroke="#000000" stroke-width="0.02630705435124975"/>
	<path d="M 4.777031171154018,-0.3040624357923747 L 1.7052362936835856,-1.6304419985945182 L -1.6527954923806387,-2.5374769367842585 L 4.777031171154018,-0.3040624357923747" fill="none" stroke="#000000" stroke-width="0.02630705435124975"/>
	<path d="M -1.2683728741674116,-6.473934162631512 L -1.283884241258248,-2.0649239592685804 L -2.486039177650486,-2.055710305066926 L -1.2683728741674116,-6.473934162631512" fill="none" stroke="#000000" stroke-width="0.02630705435124975"/>
</svg>
