<?xml version="1.0" ?>
<svg xmlns="http://www.w3.org/2000/svg" xmlns:ev="http://www.w3.org/2001/xml-events" xmlns:xlink="http://www.w3.org/1999/xlink" baseProfile="full" height="10" version="1.1" viewBox="-14.396147289656831 -11.987745011464732 26.500869117349467 32.04152994701181" width="10">
	<defs/>
	<path d="M 8.630817316422235,8.954612230557558 L 8.558276774262492,8.100998253388216 L 9.885199800238308,11.282176371583422 L 9.825086814758881,14.908473899108522 L 8.943648441776554,16.189998105145687 L 8.840970994371197,17.37254117228756 L 5.623723775451448,16.612065317572817 L 6.904660203101526,16.13242138629093 L 8.630817316422235,8.954612230557558" fill="none" stroke="#000000" stroke-width="0.026679042420492766"/>
	<path d="M 0.10123841154282154,3.568430196437653 L -2.448883779446564,0.6158254200836604 L -2.139177869289765,1.1091652322617565 L -3.0620183985730414,-0.21276584115489627 L -2.724035298576237,-0.6454188763949538 L 0.10123841154282154,3.568430196437653" fill="none" stroke="#000000" stroke-width="0.026679042420492766"/>
	<path d="M 0.6802917109004483,-4.278754368232372 L 0.39071230859213874,0.10405493811234479 L -0.8846355838322875,-2.28570970483377 L -2.647168277704887,-1.0659677347152439 L 0.6802917109004483,-4.278754368232372" fill="none" stroke="#000000" stroke-width="0.026679042420492766"/>
	<path d="M -6.655846989515175,5.060509876732343 L -8.271804572172979,4.444629634659117 L -7.733518497996164,4.338516318978034 L -7.071025282381099,3.3484593220970353 L -6.009811373525102,1.7323594385815921 L -4.564282793754533,5.760799613554258 L -5.184026111492477,5.003608629343447 L -5.643024373598613,3.3286612626216665 L -6.655846989515175,5.060509876732343" fill="none" stroke="#000000" stroke-width="0.026679042420492766"/>
	<path d="M 3.7919898563216208,-4.572881219757587 L 4.681251309684184,-3.9719505617200124 L 6.424494806310512,-1.2830773326960911 L 3.7919898563216208,-4.572881219757587" fill="none" stroke="#000000" stroke-width="0.026679042420492766"/>
	<path d="M -8.441236794282913,9.952460156415444 L -8.478002843049186,10.051364207172387 L -9.260899952439445,10.927493317129654 L -7.785312719362915,12.498477727470457 L -6.862143909374338,13.721151085660676 L -4.858790748329243,14.230572657477422 L -5.207450281784596,13.849994198668862 L -8.441236794282913,9.952460156415444" fill="none" stroke="#000000" stroke-width="0.026679042420492766"/>
	<path d="M 6.736222067233321,4.7113711489117165 L 6.993590452716113,5.0223924996029625 L 6.073443885867514,4.17014366699424 L 5.5247744868349615,2.9108812863720748 L 5.322427106008793,1.908493331591737 L 6.736222067233321,4.7113711489117165" fill="none" stroke="#000000" stroke-width="0.026679042420492766"/>
	<path d="M 3.8795116540826076,-5.725170838123088 L 4.6535335288529,-5.67532861044631 L 4.023663140055797,-4.721365227486799 L 4.862315945100858,-5.42957358682476 L 5.451070193166471,-6.5727142266520335 L 3.8795116540826076,-5.725170838123088" fill="none" stroke="#000000" stroke-width="0.026679042420492766"/>
	<path d="M -8.13738917211914,-4.7140850490037085 L -8.62890427028622,-5.361473437585307 L -12.176625262202503,-3.0393475528094522 L -8.13738917211914,-4.7140850490037085" fill="none" stroke="#000000" stroke-width="0.026679042420492766"/>
	<path d="M -7.972710943378177,-9.306501248205208 L -7.620526907349859,-9.08486949238384 L -8.034974785349567,-8.71726504601116 L -8.488955170687737,-8.191787374660425 L -8.695159332375944,-8.294860728472813 L -8.901252351684994,-8.68203376405075 L -7.972710943378177,-9.306501248205208" fill="none" stroke="#000000" stroke-width="0.026679042420492766"/>
</svg>
