<?xml version="1.0" ?>
<svg xmlns="http://www.w3.org/2000/svg" xmlns:ev="http://www.w3.org/2001/xml-events" xmlns:xlink="http://www.w3.org/1999/xlink" baseProfile="full" height="10" version="1.1" viewBox="-12.85269622280564 -10.08753159137284 26.971207560790525 24.3510845165374" width="10">
	<defs/>
	<path d="M 4.162956452362096,-4.181905221741113 L 4.2866814853896935,0.30822662341065765 L 4.009236067480193,0.09129036452200023 L 4.162956452362096,-4.181905221741113" fill="none" stroke="#000000" stroke-width="0.02245729189074981"/>
	<path d="M 6.828392380622962,4.543041574934186 L 6.414862863716676,5.208392249840857 L 3.7111757506456757,8.176506140613105 L 4.7743434187630225,7.87827317930983 L 6.275082528307487,7.746150176660468 L 3.506642508596972,10.979591364408808 L 3.6609327816729365,12.200982400006902 L 7.8229691217671995,12.224938677165298 L 7.418295113398369,12.20490786600145 L 6.828392380622962,4.543041574934186" fill="none" stroke="#000000" stroke-width="0.02245729189074981"/>
	<path d="M 6.1070591761701145,6.840527646099829 L 6.9362222659451955,6.846075624699357 L 6.752965241678368,6.730265916903136 L 6.1070591761701145,6.840527646099829" fill="none" stroke="#000000" stroke-width="0.02245729189074981"/>
	<path d="M -9.597071454900487,-4.21280333234912 L -7.512114983005022,-1.663992182065083 L -10.595738387785284,-3.1743977605866904 L -10.514156512455166,-5.084518185703432 L -9.597071454900487,-4.21280333234912" fill="none" stroke="#000000" stroke-width="0.02245729189074981"/>
	<path d="M -7.6070763157502785,-3.644970491906343 L -7.7538775372523405,-3.6077546082185523 L -5.645879155930956,-5.70204035740154 L -5.483708861851281,-5.168290038634442 L -5.673411656887927,-5.165097642673708 L -6.634295166618594,-4.081713116228327 L -6.761397033080839,-4.403013494722952 L -6.88810372005566,-4.215326129996301 L -6.980637458392585,-4.261983928463544 L -7.6070763157502785,-3.644970491906343" fill="none" stroke="#000000" stroke-width="0.02245729189074981"/>
	<path d="M 9.307139002252725,-2.621705569347408 L 9.190770142842382,-2.600059027241363 L 11.861553502964528,-3.0606251892325096 L 9.307139002252725,-2.621705569347408" fill="none" stroke="#000000" stroke-width="0.02245729189074981"/>
	<path d="M 5.129059107727157,-7.129304736727868 L 5.216011169767326,-6.494813506359832 L 5.473860377561852,-7.052426841461305 L 5.033384169143973,-8.048917343373578 L 5.055921331707187,-7.631754831078244 L 4.951158625322279,-7.210272720348453 L 5.129059107727157,-7.129304736727868" fill="none" stroke="#000000" stroke-width="0.02245729189074981"/>
	<path d="M 9.753720158191971,-3.9132763460719255 L 9.652070123461705,-3.8281869585817985 L 9.168478109758372,-3.29173225025188 L 10.844137870568916,-4.204567049159394 L 9.753720158191971,-3.9132763460719255" fill="none" stroke="#000000" stroke-width="0.02245729189074981"/>
	<path d="M 8.545043675231828,1.0546855316480297 L 9.89640030080498,0.052891611943598926 L 9.95589138285577,0.3104828446355314 L 8.545043675231828,1.0546855316480297" fill="none" stroke="#000000" stroke-width="0.02245729189074981"/>
</svg>
