<?xml version="1.0" ?>
<svg xmlns="http://www.w3.org/2000/svg" xmlns:ev="http://www.w3.org/2001/xml-events" xmlns:xlink="http://www.w3.org/1999/xlink" baseProfile="full" height="10" version="1.1" viewBox="-13.700344066034756 -9.213126934185684 24.985747260141952 26.22392443758385" width="10">
	<defs/>
	<path d="M 9.194159641399839,-5.507511387413464 L 7.811670851173337,-5.966648092284951 L 6.670797378479607,-6.89889816678954 L 9.194159641399839,-5.507511387413464" fill="none" stroke="#000000" stroke-width="0.021835074469262156"/>
	<path d="M -4.821303308192936,9.659143729290246 L -5.961566825027653,11.69013409518698 L -8.10317295551116,14.816372519237317 L -4.821303308192936,9.659143729290246" fill="none" stroke="#000000" stroke-width="0.021835074469262156"/>
	<path d="M -6.756174386913569,6.383621204607007 L -7.9168305415723665,7.4268738799639245 L -7.672217464759055,9.13496013644118 L -9.534669226457616,8.174735648703514 L -9.652982921468837,8.093261301532786 L -6.756174386913569,6.383621204607007" fill="none" stroke="#000000" stroke-width="0.021835074469262156"/>
	<path d="M -2.3140972554424817,-1.9836478608974666 L -0.7192601581250662,-1.9741502640156254 L -2.2084339046003456,-4.208520548117477 L -2.3140972554424817,-1.9836478608974666" fill="none" stroke="#000000" stroke-width="0.021835074469262156"/>
	<path d="M 1.4570533382491604,-0.5729142445497253 L 1.505583292836852,0.848375474496091 L 1.8030611103955225,-0.08592853980492421 L 1.5170113039776105,-0.290271950410702 L 1.5602620667874616,-0.38401104228399086 L 1.4570533382491604,-0.5729142445497253" fill="none" stroke="#000000" stroke-width="0.021835074469262156"/>
	<path d="M -9.880747480008594,-6.6982265467244195 L -9.893772049576064,-6.50698833373491 L -10.128530848479885,-6.3429091296430355 L -10.964688723742704,-5.613995532660394 L -10.921769499373351,-5.80078139867636 L -10.555932822744715,-6.071038619927554 L -11.475595165726494,-6.268822320042505 L -11.6091005133274,-6.27053300265074 L -10.283597872996621,-7.018701950024838 L -9.880747480008594,-6.6982265467244195" fill="none" stroke="#000000" stroke-width="0.021835074469262156"/>
	<path d="M 3.2553733017802102,-2.983102143906329 L 2.539603376311123,-6.858149199420186 L 4.3495774978687605,-3.777043534718508 L 3.2553733017802102,-2.983102143906329" fill="none" stroke="#000000" stroke-width="0.021835074469262156"/>
	<path d="M -7.85130242255579,-4.680537024941762 L -8.958021198672744,-4.298091053584322 L -8.6826661699019,-2.495160367989864 L -8.151197616691643,-3.359782343831898 L -8.73796560182648,-3.969808421050259 L -7.85130242255579,-4.680537024941762" fill="none" stroke="#000000" stroke-width="0.021835074469262156"/>
	<path d="M 1.8576585000670693,9.017405344644796 L -0.48078239971184056,6.497182923731819 L -0.3349594190857105,6.308088561671023 L -0.507616063268789,6.233946266553395 L -0.2867632668135261,6.318140559159656 L 1.182043532981626,7.881682641596427 L 1.8576585000670693,9.017405344644796" fill="none" stroke="#000000" stroke-width="0.021835074469262156"/>
	<path d="M -6.502190506075733,4.075563939148459 L -7.704850118681117,3.3994213301477942 L -8.121882400834336,2.8945320313028593 L -6.502190506075733,4.075563939148459" fill="none" stroke="#000000" stroke-width="0.021835074469262156"/>
	<path d="M -0.827843678580269,6.406681010241503 L -1.4852301543292987,8.243180561777098 L -1.6283852013947098,8.068096615663913 L -0.827843678580269,6.406681010241503" fill="none" stroke="#000000" stroke-width="0.021835074469262156"/>
</svg>
