<?xml version="1.0" ?>
<svg xmlns="http://www.w3.org/2000/svg" xmlns:ev="http://www.w3.org/2001/xml-events" xmlns:xlink="http://www.w3.org/1999/xlink" baseProfile="full" height="10" version="1.1" viewBox="-14.910819017373834 -15.553721853903795 27.753649823326292 25.247689292815508" width="10">
	<defs/>
	<path d="M -1.375499287071822,-5.617374048259148 L -2.001157920588817,-7.482453805878878 L -1.5910124801768584,-5.845712410060251 L -1.375499287071822,-5.617374048259148" fill="none" stroke="#000000" stroke-width="0.02310878419927252"/>
	<path d="M 8.274888646082083,4.649836903706191 L 6.619677331427822,3.2492228162102723 L 5.358566031377736,3.573324946881665 L 3.9318637729435784,2.6738269510474844 L 5.906742563801517,6.376278951819374 L 9.369527045406777,4.9061526331067595 L 9.085563369865701,3.507675864079835 L 8.212473273336638,-0.638101593944139 L 8.274888646082083,4.649836903706191" fill="none" stroke="#000000" stroke-width="0.02310878419927252"/>
	<path d="M 7.712741255595926,7.580364671094053 L 7.237249238823872,5.9869748356080335 L 7.8922626828044065,6.7167274894690525 L 7.712741255595926,7.580364671094053" fill="none" stroke="#000000" stroke-width="0.02310878419927252"/>
	<path d="M -8.30515388726717,2.6957106301137106 L -8.044831232437136,3.192673279661504 L -8.201923377563983,4.095105099119238 L -8.30515388726717,2.6957106301137106" fill="none" stroke="#000000" stroke-width="0.02310878419927252"/>
	<path d="M 4.225048007907713,0.9296400892386263 L 2.204446509458101,2.0693717042761905 L 2.3978103094804615,1.4316160611446698 L 1.8786276138489297,0.9896075383589706 L 2.112700022899473,0.31033777528138007 L 2.4711751053394133,0.9295410427592474 L 6.830176502847391,0.5078983811283702 L 8.040810049149458,2.8877994935239535 L 4.225048007907713,0.9296400892386263" fill="none" stroke="#000000" stroke-width="0.02310878419927252"/>
	<path d="M -6.566329819168642,5.568067320743456 L -7.323939743262155,5.080418107978394 L -7.223439296810706,4.469867796067151 L -7.079371629631887,1.9574276488794435 L -8.493618884308452,0.4840710224799101 L -12.588386205346946,3.273347794922436 L -12.399454666492337,3.3236775038549595 L -6.566329819168642,5.568067320743456" fill="none" stroke="#000000" stroke-width="0.02310878419927252"/>
	<path d="M 7.801695165101858,-8.44340181885955 L 6.1371521468496555,-7.290848016206479 L 6.462746543048215,-7.586335812578088 L 7.801695165101858,-8.44340181885955" fill="none" stroke="#000000" stroke-width="0.02310878419927252"/>
	<path d="M 7.9333860010886355,0.9944514597675749 L 10.040513694322762,-2.104691459878585 L 6.419383567954313,0.24295547973127984 L 6.048056109894177,0.27605136288147847 L 6.161975246193721,0.3166082907075657 L 7.853006618468434,0.5514021018567884 L 7.825133625007661,-0.010868693501101978 L 7.95399168741023,0.1456274604867519 L 7.9333860010886355,0.9944514597675749" fill="none" stroke="#000000" stroke-width="0.02310878419927252"/>
	<path d="M 6.965876936478406,-1.9162523172756796 L 7.157336898100204,-2.0451419340414922 L 4.31020432336841,-5.5908894542416405 L 6.965876936478406,-1.9162523172756796" fill="none" stroke="#000000" stroke-width="0.02310878419927252"/>
	<path d="M 9.124277055686786,-7.5145681063472285 L 8.112722566983196,-12.065913028523111 L 10.180700120953311,-13.44011908608614 L 10.20227462294538,-13.205555432048373 L 10.52039799392557,-11.266102537464125 L 9.124277055686786,-7.5145681063472285" fill="none" stroke="#000000" stroke-width="0.02310878419927252"/>
	<path d="M 7.978641178915581,5.625856726522729 L 8.03337982203123,6.247467154957158 L 8.234703695468156,7.140579771677017 L 7.978641178915581,5.625856726522729" fill="none" stroke="#000000" stroke-width="0.02310878419927252"/>
</svg>
