<?xml version="1.0" ?>
<svg xmlns="http://www.w3.org/2000/svg" xmlns:ev="http://www.w3.org/2001/xml-events" xmlns:xlink="http://www.w3.org/1999/xlink" baseProfile="full" height="10" version="1.1" viewBox="-15.035538325151844 -10.131516791544172 31.126987011272917 21.21220312175168" width="10">
	<defs/>
	<path d="M -8.895172995683524,4.360743874072915 L -11.2642504352319,0.9245972385712768 L -11.868433343523636,1.2377464853833453 L -12.430823758430005,5.204691878750232 L -8.895172995683524,4.360743874072915" fill="none" stroke="#000000" stroke-width="0.02591755787782924"/>
	<path d="M -6.704965184935345,5.663959330563522 L -6.786778330962797,7.540083035883029 L -5.992397797309247,3.7585395517895175 L -6.704965184935345,5.663959330563522" fill="none" stroke="#000000" stroke-width="0.02591755787782924"/>
	<path d="M -9.426170301469984,5.5112089920694345 L -9.479638900295866,4.536441791183052 L -8.43601768863396,7.45536273044441 L -7.251154381694763,8.205490872526246 L -7.02851768157961,7.766196450970607 L -7.4838591224282816,9.302203754279107 L -9.45832915715965,8.149833974787958 L -9.426170301469984,5.5112089920694345" fill="none" stroke="#000000" stroke-width="0.02591755787782924"/>
	<path d="M -4.321310194913497,7.7619867963078235 L -3.279951979241188,7.412082980231948 L -1.7034309837556612,8.69497261343287 L -3.7025138399522026,8.172768399639608 L -5.843513542499356,7.474449698172366 L -4.321310194913497,7.7619867963078235" fill="none" stroke="#000000" stroke-width="0.02591755787782924"/>
	<path d="M -0.491441640840268,8.372216109375206 L -0.8913378012393371,7.304846871430895 L -1.0406980968594972,7.098029500904709 L -0.491441640840268,8.372216109375206" fill="none" stroke="#000000" stroke-width="0.02591755787782924"/>
	<path d="M 5.563942818350023,0.8050523953211819 L 6.492852020815462,0.3875952056952035 L 6.270333850636419,0.6641983649175616 L 6.429803544638115,0.42610231835068696 L 6.194939864641244,0.5959690281849633 L 5.029582592548573,1.0464168800091098 L 4.903146407339059,0.6774647554974791 L 4.8707286687906315,-0.38477250495348425 L 5.563942818350023,0.8050523953211819" fill="none" stroke="#000000" stroke-width="0.02591755787782924"/>
	<path d="M 2.308598381794873,-7.135581386576972 L 2.906386614908179,-6.384091388477098 L 2.279836118110355,-7.0791893272661754 L 1.785194305583677,-7.488624476447845 L 2.390392449753277,-7.715540140756473 L 2.22176799190721,-7.851690942227695 L 2.517161638135394,-8.35303421561577 L 2.308598381794873,-7.135581386576972" fill="none" stroke="#000000" stroke-width="0.02591755787782924"/>
	<path d="M 9.730249942776403,5.57247852649607 L 11.786559236590401,4.962739947492264 L 13.486734119399234,3.945230223463577 L 9.730249942776403,5.57247852649607" fill="none" stroke="#000000" stroke-width="0.02591755787782924"/>
	<path d="M 2.8174841565221307,0.2860560019199845 L 3.6554083668827455,1.1234301362464816 L 3.5988728365138303,-0.23424720719834902 L 4.5903197205636035,0.7556297313307747 L 3.7859832295708156,-0.32356884147325626 L 3.724628569787476,-0.4720425586306777 L 3.192932235111691,-0.36674158691520037 L 2.8174841565221307,0.2860560019199845" fill="none" stroke="#000000" stroke-width="0.02591755787782924"/>
</svg>
