<?xml version="1.0" ?>
<svg xmlns="http://www.w3.org/2000/svg" xmlns:ev="http://www.w3.org/2001/xml-events" xmlns:xlink="http://www.w3.org/1999/xlink" baseProfile="full" height="10" version="1.1" viewBox="-12.023258518113735 -10.61059663715964 21.42270804013897 24.224739527355904" width="10">
	<defs/>
	<path d="M 5.365953230759468,5.7844147234171945 L 6.4525294313736445,4.86932593554006 L 7.605819487759091,3.8514253714651194 L 5.365953230759468,5.7844147234171945" fill="none" stroke="#000000" stroke-width="0.020170474210954126"/>
	<path d="M 1.965015498246224,2.1503697126953654 L 1.6654852416444432,1.9460702227587694 L 4.087436976191212,-1.1103792755896627 L 1.965015498246224,2.1503697126953654" fill="none" stroke="#000000" stroke-width="0.020170474210954126"/>
	<path d="M -9.779182597043164,8.641384972898962 L -10.22962848384759,9.137135833043109 L -9.530689240895345,11.094751867209785 L -9.779182597043164,8.641384972898962" fill="none" stroke="#000000" stroke-width="0.020170474210954126"/>
	<path d="M 2.9776404209763996,1.6056051973519896 L 4.237468556620636,-0.6485612250334061 L 4.98922083693573,2.2893980602863073 L 4.074475559241458,0.27886210770066766 L 3.57852130445544,2.20142404676621 L 2.9776404209763996,1.6056051973519896" fill="none" stroke="#000000" stroke-width="0.020170474210954126"/>
	<path d="M -5.69741502640831,0.8658789016712927 L -6.564971816704278,1.87896734867164 L -5.667836371486152,1.2430326969176286 L -5.69741502640831,0.8658789016712927" fill="none" stroke="#000000" stroke-width="0.020170474210954126"/>
	<path d="M 7.1413940523371515,9.595358977378876 L 5.394884088715377,11.389302857399795 L 5.12158317320846,11.587010231995377 L 4.102377169660032,10.85742816557451 L 7.1413940523371515,9.595358977378876" fill="none" stroke="#000000" stroke-width="0.020170474210954126"/>
	<path d="M -7.179082574795954,-1.7949529603999146 L -8.486908804044965,-0.5227304668368202 L -9.29572022949076,-0.6668914210533432 L -7.179082574795954,-1.7949529603999146" fill="none" stroke="#000000" stroke-width="0.020170474210954126"/>
	<path d="M 5.517199335272199,-8.057278782465755 L 6.041941294495043,-8.58346397895875 L 6.365656316496765,-7.5791443614837375 L 5.517199335272199,-8.057278782465755" fill="none" stroke="#000000" stroke-width="0.020170474210954126"/>
</svg>
