<?xml version="1.0" ?>
<svg xmlns="http://www.w3.org/2000/svg" xmlns:ev="http://www.w3.org/2001/xml-events" xmlns:xlink="http://www.w3.org/1999/xlink" baseProfile="full" height="10" version="1.1" viewBox="-12.455035396937118 -8.910775008337302 23.064857159831483 22.053237350190315" width="10">
	<defs/>
	<path d="M 2.8346879459711634,3.4295829733441394 L 3.699626167586344,1.4614172241396093 L 5.39416486995443,-1.7135347393291542 L 2.8346879459711634,3.4295829733441394" fill="none" stroke="#000000" stroke-width="0.019204710374547445"/>
	<path d="M -6.33115607193131,7.099480391229488 L -5.862042996558063,7.058167815429584 L -7.428410987155405,11.296690600014424 L -9.913869781838866,7.6671111360992885 L -8.251860120781355,7.864537897901783 L -10.5249620042951,7.177126501738754 L -10.105841742748183,7.251513379050231 L -6.33115607193131,7.099480391229488" fill="none" stroke="#000000" stroke-width="0.019204710374547445"/>
	<path d="M 1.674271754627279,5.639199543159183 L 3.3602467100104745,7.6684349270198044 L 3.984637263409257,6.817576435940239 L 1.674271754627279,5.639199543159183" fill="none" stroke="#000000" stroke-width="0.019204710374547445"/>
	<path d="M -3.5380059666732544,9.754990781983771 L -6.150327514982936,8.16849293524725 L -6.213925879073249,8.31884024746609 L -3.5380059666732544,9.754990781983771" fill="none" stroke="#000000" stroke-width="0.019204710374547445"/>
	<path d="M 8.679748370252344,-6.32840745289708 L 6.829757524061512,-7.02702282453334 L 6.5062403877856925,-7.065003266498715 L 8.679748370252344,-6.32840745289708" fill="none" stroke="#000000" stroke-width="0.019204710374547445"/>
	<path d="M 7.752166589879099,-2.642986107850831 L 6.957405216924611,-2.207124915781576 L 7.9982589561789625,-3.0585833120635146 L 7.752166589879099,-2.642986107850831" fill="none" stroke="#000000" stroke-width="0.019204710374547445"/>
	<path d="M -3.7326461108544358,-4.097822796314294 L -3.1771979552461493,-3.214260310158555 L -2.991835744871722,-3.2456038769660336 L -2.8272835912827143,-3.043211501439264 L -3.1322124089520895,-3.5697909220129636 L -3.7326461108544358,-4.097822796314294" fill="none" stroke="#000000" stroke-width="0.019204710374547445"/>
	<path d="M 4.389404626267623,-3.2766932284084005 L 4.177247466040056,-3.235025794734027 L 3.514965537424269,-2.6150351519844257 L 1.9941124638224232,-1.4555148861773 L 1.6323633410226757,-1.155112460217778 L 1.771721348842623,-1.2299253441549962 L 2.307630200044669,-1.540071255690038 L 2.2512929329804843,-0.9800318656101022 L 4.389404626267623,-3.2766932284084005" fill="none" stroke="#000000" stroke-width="0.019204710374547445"/>
</svg>
