<?xml version="1.0" ?>
<svg xmlns="http://www.w3.org/2000/svg" xmlns:ev="http://www.w3.org/2001/xml-events" xmlns:xlink="http://www.w3.org/1999/xlink" baseProfile="full" height="10" version="1.1" viewBox="-12.719018531845379 -7.298667352740316 26.78660550229285 18.974022482582264" width="10">
	<defs/>
	<path d="M -8.032373018598483,-5.688497058027934 L -7.623128987878902,-5.283901732208846 L -9.349517519962166,-5.7082056521371545 L -8.032373018598483,-5.688497058027934" fill="none" stroke="#000000" stroke-width="0.022303584931134764"/>
	<path d="M -7.14010463612015,7.828593930464905 L -7.148382275009724,8.986334284083648 L -10.477508246266334,7.848172820420842 L -7.912062585678391,3.766449247119499 L -9.379524607999763,4.353994172045569 L -7.793465586570286,3.6806356061357137 L -8.1997250847988,5.380177435387591 L -8.077174745480995,6.3127015951886705 L -7.14010463612015,7.828593930464905" fill="none" stroke="#000000" stroke-width="0.022303584931134764"/>
	<path d="M 9.658666290833779,6.415388567707396 L 9.686796731643678,6.155663476106808 L 9.95054365120322,6.426466034894398 L 11.826076684868431,6.905340109665799 L 9.658666290833779,6.415388567707396" fill="none" stroke="#000000" stroke-width="0.022303584931134764"/>
	<path d="M 8.691785143649902,-4.750380163002164 L 8.297571823070774,-2.4634156383638888 L 7.925092780248272,-2.798574414904208 L 7.8599342683047215,-2.476572314318394 L 7.756911058490538,-3.1598046255627916 L 8.012157421249858,-2.741848557059324 L 8.157968850959382,-2.621822064692851 L 8.0472800093966,-3.218840807205172 L 8.215016955567346,-3.3578422432439767 L 8.691785143649902,-4.750380163002164" fill="none" stroke="#000000" stroke-width="0.022303584931134764"/>
	<path d="M 5.2099901687147625,8.002285070507757 L 5.450130137879957,7.901149490638905 L 6.829188016490248,8.078401267432183 L 5.590035121404194,7.680113399024927 L 5.2099901687147625,8.002285070507757" fill="none" stroke="#000000" stroke-width="0.022303584931134764"/>
	<path d="M -4.573980816591026,9.726751744850976 L -4.4808045463836566,9.892375740071234 L -4.54402772165781,10.084893429238786 L -4.573980816591026,9.726751744850976" fill="none" stroke="#000000" stroke-width="0.022303584931134764"/>
</svg>
