<?xml version="1.0" ?>
<svg xmlns="http://www.w3.org/2000/svg" xmlns:ev="http://www.w3.org/2001/xml-events" xmlns:xlink="http://www.w3.org/1999/xlink" baseProfile="full" height="10" version="1.1" viewBox="-15.280146829910699 -14.564203415043089 34.28898705711493 26.795279520683682" width="10">
	<defs/>
	<path d="M -8.653437905297785,-5.861752033911445 L -9.74007872159755,-5.783853924162196 L -10.545154732308772,-4.201268962533455 L -11.685808996322484,-4.122647899771897 L -9.984049150519267,-7.2698746917812285 L -8.653437905297785,-5.861752033911445" fill="none" stroke="#000000" stroke-width="0.02855036391100327"/>
	<path d="M 8.192117621404968,9.986240160620703 L 9.257124036421272,9.01298931246821 L 10.756065739052813,5.735986914269174 L 7.829356031798142,3.65870293823428 L 10.74416693278955,5.4606403435238 L 13.293408340029648,8.276187110833348 L 16.1395286541484,7.438702087592656 L 8.192117621404968,9.986240160620703" fill="none" stroke="#000000" stroke-width="0.02855036391100327"/>
	<path d="M -7.095236648254564,-5.195874150224462 L -6.072526479135017,-8.02955225185481 L -7.3718107306362235,-9.267668355627837 L -8.10183251451678,-7.953302010958222 L -8.58424864181852,-12.319367470023197 L -5.497513290723523,-8.57075435797775 L -7.095236648254564,-5.195874150224462" fill="none" stroke="#000000" stroke-width="0.02855036391100327"/>
	<path d="M -9.230373459809499,0.34953056087210754 L -11.064122859842435,4.457984361444812 L -11.429746517650264,4.103411953603753 L -12.407372726428532,4.926598040360202 L -12.41083525685487,4.80510521033273 L -11.567542301581003,2.7925487986132773 L -9.230373459809499,0.34953056087210754" fill="none" stroke="#000000" stroke-width="0.02855036391100327"/>
	<path d="M -4.7836086341377975,-8.33544433090968 L -2.964463359962604,-6.557214377969932 L -4.2291596644882015,-11.354171138655563 L -4.7836086341377975,-8.33544433090968" fill="none" stroke="#000000" stroke-width="0.02855036391100327"/>
	<path d="M 8.961724110236343,8.812474244803262 L 6.902363125734537,9.70517844116406 L 6.978648396668311,9.56909060681098 L 8.961724110236343,8.812474244803262" fill="none" stroke="#000000" stroke-width="0.02855036391100327"/>
	<path d="M 1.3578198116610913,8.857451665060765 L 0.9980049841747444,9.18446937111786 L 1.1806828064754322,9.259583456372468 L 1.3073569230857534,9.30354747514094 L 1.3578198116610913,8.857451665060765" fill="none" stroke="#000000" stroke-width="0.02855036391100327"/>
	<path d="M 6.873946554774669,3.8659565415978996 L 6.978416401620308,4.108833202870579 L 6.6858202042486266,4.1601366136425 L 6.873946554774669,3.8659565415978996" fill="none" stroke="#000000" stroke-width="0.02855036391100327"/>
	<path d="M -0.9323841037380909,5.609878413245353 L -1.0328176931888353,5.397888674349021 L -1.0008483859002557,5.285873884057429 L -0.9323841037380909,5.609878413245353" fill="none" stroke="#000000" stroke-width="0.02855036391100327"/>
</svg>
