<?xml version="1.0" ?>
<svg xmlns="http://www.w3.org/2000/svg" xmlns:ev="http://www.w3.org/2001/xml-events" xmlns:xlink="http://www.w3.org/1999/xlink" baseProfile="full" height="10" version="1.1" viewBox="-18.276479459231517 -19.488543326649744 33.8007861037005 28.758799830992277" width="10">
	<defs/>
	<path d="M -6.635021531310638,-0.5814235079486014 L -7.272177557650636,-2.82529780630272 L -7.298629888051513,-2.3656918016404873 L -7.441738613723271,-3.351638919739428 L -9.344669376065779,-3.0269041944050126 L -11.046949819590745,-4.560608890083526 L -15.44802067203593,-5.814477729577854 L -6.635021531310638,-0.5814235079486014" fill="none" stroke="#000000" stroke-width="0.028143868529309328"/>
	<path d="M 3.3769533157131804,-9.586994357843157 L 2.9529633251564693,-11.992228572661967 L 1.2063738524570444,-13.493083749686749 L -3.254269675276893,-15.686208590879964 L -5.249658018433684,-14.152384966078422 L -6.061562496003109,-17.080250062179843 L -5.442057990244525,-13.495872673404822 L 3.3769533157131804,-9.586994357843157" fill="none" stroke="#000000" stroke-width="0.028143868529309328"/>
	<path d="M -5.218123466780524,5.142001956806348 L -5.949616003271831,5.576886533122472 L -5.984323385307167,5.72688995777778 L -5.218123466780524,5.142001956806348" fill="none" stroke="#000000" stroke-width="0.028143868529309328"/>
	<path d="M 3.7309186860017522,6.352501906436704 L 3.101636487092835,6.861963239872628 L 3.3184032481914487,6.7584365004555425 L 3.7309186860017522,6.352501906436704" fill="none" stroke="#000000" stroke-width="0.028143868529309328"/>
	<path d="M 7.493221025710589,-8.694183600732101 L 8.272873242952068,-7.403903734278409 L 9.119589526155664,-7.070196536729435 L 8.786844792010774,-8.430300992760644 L 9.467857457593574,-8.397437978227469 L 12.695847857273396,-6.161225013964303 L 9.52485892424496,-9.586057840376856 L 7.493221025710589,-8.694183600732101" fill="none" stroke="#000000" stroke-width="0.028143868529309328"/>
	<path d="M -6.954996122027783,0.008900301997087467 L -5.944261926081652,-1.0056798537299338 L -5.113671983543532,-0.9306211710092651 L -6.954996122027783,0.008900301997087467" fill="none" stroke="#000000" stroke-width="0.028143868529309328"/>
</svg>
