<?xml version="1.0" ?>
<svg xmlns="http://www.w3.org/2000/svg" xmlns:ev="http://www.w3.org/2001/xml-events" xmlns:xlink="http://www.w3.org/1999/xlink" baseProfile="full" height="10" version="1.1" viewBox="-11.987427456393027 -9.878469577798544 24.156985926301843 21.371752966338065" width="10">
	<defs/>
	<path d="M -8.351950972263193,-8.08910930565009 L -6.17175430589796,-3.6925309272314406 L -5.4728922862205955,-1.9427909614046193 L -4.993144801353542,-2.8354082211182736 L -0.9831638280564796,-5.51485504874739 L -2.2290295324104177,-4.762358718094847 L -3.831848583562798,-7.945969672196299 L -8.351950972263193,-8.08910930565009" fill="none" stroke="#000000" stroke-width="0.02011405988867764"/>
	<path d="M 3.883208916986142,-3.5803981453854323 L 6.212673759999424,-2.001331511966489 L 10.148095451096712,-2.4573058471864035 L 10.040604689174627,-1.8182890672522416 L 9.278616976905816,-0.4054116575132749 L 9.497844699650392,-1.163142161881348 L 8.480589624513744,0.4228086165662912 L 7.932237603805801,-0.1130128627175303 L 8.067494401930604,-0.2688754977235729 L 3.883208916986142,-3.5803981453854323" fill="none" stroke="#000000" stroke-width="0.02011405988867764"/>
	<path d="M 3.5255380021682274,-2.9735569297468007 L 6.54026480508059,-0.14790665275779435 L 9.300671009180412,2.144400524243901 L 9.341889243911472,2.2813499840062974 L 9.39171425289988,2.1466162287999393 L 8.911308431473028,1.8051496543674241 L 8.579583103079333,1.2064784239699202 L 7.815552378888016,0.8410701397049758 L 8.247793195511356,0.6343784276135029 L 3.5255380021682274,-2.9735569297468007" fill="none" stroke="#000000" stroke-width="0.02011405988867764"/>
	<path d="M -9.76253206451522,9.456210545450592 L -8.998381997186689,9.703923116391064 L -8.758520279252037,6.594836885748942 L -9.76253206451522,9.456210545450592" fill="none" stroke="#000000" stroke-width="0.02011405988867764"/>
	<path d="M -7.224195786936834,4.532622006811591 L -9.537829661133642,6.291230268260032 L -9.965964437580924,6.291596088569345 L -7.224195786936834,4.532622006811591" fill="none" stroke="#000000" stroke-width="0.02011405988867764"/>
</svg>
