<?xml version="1.0" ?>
<svg xmlns="http://www.w3.org/2000/svg" xmlns:ev="http://www.w3.org/2001/xml-events" xmlns:xlink="http://www.w3.org/1999/xlink" baseProfile="full" height="10" version="1.1" viewBox="-7.722205776126528 -14.285215769451696 20.155062053511017 28.27061442509396" width="10">
	<defs/>
	<path d="M 0.16176276921176935,1.5850230516302855 L 1.0978096020653898,-0.3462180913091426 L 2.772721492438287,-1.851404396535199 L 0.16176276921176935,1.5850230516302855" fill="none" stroke="#000000" stroke-width="0.023539229329803464"/>
	<path d="M 6.349346722373205,-7.572180654133933 L 4.213529407169704,-9.482360702573846 L 4.643118827985214,-9.829620395426572 L 6.349346722373205,-7.572180654133933" fill="none" stroke="#000000" stroke-width="0.023539229329803464"/>
	<path d="M -3.6229864623855645,9.440981339218798 L -4.383589598121995,9.683950825852415 L -5.436499381436593,11.619706107997018 L -3.6229864623855645,9.440981339218798" fill="none" stroke="#000000" stroke-width="0.023539229329803464"/>
	<path d="M -4.76875499847794,-6.275106810853897 L -5.297524990431323,-5.118766923463819 L -3.8373372074383703,-5.580427374677737 L -3.145561161190982,-5.76485278615593 L -4.76875499847794,-6.275106810853897" fill="none" stroke="#000000" stroke-width="0.023539229329803464"/>
	<path d="M 5.790821951746201,-9.550852677290587 L 7.617502526478619,-11.919523221806447 L 10.743459760704487,-8.531609691131017 L 8.777377632367644,-8.732660873137656 L 5.790821951746201,-9.550852677290587" fill="none" stroke="#000000" stroke-width="0.023539229329803464"/>
	<path d="M 9.977881775778933,-9.353080760183538 L 7.286202249165295,-10.37681817721807 L 7.164390083618544,-9.24086617480679 L 9.977881775778933,-9.353080760183538" fill="none" stroke="#000000" stroke-width="0.023539229329803464"/>
	<path d="M 6.714779778496165,5.781429681692611 L 4.766651595335586,4.521194765464321 L 4.806974226794851,4.371855270217426 L 6.714779778496165,5.781429681692611" fill="none" stroke="#000000" stroke-width="0.023539229329803464"/>
	<path d="M -6.032809259446525,9.993765625102647 L -5.872534504188664,10.002084782537318 L -5.267663468207495,10.987141793527105 L -6.032809259446525,9.993765625102647" fill="none" stroke="#000000" stroke-width="0.023539229329803464"/>
	<path d="M 8.493775857323648,5.627322626359042 L 5.031586533565452,8.584031824273222 L 5.1027399498839126,8.47896643883723 L 8.493775857323648,5.627322626359042" fill="none" stroke="#000000" stroke-width="0.023539229329803464"/>
	<path d="M -0.8296913030191213,9.948462356760093 L -0.6026266673946141,9.913447642900417 L -0.23382530924549083,10.385742774466094 L -0.8296913030191213,9.948462356760093" fill="none" stroke="#000000" stroke-width="0.023539229329803464"/>
	<path d="M 4.945240746004181,1.1082500491203149 L 5.672500941879698,1.2026382604853045 L 6.054444392013466,1.181094413328591 L 6.170783704223113,1.0725519923800355 L 5.860499366158913,0.9876406992985807 L 4.989775214763263,-0.05616922673112357 L 4.659741044356265,-0.7502459084229692 L 4.945240746004181,1.1082500491203149" fill="none" stroke="#000000" stroke-width="0.023539229329803464"/>
	<path d="M 5.856929558891689,-5.044276061045054 L 6.448235655886594,-4.3372222890776015 L 5.72713670524056,-4.0079996122293755 L 5.856929558891689,-5.044276061045054" fill="none" stroke="#000000" stroke-width="0.023539229329803464"/>
</svg>
