<?xml version="1.0" ?>
<svg xmlns="http://www.w3.org/2000/svg" xmlns:ev="http://www.w3.org/2001/xml-events" xmlns:xlink="http://www.w3.org/1999/xlink" baseProfile="full" height="10" version="1.1" viewBox="-11.939430474990015 -14.336514212344921 25.361638620597738 29.07471514010407" width="10">
	<defs/>
	<path d="M -3.3300135662265244,-8.411481191963697 L -4.014403332812452,-9.867586246963429 L -3.9337765900696056,-11.90353430261931 L -3.3300135662265244,-8.411481191963697" fill="none" stroke="#000000" stroke-width="0.02420875532065285"/>
	<path d="M -7.772232081029859,9.69899780554406 L -7.839307826112367,10.15874449466409 L -8.592163696331319,12.305221018033537 L -7.772232081029859,9.69899780554406" fill="none" stroke="#000000" stroke-width="0.02420875532065285"/>
	<path d="M 1.2319198101626316,-9.296972887928725 L -0.44639547333746554,-8.330821490642025 L -1.4693756043626418,-6.707184628219507 L 1.2319198101626316,-9.296972887928725" fill="none" stroke="#000000" stroke-width="0.02420875532065285"/>
	<path d="M -9.815873608556597,1.352495619125376 L -9.127885544041366,0.6117289032932389 L -9.747212595273252,2.064448165536967 L -9.815873608556597,1.352495619125376" fill="none" stroke="#000000" stroke-width="0.02420875532065285"/>
	<path d="M 7.1508670192565695,-0.7809517958233272 L 8.571208441270786,-4.2103732008191495 L 7.2177484546758635,-2.1474592558970063 L 7.343869304365219,-1.4869309627827005 L 7.2515864263739935,-1.0636013395807282 L 6.619672139433591,-0.12814599886585176 L 4.477147256798714,2.1806306388304 L 4.871368675557011,2.477035621231686 L 6.148935984425114,0.9210288989277449 L 7.1508670192565695,-0.7809517958233272" fill="none" stroke="#000000" stroke-width="0.02420875532065285"/>
	<path d="M 8.828528600784878,3.1805862625891574 L 8.6068243587655,3.8911121927091954 L 10.124371506089316,3.8606438038471134 L 11.298651279174308,2.703823516377394 L 9.22014661757402,2.1932196985202284 L 7.079245120926182,4.368380108322885 L 8.828528600784878,3.1805862625891574" fill="none" stroke="#000000" stroke-width="0.02420875532065285"/>
	<path d="M 9.581211823928019,7.531213569258298 L 10.540857983868946,9.228392816202103 L 10.636810987766351,9.542403355729203 L 9.581211823928019,7.531213569258298" fill="none" stroke="#000000" stroke-width="0.02420875532065285"/>
	<path d="M -6.695828698293429,-4.443169564551869 L -7.196942735245911,-6.0147569429687024 L -6.791056543572678,-7.7369855910779295 L -6.984051173275629,-7.409266007324447 L -7.293595972567856,-7.55474362343444 L -7.5448226785569785,-5.753791872034965 L -6.695828698293429,-4.443169564551869" fill="none" stroke="#000000" stroke-width="0.02420875532065285"/>
	<path d="M -7.743065518759953,-9.711242650600443 L -7.535788417548253,-9.440209216194479 L -8.721586689345123,-9.100371567206743 L -7.743065518759953,-9.711242650600443" fill="none" stroke="#000000" stroke-width="0.02420875532065285"/>
	<path d="M 7.590502214144369,-8.165255044458474 L 7.094823044347058,-6.9952637978794625 L 6.739967454018972,-7.831987710699189 L 7.047248563151614,-7.0175832526063076 L 7.565791832904498,-6.630941628991356 L 7.508336449971959,-7.14702017813213 L 7.469723787043234,-7.283877970911023 L 7.712855656121534,-7.7721704142385315 L 7.590502214144369,-8.165255044458474" fill="none" stroke="#000000" stroke-width="0.02420875532065285"/>
	<path d="M 7.836649116225384,-4.7523722594650275 L 8.228578211750325,-5.613777180560426 L 8.569222255233564,-5.310970324247426 L 7.836649116225384,-4.7523722594650275" fill="none" stroke="#000000" stroke-width="0.02420875532065285"/>
</svg>
