<?xml version="1.0" ?>
<svg xmlns="http://www.w3.org/2000/svg" xmlns:ev="http://www.w3.org/2001/xml-events" xmlns:xlink="http://www.w3.org/1999/xlink" baseProfile="full" height="10" version="1.1" viewBox="-15.843443463246757 -10.950029442882833 37.932033246935305 23.350894194015034" width="10">
	<defs/>
	<path d="M 9.453687199297686,4.296319873487294 L 12.244768550158529,0.2887235313096568 L 15.182650523575251,-2.890302458984783 L 14.874384677207283,-2.961514698377998 L 13.976204026315177,-2.748634184879935 L 16.64659857607005,-4.6601636079490225 L 18.34876052594722,-6.906286115018116 L 18.91442713479846,-5.115520951493675 L 9.453687199297686,4.296319873487294" fill="none" stroke="#000000" stroke-width="0.031583707949155125"/>
	<path d="M 5.888466351532845,-1.8274642650020407 L 9.690483066283125,-4.622195331288343 L 9.901837071877994,-4.4143251360944475 L 14.018621880157907,-6.547131712965845 L 12.407197367094946,-1.8615806505819465 L 15.03146460700821,-5.094744678784556 L 13.414860040504417,-8.990961715069432 L 5.888466351532845,-1.8274642650020407" fill="none" stroke="#000000" stroke-width="0.031583707949155125"/>
	<path d="M -9.166470816786552,4.411144893939927 L -11.150918324129687,1.9655510114823596 L -12.669280814356668,3.767629287284895 L -10.938401959817748,6.307346583735589 L -8.484521397285222,4.11105816062435 L -9.166470816786552,4.411144893939927" fill="none" stroke="#000000" stroke-width="0.031583707949155125"/>
	<path d="M -4.661760790073539,6.5453280537577 L -5.667788538917431,7.4988677475135095 L -6.270104913118487,2.9549513041883504 L -4.661760790073539,6.5453280537577" fill="none" stroke="#000000" stroke-width="0.031583707949155125"/>
	<path d="M -3.658918337692258,4.806127247979342 L -2.7682834725684664,2.5433831343398383 L -3.6629746994481964,2.6775825587754642 L -3.658918337692258,4.806127247979342" fill="none" stroke="#000000" stroke-width="0.031583707949155125"/>
	<path d="M -7.015852017540465,-6.699629078271672 L -7.528668588902068,-6.210302977553619 L -7.621828316833667,-6.367123715746927 L -7.726417493841602,-6.892489075427811 L -7.1713830127581,-6.985543208520097 L -5.953168095549679,-6.711407997850996 L -6.3560289310300115,-5.112409672967453 L -7.015852017540465,-6.699629078271672" fill="none" stroke="#000000" stroke-width="0.031583707949155125"/>
	<path d="M 9.057546591836086,9.69024137352124 L 7.836293475054401,8.874421606705905 L 7.653643928172991,7.400582910230164 L 8.2604182979418,8.627410661228062 L 8.618274326690951,8.489900023793393 L 10.365219359893011,10.441797023318799 L 9.057546591836086,9.69024137352124" fill="none" stroke="#000000" stroke-width="0.031583707949155125"/>
	<path d="M 9.876621817753076,-5.911179382838078 L 11.12756893334365,-7.085561762174778 L 11.363107412982933,-8.352784048962441 L 10.653217595181678,-8.181877509793962 L 9.538165066439376,-6.24700245393872 L 9.760883537083252,-6.397881575913351 L 9.894948212938944,-6.832831899657034 L 10.867809690483512,-8.056864905611025 L 9.876621817753076,-5.911179382838078" fill="none" stroke="#000000" stroke-width="0.031583707949155125"/>
</svg>
