<?xml version="1.0" ?>
<svg xmlns="http://www.w3.org/2000/svg" xmlns:ev="http://www.w3.org/2001/xml-events" xmlns:xlink="http://www.w3.org/1999/xlink" baseProfile="full" height="10" version="1.1" viewBox="-12.371410769152542 -1.7785858034874047 21.921624310580032 13.592538258319323" width="10">
	<defs/>
	<path d="M -6.040963544563988,2.482030533452548 L -5.656795848747948,1.8541221790174915 L -6.161298920596893,-0.16880976968298378 L -6.040963544563988,2.482030533452548" fill="none" stroke="#000000" stroke-width="0.018252809584163223"/>
	<path d="M -1.2236557001178028,7.325152242232679 L -0.8557491232632676,10.655631412168574 L 0.8041352668703231,6.514826387649998 L 2.7220123407214976,4.660197854808025 L 3.4569254708642636,3.869424771406563 L 1.6869871785488364,4.256455873727725 L 1.9486156868073459,4.79451866145232 L -1.2236557001178028,7.325152242232679" fill="none" stroke="#000000" stroke-width="0.018252809584163223"/>
	<path d="M -1.925913146885465,0.3581438684883196 L 0.6329471197993559,-0.6382689446340599 L 0.6247229359600605,-0.5258027474614045 L -1.925913146885465,0.3581438684883196" fill="none" stroke="#000000" stroke-width="0.018252809584163223"/>
	<path d="M -7.280207665257046,9.173969666378664 L -10.537003405944137,10.58343235781036 L -10.281327826084421,10.673635595978572 L -7.280207665257046,9.173969666378664" fill="none" stroke="#000000" stroke-width="0.018252809584163223"/>
	<path d="M 2.2517123202462166,4.305661751648513 L 2.5462866604465115,4.751180787154683 L 2.2423561181591216,4.634792793591561 L 2.2517123202462166,4.305661751648513" fill="none" stroke="#000000" stroke-width="0.018252809584163223"/>
	<path d="M 4.419753157699622,7.123932083726515 L 5.615760861301445,6.861775375607826 L 5.108888732295717,7.339000612173562 L 4.419753157699622,7.123932083726515" fill="none" stroke="#000000" stroke-width="0.018252809584163223"/>
	<path d="M -3.945440032907614,0.09698719340470952 L -3.557189304577223,0.4250861001911144 L -2.051648309918657,1.3398623647675934 L -3.945440032907614,0.09698719340470952" fill="none" stroke="#000000" stroke-width="0.018252809584163223"/>
	<path d="M 1.80292267968591,1.6549985791707051 L 2.3864031530655763,2.375688590683745 L 1.111929013412551,0.17186040572150008 L 1.3985195815735656,0.8223823086520766 L 1.0029701810023166,0.14487652215977898 L 0.8343310645002566,0.3241954832779327 L 1.0955857654979166,0.8109247757230885 L 1.9797987468135854,1.7841782754711586 L 1.80292267968591,1.6549985791707051" fill="none" stroke="#000000" stroke-width="0.018252809584163223"/>
	<path d="M 7.1263730689603335,9.809236818399402 L 7.218871707258012,10.179359033611897 L 6.622104690038922,10.005056547552414 L 6.935794764518384,10.101621363818687 L 7.364036638140076,10.25968960373273 L 7.715806178219086,9.503032374659066 L 7.446616798240431,9.345482052194262 L 7.260764983839879,9.15082005246405 L 7.1263730689603335,9.809236818399402" fill="none" stroke="#000000" stroke-width="0.018252809584163223"/>
</svg>
