<?xml version="1.0" ?>
<svg xmlns="http://www.w3.org/2000/svg" xmlns:ev="http://www.w3.org/2001/xml-events" xmlns:xlink="http://www.w3.org/1999/xlink" baseProfile="full" height="10" version="1.1" viewBox="-13.749326974109426 -9.415802045503423 32.75391476475295 21.132969421003455" width="10">
	<defs/>
	<path d="M 5.417197423524257,-0.3855107323656721 L 3.656054979057857,0.9247300219274026 L 6.478698686152891,-1.1303725963989086 L 5.417197423524257,-0.3855107323656721" fill="none" stroke="#000000" stroke-width="0.027272202135514526"/>
	<path d="M 8.554849659997995,-3.8971975153021603 L 4.62262095199873,-3.9064097285393915 L 8.89235874971017,-1.6553466398817664 L 9.32143483994308,0.21568213697518934 L 10.443836358738272,0.9723392479275785 L 12.484004413528995,-1.8118352256891532 L 11.500518342787347,-1.8249270820298695 L 16.26373147602431,-1.959596708564047 L 8.554849659997995,-3.8971975153021603" fill="none" stroke="#000000" stroke-width="0.027272202135514526"/>
	<path d="M -2.8353276040520985,5.080169638730398 L -3.820058470691025,3.971127700847598 L -3.969783308701397,4.122457492514858 L -4.8599503815166845,3.8126913727783687 L -5.280603956246322,2.263286637011774 L -2.8353276040520985,5.080169638730398" fill="none" stroke="#000000" stroke-width="0.027272202135514526"/>
	<path d="M -8.02746419477854,9.41181764669286 L -8.111101792681064,9.51965059330685 L -9.36709062531748,6.024733659231266 L -8.02746419477854,9.41181764669286" fill="none" stroke="#000000" stroke-width="0.027272202135514526"/>
	<path d="M -4.018723576964107,-0.46409490481577365 L -3.9562498292629162,1.86797508395928 L -3.9394372362600993,2.9817291823151777 L -3.470442013154231,3.650023492980199 L -3.3185935819537793,3.604710931136459 L -3.4994175169675046,3.2043785943820704 L -4.018723576964107,-0.46409490481577365" fill="none" stroke="#000000" stroke-width="0.027272202135514526"/>
	<path d="M -4.698488039111539,-7.643357842863336 L -4.556192349889509,-7.495840464477682 L -4.096830777462863,-6.161971096372715 L -4.698488039111539,-7.643357842863336" fill="none" stroke="#000000" stroke-width="0.027272202135514526"/>
	<path d="M -0.7119696151565318,-4.270810620549241 L -0.9931749120017405,-3.8917180540583365 L -0.8983091678012994,-3.7371891180020977 L -0.7119696151565318,-4.270810620549241" fill="none" stroke="#000000" stroke-width="0.027272202135514526"/>
	<path d="M -5.081177131509436,6.716876830536481 L -5.146782960653558,6.8026249622290536 L -5.999604205774466,3.9730577100172 L -6.152328441783501,3.7745711454784088 L -7.288249195413648,2.6557421679385556 L -6.1294319827698605,3.316680825842748 L -6.0915004771754635,2.961885051702308 L -5.824276890960941,3.5042565466338145 L -5.783383898521297,3.4102177841068873 L -5.081177131509436,6.716876830536481" fill="none" stroke="#000000" stroke-width="0.027272202135514526"/>
	<path d="M 5.859107463273585,9.944723172859945 L 5.952612387788558,9.765271847320566 L 5.522694821091669,9.535730105458812 L 5.859107463273585,9.944723172859945" fill="none" stroke="#000000" stroke-width="0.027272202135514526"/>
	<path d="M -9.568012033777855,6.677518926621268 L -9.958194638414506,7.040616266117639 L -11.008470659490216,4.937265185847984 L -9.568012033777855,6.677518926621268" fill="none" stroke="#000000" stroke-width="0.027272202135514526"/>
	<path d="M 4.010054997756686,-0.6603920921753677 L 5.385639251394117,-1.8806533209170715 L 5.210699833372618,-1.5714874852284964 L 4.010054997756686,-0.6603920921753677" fill="none" stroke="#000000" stroke-width="0.027272202135514526"/>
	<path d="M -7.657837333636907,5.6779365996643865 L -7.023279899800309,6.137710450489881 L -6.921231495238462,6.204801246593322 L -7.272247953851945,6.173540947977342 L -7.428609216065136,6.016043301124797 L -7.151393757754116,6.0555253650789425 L -7.588341325751582,5.791957360398816 L -7.513500605386754,5.871369153029206 L -7.664540710173965,5.749376428448876 L -7.657837333636907,5.6779365996643865" fill="none" stroke="#000000" stroke-width="0.027272202135514526"/>
</svg>
