<?xml version="1.0" ?>
<svg xmlns="http://www.w3.org/2000/svg" xmlns:ev="http://www.w3.org/2001/xml-events" xmlns:xlink="http://www.w3.org/1999/xlink" baseProfile="full" height="10" version="1.1" viewBox="-10.913599548990458 -14.806487568273013 23.756222263989116 21.686432377848742" width="10">
	<defs/>
	<path d="M 3.083723055364487,4.864931085647777 L 2.7509380372785426,4.63011212814591 L 0.6390111940347585,1.5294895667196378 L 3.083723055364487,4.864931085647777" fill="none" stroke="#000000" stroke-width="0.01978036824645222"/>
	<path d="M -7.273266533802209,3.997474139497468 L -7.126663949544555,3.7290644133222055 L -4.607482434932052,0.6034833416706107 L -7.273266533802209,3.997474139497468" fill="none" stroke="#000000" stroke-width="0.01978036824645222"/>
	<path d="M -6.248845638639295,-6.410310540974318 L -7.763205368033575,-6.291991656163813 L -6.1713519195931585,-4.638356706696312 L -6.248845638639295,-6.410310540974318" fill="none" stroke="#000000" stroke-width="0.01978036824645222"/>
	<path d="M 9.312121360052611,0.6083495696532104 L 9.99843011203297,1.9251840766968704 L 9.594780068895258,-0.419699214091378 L 9.312121360052611,0.6083495696532104" fill="none" stroke="#000000" stroke-width="0.01978036824645222"/>
	<path d="M 6.459161719285305,-8.029212487935256 L 7.9396873355751705,-9.21264312703841 L 7.688922177112915,-9.742531446550142 L 8.67835875509411,-8.684697866607022 L 8.540641983197174,-7.472409991666516 L 6.459161719285305,-8.029212487935256" fill="none" stroke="#000000" stroke-width="0.01978036824645222"/>
	<path d="M 5.867925360410558,1.6446467249562744 L 6.464276405364524,1.8148317927259838 L 6.029112620842453,1.7607841903112333 L 5.867925360410558,1.6446467249562744" fill="none" stroke="#000000" stroke-width="0.01978036824645222"/>
	<path d="M 7.642602485955177,-9.955779566296181 L 8.178760410247015,-10.806320283442517 L 10.85469570623021,-11.947425082743047 L 7.642602485955177,-9.955779566296181" fill="none" stroke="#000000" stroke-width="0.01978036824645222"/>
	<path d="M 6.922186834191216,-9.348065201496453 L 6.46132660821742,-10.468968005060761 L 4.393378014430494,-12.991043050016263 L 4.11798258939196,-12.550371975955072 L 4.300025401185328,-12.211137299324847 L 4.4526647580361205,-11.854320332829626 L 3.342180590053295,-12.598988410082551 L 6.922186834191216,-9.348065201496453" fill="none" stroke="#000000" stroke-width="0.01978036824645222"/>
	<path d="M -7.960674207794884,-1.7443612323787416 L -8.82237098741741,-3.9126369289410974 L -7.551580747787504,-2.0810836058226085 L -7.342993920601408,-2.2485697227623227 L -8.092353278501877,-1.6354224487466515 L -8.92567254022201,-1.8687080954792388 L -7.960674207794884,-1.7443612323787416" fill="none" stroke="#000000" stroke-width="0.01978036824645222"/>
	<path d="M -5.728560626696111,4.854671763237423 L -5.483985290150794,4.9510750751980215 L -5.67266898626473,5.064500291318978 L -5.728560626696111,4.854671763237423" fill="none" stroke="#000000" stroke-width="0.01978036824645222"/>
	<path d="M 9.568348178047927,-4.001711896272974 L 8.797249630753353,-4.267289588308802 L 8.807825491073734,-4.812105530705548 L 8.970711618449457,-4.902479824306222 L 9.568348178047927,-4.001711896272974" fill="none" stroke="#000000" stroke-width="0.01978036824645222"/>
</svg>
