<?xml version="1.0" ?>
<svg xmlns="http://www.w3.org/2000/svg" xmlns:ev="http://www.w3.org/2001/xml-events" xmlns:xlink="http://www.w3.org/1999/xlink" baseProfile="full" height="10" version="1.1" viewBox="-10.712171285348582 -17.100016322513238 25.560340532032708 26.66412134027332" width="10">
	<defs/>
	<path d="M 7.941971599630687,-4.039929986224746 L 6.7462582065195065,-6.529350396441238 L 3.0321435441209403,-9.522220332705448 L 7.941971599630687,-4.039929986224746" fill="none" stroke="#000000" stroke-width="0.022201599783741317"/>
	<path d="M 6.538969183155437,3.525002486946491 L 9.111831694679841,7.061097822603262 L 12.708890202438175,7.332844239494079 L 10.488672574076187,5.890017567914673 L 7.413001773401829,2.481320955447218 L 7.364482607018973,2.3564086162921134 L 6.538969183155437,3.525002486946491" fill="none" stroke="#000000" stroke-width="0.022201599783741317"/>
	<path d="M 7.749869205224904,-7.544974805047364 L 8.063416223294963,-7.30485371636695 L 8.149706972602907,-9.484888215342767 L 7.749869205224904,-7.544974805047364" fill="none" stroke="#000000" stroke-width="0.022201599783741317"/>
	<path d="M -7.586231493234572,-1.0768349265450539 L -8.57289224110263,-5.8305248628730455 L -7.475103481211317,-2.7176648537325736 L -7.236374585561663,-2.1845980049928135 L -7.185818286190518,-2.0687757254326846 L -7.586231493234572,-1.0768349265450539" fill="none" stroke="#000000" stroke-width="0.022201599783741317"/>
	<path d="M 7.393692330609891,-8.088881136477076 L 6.933003823529551,-9.797909202439856 L 5.892663872828319,-11.146732949052586 L 3.5058219566729285,-14.868755544247236 L 7.393692330609891,-8.088881136477076" fill="none" stroke="#000000" stroke-width="0.022201599783741317"/>
	<path d="M -6.59808850594038,-5.412265660334972 L -6.181565026626099,-6.038853774411782 L -6.141363938062271,-5.68115801449487 L -5.384483282395794,-5.843251872891945 L -6.59808850594038,-5.412265660334972" fill="none" stroke="#000000" stroke-width="0.022201599783741317"/>
</svg>
