<?xml version="1.0" ?>
<svg xmlns="http://www.w3.org/2000/svg" xmlns:ev="http://www.w3.org/2001/xml-events" xmlns:xlink="http://www.w3.org/1999/xlink" baseProfile="full" height="10" version="1.1" viewBox="-15.873804123872935 -12.1462217402078 31.211110600639433 28.462066505634933" width="10">
	<defs/>
	<path d="M -8.60058495313358,-6.8237443367573025 L -7.427456184263369,-9.763554697030534 L -8.81071588590782,-9.279565210913848 L -8.60058495313358,-6.8237443367573025" fill="none" stroke="#000000" stroke-width="0.02598760249845082"/>
	<path d="M 9.22395096204303,6.807160263376087 L 8.78920012987545,6.693805104271952 L 9.788841379815532,5.900906406983569 L 12.725552425672193,8.902572870949589 L 11.146545046579067,8.893202343752984 L 10.122269479272433,7.812104402812838 L 9.043536957166328,10.92973591330691 L 9.22395096204303,6.807160263376087" fill="none" stroke="#000000" stroke-width="0.02598760249845082"/>
	<path d="M -9.736944597635464,-2.7493761349401336 L -13.256716141526349,-2.0773293852412205 L -13.262050072778628,-1.5316118510868673 L -9.736944597635464,-2.7493761349401336" fill="none" stroke="#000000" stroke-width="0.02598760249845082"/>
	<path d="M -7.2002967191781835,-0.4347266794519875 L -10.855616139597497,1.201175965187967 L -7.622801416248753,-2.038353872489582 L -7.2002967191781835,-0.4347266794519875" fill="none" stroke="#000000" stroke-width="0.02598760249845082"/>
	<path d="M -7.654925203909095,7.373279152381883 L -6.289099342188402,7.568852160439878 L -6.396920283416552,7.542292676690918 L -6.513742889866203,7.3590114289006365 L -6.974149653676853,6.834898374352978 L -7.109946376002811,6.825183140765004 L -7.654925203909095,7.373279152381883" fill="none" stroke="#000000" stroke-width="0.02598760249845082"/>
	<path d="M 3.0864374001642787,7.278127763435496 L 0.7037035152530415,9.35872090100565 L 0.89048354859717,9.084865688793293 L 3.0864374001642787,7.278127763435496" fill="none" stroke="#000000" stroke-width="0.02598760249845082"/>
	<path d="M -9.237459977019718,9.420015088855578 L -11.252217707552624,11.97719212645034 L -9.446707626661254,11.667206994181841 L -8.18806561851659,13.93317772224987 L -9.237459977019718,9.420015088855578" fill="none" stroke="#000000" stroke-width="0.02598760249845082"/>
	<path d="M 9.0077984077713,9.21556927907313 L 8.573984845455064,10.412507665380184 L 6.539589368276534,9.802239006538336 L 7.4564326047061735,10.850979382931087 L 8.564163051044662,11.552633171471996 L 9.0077984077713,9.21556927907313" fill="none" stroke="#000000" stroke-width="0.02598760249845082"/>
	<path d="M -8.477865229418581,-4.417616509841668 L -7.0792510993945195,-4.328890377868546 L -7.126202907626392,-3.3590427673233467 L -8.477865229418581,-4.417616509841668" fill="none" stroke="#000000" stroke-width="0.02598760249845082"/>
	<path d="M -2.0012478825616125,-7.708323653761051 L -1.9824418641896393,-7.209798341733033 L -2.108384676586069,-6.970473989659776 L -2.0012478825616125,-7.708323653761051" fill="none" stroke="#000000" stroke-width="0.02598760249845082"/>
	<path d="M 6.656000083219084,-2.567141455058377 L 6.703106285452435,-2.3172400722973934 L 5.860161535074189,-3.1423853444913927 L 6.656000083219084,-2.567141455058377" fill="none" stroke="#000000" stroke-width="0.02598760249845082"/>
</svg>
