<?xml version="1.0" ?>
<svg xmlns="http://www.w3.org/2000/svg" xmlns:ev="http://www.w3.org/2001/xml-events" xmlns:xlink="http://www.w3.org/1999/xlink" baseProfile="full" height="10" version="1.1" viewBox="-12.033919533131897 -15.887612487860764 24.58971175086292 25.044782324612918" width="10">
	<defs/>
	<path d="M -7.017364148840633,4.336309655078585 L -3.015058781476303,7.0614157787807965 L -4.842760318027311,4.441994770591375 L -4.097293430585759,6.159460174333046 L -3.2496424494491762,6.762483440421955 L -7.017364148840633,4.336309655078585" fill="none" stroke="#000000" stroke-width="0.020853274208670208"/>
	<path d="M -7.994923005620496,-2.414359971470061 L -7.4203878551602465,-3.781509746132004 L -8.516456108366626,-1.7771517245137964 L -7.994923005620496,-2.414359971470061" fill="none" stroke="#000000" stroke-width="0.020853274208670208"/>
	<path d="M 7.5247361407931415,3.7241604247516733 L 10.497960707572169,4.699377237113118 L 9.385378134950855,3.378921041282265 L 7.5247361407931415,3.7241604247516733" fill="none" stroke="#000000" stroke-width="0.020853274208670208"/>
	<path d="M 4.34653866257386,-8.239551060334493 L 3.70696100308533,-6.630975738600316 L 2.810535065854938,-10.098091662239247 L 4.34653866257386,-8.239551060334493" fill="none" stroke="#000000" stroke-width="0.020853274208670208"/>
	<path d="M -5.427255667435467,3.8932613368233753 L -5.3923553226430005,3.1902842700015905 L -5.7055717337051,2.951360487397278 L -5.890525173181334,3.360408486024298 L -6.163345705982686,3.092773272305185 L -5.427255667435467,3.8932613368233753" fill="none" stroke="#000000" stroke-width="0.020853274208670208"/>
	<path d="M -8.369329024986808,-6.960198743738286 L -9.976088022973041,-6.634071567848145 L -7.272755764698392,-8.932296018015752 L -8.369329024986808,-6.960198743738286" fill="none" stroke="#000000" stroke-width="0.020853274208670208"/>
	<path d="M -6.382338212723779,-9.386938423112685 L -4.4706401555718704,-11.641608224671097 L -3.170527478696589,-10.422791225226463 L -3.4716832379962024,-13.791858429889409 L -4.937567217743582,-13.344849070055307 L -6.382338212723779,-9.386938423112685" fill="none" stroke="#000000" stroke-width="0.020853274208670208"/>
	<path d="M 7.384832706752281,5.436109161341033 L 7.462216066853188,5.584945382448728 L 7.283312326098171,5.30255487554929 L 7.450577449717853,5.562746443732749 L 7.384832706752281,5.436109161341033" fill="none" stroke="#000000" stroke-width="0.020853274208670208"/>
</svg>
