<?xml version="1.0" ?>
<svg xmlns="http://www.w3.org/2000/svg" xmlns:ev="http://www.w3.org/2001/xml-events" xmlns:xlink="http://www.w3.org/1999/xlink" baseProfile="full" height="10" version="1.1" viewBox="-10.608296532729204 -9.821892405091802 21.23632311219575 16.437068246190464" width="10">
	<defs/>
	<path d="M -0.6408465105290428,-2.3082398797004267 L -2.919905309690186,1.461240119051312 L -2.9732522870749487,1.5732188897798633 L -0.6408465105290428,-2.3082398797004267" fill="none" stroke="#000000" stroke-width="0.017682200759530184"/>
	<path d="M -6.264883130571739,-3.4886656601150197 L -6.59847998854843,-2.7175357661165047 L -7.585931414126859,-3.970576298888596 L -5.0830485439554405,-4.21894191840092 L -4.538795669686811,-4.121724911101423 L -6.264883130571739,-3.4886656601150197" fill="none" stroke="#000000" stroke-width="0.017682200759530184"/>
	<path d="M 6.601166703316437,-5.988182879058721 L 6.451956057338303,-5.937041576958873 L 8.85096540313376,-5.171972579392735 L 6.879013930377115,-8.44476913425946 L 6.722015245317244,-8.146804264970145 L 5.74857490147556,-8.055216017752679 L 6.601166703316437,-5.988182879058721" fill="none" stroke="#000000" stroke-width="0.017682200759530184"/>
	<path d="M -6.119932064491794,-0.7816965470392834 L -4.815487773402812,1.6673803656105388 L -4.247047084834303,-0.46326714048369144 L -6.119932064491794,-0.7816965470392834" fill="none" stroke="#000000" stroke-width="0.017682200759530184"/>
	<path d="M 0.6685384600480475,-0.3386251945999401 L 1.389312838334848,-0.7040541717153654 L 1.1501727904220678,1.3463434314515494 L 0.6685384600480475,-0.3386251945999401" fill="none" stroke="#000000" stroke-width="0.017682200759530184"/>
	<path d="M -8.486982676552088,-2.4991754354141733 L -7.882045856405005,-7.295901619965004 L -7.908496815067429,-7.1534453589580895 L -8.831235356396421,-8.106076949373495 L -8.559433560664713,-7.686529800574947 L -8.486982676552088,-2.4991754354141733" fill="none" stroke="#000000" stroke-width="0.017682200759530184"/>
	<path d="M 8.826686335854124,-1.7838063491618286 L 7.432384471134731,-0.36387844479182196 L 7.668143477671339,0.7506902386192351 L 8.826686335854124,-1.7838063491618286" fill="none" stroke="#000000" stroke-width="0.017682200759530184"/>
	<path d="M -5.743681920615636,-7.5205754123133906 L -4.316359101313177,-7.589237162971489 L -4.047322576762752,-4.440988968896434 L -4.658270093762277,-2.332473297537242 L -4.35899321186702,-4.788800516896261 L -5.660051993399063,-6.251612544954356 L -5.656294393324753,-6.124186477891795 L -5.743681920615636,-7.5205754123133906" fill="none" stroke="#000000" stroke-width="0.017682200759530184"/>
	<path d="M 7.9838845697220755,3.2838487717107245 L 8.26113980850297,3.633732715141584 L 7.409057153381533,5.238052570266319 L 7.9838845697220755,3.2838487717107245" fill="none" stroke="#000000" stroke-width="0.017682200759530184"/>
	<path d="M 6.862900657883113,-0.8300985926639441 L 7.6475575746033115,-0.6661768064664559 L 7.10222528073991,-1.1880734300770879 L 7.425355790051555,-0.7760207993420105 L 6.862900657883113,-0.8300985926639441" fill="none" stroke="#000000" stroke-width="0.017682200759530184"/>
</svg>
