<?xml version="1.0" ?>
<svg xmlns="http://www.w3.org/2000/svg" xmlns:ev="http://www.w3.org/2001/xml-events" xmlns:xlink="http://www.w3.org/1999/xlink" baseProfile="full" height="10" version="1.1" viewBox="-11.812197263909894 -12.270169377282052 22.57183229850867 23.906034810108597" width="10">
	<defs/>
	<path d="M 0.2059432205705587,-6.230137774460232 L -1.2897776749066914,-7.505929289947267 L -1.1789440623370364,-7.684009318263154 L 0.2059432205705587,-6.230137774460232" fill="none" stroke="#000000" stroke-width="0.01990510808501965"/>
	<path d="M -3.532124308063751,-3.6937904496281604 L -4.833938508574644,-7.019709667376794 L -3.538193720046557,-8.942506613392261 L -2.535647176880831,-9.983159007761595 L -5.326174454550527,-7.597850905006933 L -3.532124308063751,-3.6937904496281604" fill="none" stroke="#000000" stroke-width="0.01990510808501965"/>
	<path d="M 0.2309174043321054,9.635402070282069 L -3.6092641917207686,6.6994575817338475 L -5.981600662814525,8.106235694339443 L 0.2309174043321054,9.635402070282069" fill="none" stroke="#000000" stroke-width="0.01990510808501965"/>
	<path d="M 3.77394501309192,1.6654500161193493 L 3.185024800090818,1.228495320687251 L 3.663013732135364,1.4458427904258546 L 3.77394501309192,1.6654500161193493" fill="none" stroke="#000000" stroke-width="0.01990510808501965"/>
	<path d="M 8.870355214687631,-9.55120152726318 L 8.416508657506073,-10.269706014737578 L 7.784815251205956,-10.007527025364332 L 8.870355214687631,-9.55120152726318" fill="none" stroke="#000000" stroke-width="0.01990510808501965"/>
	<path d="M -9.440204135208855,-8.120022075835918 L -9.75281635233068,-9.830742852714419 L -9.245099377559663,-9.411673303469291 L -9.244892883143551,-9.197075667658467 L -9.177527164866703,-9.346924554219438 L -9.922917443998747,-10.202000696038416 L -9.440204135208855,-8.120022075835918" fill="none" stroke="#000000" stroke-width="0.01990510808501965"/>
</svg>
