<?xml version="1.0" ?>
<svg xmlns="http://www.w3.org/2000/svg" xmlns:ev="http://www.w3.org/2001/xml-events" xmlns:xlink="http://www.w3.org/1999/xlink" baseProfile="full" height="10" version="1.1" viewBox="-12.64336710874562 -12.447596032051408 25.998600879172617 34.08063969562382" width="10">
	<defs/>
	<path d="M -6.30023021020595,5.633590114473677 L -5.512752416663055,5.014693015937136 L -6.890826791962063,9.805054114729833 L -6.30023021020595,5.633590114473677" fill="none" stroke="#000000" stroke-width="0.02837688567495739"/>
	<path d="M -2.430754450112323,-9.563101470178687 L -3.5560814033174237,-9.595719021718189 L -0.6852178706302023,-8.81338441756087 L -1.7778800924255413,-9.304179624026142 L -2.430754450112323,-9.563101470178687" fill="none" stroke="#000000" stroke-width="0.02837688567495739"/>
	<path d="M -7.9920458309152025,7.972629405940289 L -10.432410006275337,10.32129161489891 L -10.113134129661224,6.905194775270228 L -7.9920458309152025,7.972629405940289" fill="none" stroke="#000000" stroke-width="0.02837688567495739"/>
	<path d="M 3.3945375995017457,7.278124817489324 L 3.2742997414542314,7.489243716424243 L 3.8765021550699847,6.803154926321998 L 3.3945375995017457,7.278124817489324" fill="none" stroke="#000000" stroke-width="0.02837688567495739"/>
	<path d="M 5.524459568375002,8.921525877232558 L 8.925157851680318,10.757261445168194 L 9.168896197074346,12.227089857603865 L 7.354785917537173,13.910070015989263 L 11.176859994798049,14.92752917470926 L 9.127362407868995,18.7811666532392 L 5.524459568375002,8.921525877232558" fill="none" stroke="#000000" stroke-width="0.02837688567495739"/>
	<path d="M 1.9158689377610436,7.434188153750604 L 3.5054830525227025,7.117220733371148 L 1.5404527564698214,5.037873372290956 L 1.9158689377610436,7.434188153750604" fill="none" stroke="#000000" stroke-width="0.02837688567495739"/>
	<path d="M -8.89410993397047,3.2909048565894743 L -8.155868223838048,4.972460146840311 L -7.233337372519227,4.432383827595961 L -8.429854988199558,5.746066244904463 L -8.89410993397047,3.2909048565894743" fill="none" stroke="#000000" stroke-width="0.02837688567495739"/>
	<path d="M -6.788856900192886,9.868803358716992 L -9.430601146590844,12.030775703882167 L -10.46499333311667,12.266056437506496 L -6.788856900192886,9.868803358716992" fill="none" stroke="#000000" stroke-width="0.02837688567495739"/>
</svg>
