<?xml version="1.0" ?>
<svg xmlns="http://www.w3.org/2000/svg" xmlns:ev="http://www.w3.org/2001/xml-events" xmlns:xlink="http://www.w3.org/1999/xlink" baseProfile="full" height="10" version="1.1" viewBox="-12.591433774257272 -10.481859033866046 23.279805808023745 20.530337682116624" width="10">
	<defs/>
	<path d="M 4.373109118966498,3.2990974560322712 L 6.210185601878966,0.5148156948560976 L 5.267060554772288,1.9191193476133022 L 3.903097995471801,-0.7929876147461485 L 3.354604330956067,-0.6106896167398587 L 3.6929635710683453,3.215215170230408 L 2.5645827453840915,3.643908582576211 L 3.360097876076915,4.066930677934742 L 4.373109118966498,3.2990974560322712" fill="none" stroke="#000000" stroke-width="0.019383685102434427"/>
	<path d="M -9.820824245478475,-4.607045393075433 L -9.32576993530269,-4.525204243315527 L -7.792666810597446,-7.230654362146426 L -10.643373421462613,-8.762921024896979 L -10.283011539339824,-8.027682700505514 L -9.41538140808587,-6.8305869694122245 L -9.820824245478475,-4.607045393075433" fill="none" stroke="#000000" stroke-width="0.019383685102434427"/>
	<path d="M 8.252319247472244,7.634113721691769 L 7.433836812301054,5.4739980310738945 L 7.579027991084336,6.63773979289119 L 7.9237880288686835,8.329540639281511 L 7.989340450912313,7.534516838950141 L 8.740311680971816,8.107282926920693 L 8.299825207426052,5.4354009406425625 L 8.252319247472244,7.634113721691769" fill="none" stroke="#000000" stroke-width="0.019383685102434427"/>
	<path d="M -5.489618124796425,6.8747645317632085 L -5.845595325143101,6.580822702574426 L -5.7212145637680205,6.724934198072018 L -5.641204916030199,6.993223718675602 L -5.489618124796425,6.8747645317632085" fill="none" stroke="#000000" stroke-width="0.019383685102434427"/>
	<path d="M -4.912030386374702,1.0167040212166878 L -4.769381838159249,1.599952089602798 L -4.852958221495912,1.4175008055092002 L -4.772205319198223,1.6231710120566343 L -4.8601775011627195,1.5691507423369047 L -4.912030386374702,1.0167040212166878" fill="none" stroke="#000000" stroke-width="0.019383685102434427"/>
</svg>
