<?xml version="1.0" ?>
<svg xmlns="http://www.w3.org/2000/svg" xmlns:ev="http://www.w3.org/2001/xml-events" xmlns:xlink="http://www.w3.org/1999/xlink" baseProfile="full" height="10" version="1.1" viewBox="-10.37837527983755 -20.57341903874796 27.524893011452722 32.25415212961611" width="10">
	<defs/>
	<path d="M 1.6089427437626025,5.750843119100518 L 2.433120545191952,3.571128508236987 L 2.2648629758888577,6.10643848349828 L 1.6089427437626025,5.750843119100518" fill="none" stroke="#000000" stroke-width="0.026856080041312333"/>
	<path d="M 9.057413447736852,-9.721032081331693 L 9.804500555338098,-14.083538321671249 L 9.41532339112006,-15.381534311798069 L 11.828465696089616,-15.998967985737728 L 11.74015356510168,-16.117073739996666 L 13.975216083386723,-14.985889994374837 L 14.841586613976895,-14.813532710739457 L 9.057413447736852,-9.721032081331693" fill="none" stroke="#000000" stroke-width="0.026856080041312333"/>
	<path d="M -6.507296944704894,-8.807192059709363 L -7.6803536198915445,-13.387402030558231 L -7.938126654956516,-13.655247645789432 L -8.073444162199277,-13.359850251306504 L -7.610677614689624,-17.02488416097179 L -7.840915864194878,-17.874382994596072 L -5.84072660044628,-15.658649866321749 L -3.5212204349075886,-13.031657351632965 L -3.3485315601592442,-12.730661009518306 L -6.507296944704894,-8.807192059709363" fill="none" stroke="#000000" stroke-width="0.026856080041312333"/>
	<path d="M 2.4370366931022946,8.854905098419945 L 2.3604798966713285,8.981697046716262 L 2.5339987794815806,8.531899277234892 L 2.4370366931022946,8.854905098419945" fill="none" stroke="#000000" stroke-width="0.026856080041312333"/>
	<path d="M 9.244236574927363,1.4855080692052542 L 9.403655584663323,1.9502520952359979 L 9.464027345831965,1.8311668925489006 L 9.244236574927363,1.4855080692052542" fill="none" stroke="#000000" stroke-width="0.026856080041312333"/>
	<path d="M 8.487368487390768,0.7531656726460447 L 8.612773381547784,1.0430852612729307 L 8.618645230546877,0.3779641418014138 L 8.487368487390768,0.7531656726460447" fill="none" stroke="#000000" stroke-width="0.026856080041312333"/>
	<path d="M 0.010015362883898149,8.321482100750593 L -0.4182528604741366,7.9250291698798705 L -0.22245994677471653,6.964503094961365 L -0.7344408233070967,6.657339635280413 L -0.9650185377456044,6.915462800958685 L -1.45105666207018,6.260699355185169 L -0.5793995654917405,8.10680872819483 L 0.010015362883898149,8.321482100750593" fill="none" stroke="#000000" stroke-width="0.026856080041312333"/>
</svg>
