<?xml version="1.0" ?>
<svg xmlns="http://www.w3.org/2000/svg" xmlns:ev="http://www.w3.org/2001/xml-events" xmlns:xlink="http://www.w3.org/1999/xlink" baseProfile="full" height="10" version="1.1" viewBox="-8.305478235533927 -10.868391939792929 17.386768044161933 18.144993558249016" width="10">
	<defs/>
	<path d="M 7.284839462225857,0.7447980790692643 L 7.346482495590972,1.4748939743930753 L 6.208876553794269,-1.1454960547120367 L 5.828351199844293,-1.0527201005641842 L 4.515891239329173,-2.796424637670656 L 6.769057947930261,-6.977220428556973 L 7.284839462225857,0.7447980790692643" fill="none" stroke="#000000" stroke-width="0.01510823776706829"/>
	<path d="M 3.462234974581502,2.1937078074489342 L 2.5929359889621693,3.5609400597832983 L 6.803740518274504,5.153863464590762 L 3.462234974581502,2.1937078074489342" fill="none" stroke="#000000" stroke-width="0.01510823776706829"/>
	<path d="M -6.8502857994508215,-6.996659238993004 L -5.558303563143674,-9.350014044202565 L -4.980109651833636,-7.55082736298875 L -5.270678374050404,-3.440795579876773 L -5.280531319427001,-3.2014976815311194 L -6.8502857994508215,-6.996659238993004" fill="none" stroke="#000000" stroke-width="0.01510823776706829"/>
	<path d="M -2.5524519904205274,3.3227074297283146 L -1.8525597261075792,3.277966187194489 L -3.5888781310759557,3.496584689175168 L -3.427579439950133,3.5135489586279705 L -3.4758541634655487,3.8137265309257313 L 0.19613715810914556,5.4313569010684635 L 1.235000514095869,5.758223722865723 L -1.0361102261682171,4.157371948281266 L 0.27775742671469805,1.0753718528667426 L -2.5524519904205274,3.3227074297283146" fill="none" stroke="#000000" stroke-width="0.01510823776706829"/>
	<path d="M 0.04269078413758187,-5.745994764352298 L -0.17572490722783765,-5.883989450222891 L -2.199926586890193,-7.444898245014785 L -2.346836694611996,-7.181577037882262 L 0.04269078413758187,-5.745994764352298" fill="none" stroke="#000000" stroke-width="0.01510823776706829"/>
	<path d="M 7.377169203010276,2.4778048438514393 L 7.626097372544899,3.3751089178143743 L 6.608652824609503,2.8566159347087274 L 7.377169203010276,2.4778048438514393" fill="none" stroke="#000000" stroke-width="0.01510823776706829"/>
</svg>
