<?xml version="1.0" ?>
<svg xmlns="http://www.w3.org/2000/svg" xmlns:ev="http://www.w3.org/2001/xml-events" xmlns:xlink="http://www.w3.org/1999/xlink" baseProfile="full" height="10" version="1.1" viewBox="-10.31699283244635 -2.7122998599262846 21.279103337436126 15.985258877081844" width="10">
	<defs/>
	<path d="M -1.8472387977414524,9.998211892357538 L -2.9304062357043072,11.3627474424842 L -3.4371952285502188,11.933471685205623 L -1.8472387977414524,9.998211892357538" fill="none" stroke="#000000" stroke-width="0.01771782126347721"/>
	<path d="M 6.608343516407093,-1.3728125279763486 L 5.839399666076228,0.4087599125267345 L 6.886777001272919,1.8121177016231416 L 6.608343516407093,-1.3728125279763486" fill="none" stroke="#000000" stroke-width="0.01771782126347721"/>
	<path d="M -5.155429051406111,3.61631683342563 L -8.536351795466889,0.35643439111614317 L -8.533168399714674,0.4598443355851899 L -5.155429051406111,3.61631683342563" fill="none" stroke="#000000" stroke-width="0.01771782126347721"/>
	<path d="M 1.0507551409638154,8.832434328515642 L 3.9148330061801935,5.41584778016655 L 4.800832605433236,5.331824178817999 L 1.0507551409638154,8.832434328515642" fill="none" stroke="#000000" stroke-width="0.01771782126347721"/>
	<path d="M 5.541633277920878,9.853285556441058 L 7.378842749414668,5.616790458115291 L 6.048840901088729,8.738127717128894 L 8.070378323147139,5.356722847943455 L 9.18146946801032,7.592106508690603 L 8.840815588238543,7.1703375436496595 L 7.277662288003728,8.345815688898272 L 5.541633277920878,9.853285556441058" fill="none" stroke="#000000" stroke-width="0.01771782126347721"/>
	<path d="M 1.319361871338673,0.9328914103529513 L 0.6200326316667322,0.1801359280128385 L 1.0020733267706239,0.5219273839759881 L 1.319361871338673,0.9328914103529513" fill="none" stroke="#000000" stroke-width="0.01771782126347721"/>
	<path d="M -3.4167236004035484,4.540553001473581 L -2.7858202202440214,2.8777701476270687 L -3.012960237396157,2.38149999017394 L -4.434942079843023,0.5356353594763057 L -3.4167236004035484,4.540553001473581" fill="none" stroke="#000000" stroke-width="0.01771782126347721"/>
</svg>
