<?xml version="1.0" ?>
<svg xmlns="http://www.w3.org/2000/svg" xmlns:ev="http://www.w3.org/2001/xml-events" xmlns:xlink="http://www.w3.org/1999/xlink" baseProfile="full" height="10" version="1.1" viewBox="-16.92760021731921 -6.959717292233147 25.23144230843998 19.609899035315784" width="10">
	<defs/>
	<path d="M -8.8926791977628,5.770697549735054 L -10.440245510696501,5.409448691880742 L -9.34101152485793,8.248042296905968 L -9.145354639400407,8.378064442583103 L -8.432321156911417,7.744879614899325 L -5.246195707463521,7.824309407090515 L -8.8926791977628,5.770697549735054" fill="none" stroke="#000000" stroke-width="0.021008694678134873"/>
	<path d="M -0.5637652294975304,-4.6721552825137795 L 0.7707587532446178,-2.3185729343713732 L -0.6728861151323422,-1.2757152718970801 L -1.123881330024842,-1.1848728001897286 L -4.262672323602778,2.0120138605227003 L -4.49398936792598,2.5803442720665517 L -4.558378539323035,3.7238931595901734 L -4.787812512227872,2.5715775876114444 L -4.723778785233842,1.9822390732482913 L -0.5637652294975304,-4.6721552825137795" fill="none" stroke="#000000" stroke-width="0.021008694678134873"/>
	<path d="M -6.65950826487464,-3.9734436024438473 L -2.4734853189762065,-5.316805416507609 L -1.5688434143173613,-4.913076259337032 L -6.65950826487464,-3.9734436024438473" fill="none" stroke="#000000" stroke-width="0.021008694678134873"/>
	<path d="M -5.821164741376011,3.182904779196999 L -5.97218422113301,2.768498603817242 L -5.342378901883132,1.4171095972324312 L -5.821164741376011,3.182904779196999" fill="none" stroke="#000000" stroke-width="0.021008694678134873"/>
	<path d="M -9.61894458777024,8.218719287776196 L -12.377073208211627,11.007269867357099 L -14.816226402166656,7.85479562334805 L -9.61894458777024,8.218719287776196" fill="none" stroke="#000000" stroke-width="0.021008694678134873"/>
	<path d="M 6.192468275968217,0.17848512623258372 L 5.407731096754571,-1.1179396193215596 L 6.06248077653915,-0.9088004219422082 L 6.192468275968217,0.17848512623258372" fill="none" stroke="#000000" stroke-width="0.021008694678134873"/>
</svg>
